<?xml version="1.0" encoding="UTF-8"?>
<svg width="90px" height="64px" viewBox="0 0 90 64" version="1.1" xmlns="http://www.w3.org/2000/svg" xmlns:xlink="http://www.w3.org/1999/xlink">
    <!-- Generator: sketchtool 58 (101010) - https://sketch.com -->
    <title>84CBCBFF-D8D9-418F-BA0F-1F0654EF72FA</title>
    <desc>Created with sketchtool.</desc>
    <defs>
        <linearGradient x1="99.982811%" y1="50.0000413%" x2="0.0187255522%" y2="50.0000413%" id="linearGradient-1">
            <stop stop-color="#808080" stop-opacity="0.25" offset="0%"></stop>
            <stop stop-color="#808080" stop-opacity="0.12" offset="54%"></stop>
            <stop stop-color="#808080" stop-opacity="0.1" offset="100%"></stop>
        </linearGradient>
    </defs>
    <g id="Mobile---UI" stroke="none" stroke-width="1" fill="none" fill-rule="evenodd">
        <g id="3.-Home" transform="translate(-23.000000, -838.000000)">
            <g id="Informations" transform="translate(23.000000, 714.000000)">
                <g id="Block" transform="translate(0.000000, 124.000000)">
                    <g id="Illustration-1">
                        <ellipse id="Oval" fill="#D2225C" fill-rule="nonzero" opacity="0.1" cx="78" cy="61.95" rx="5" ry="1.5"></ellipse>
                        <path d="M86.6165454,55.2530924 C84.6464193,56.8719497 81.842934,57.5419322 79.1316845,57.9650791 L78.6753596,58.0340007 C75.8435562,58.4523391 72.9801985,58.6751323 70.1071317,58.8105714 C68.569867,58.8843015 67.0326023,58.9363935 65.4953376,58.9828755 L64.2906075,59.0181378 C62.7263733,59.0640855 61.1591724,59.1092319 59.5890048,59.1535768 C58.0517401,59.1968532 56.5144754,59.2374582 54.9772107,59.2753918 C53.0084331,59.3229424 51.0396555,59.3624789 49.0708779,59.3940012 C47.5336133,59.4180436 45.9963486,59.4346062 44.4590839,59.4436889 C42.4897669,59.4549087 40.5209893,59.4511687 38.5527511,59.4324691 C37.0144076,59.416975 35.4771429,59.3902612 33.940957,59.3523276 C31.9711006,59.3021056 30.002323,59.2286426 28.0346242,59.1319386 C26.6990918,59.0672912 25.3643685,58.989554 24.0304542,58.898727 L23.4228302,58.856252 C17.6969237,58.4475306 11.8682633,57.7142363 6.85758944,55.3965456 L6.72247196,55.3332338 C6.65531777,55.3019786 6.58816357,55.2707235 6.52100938,55.2378655 C5.60101144,54.8021804 4.71975822,54.2903991 3.88662314,53.7079652 C2.40518543,52.6613178 1.18184637,51.3838631 0.53538611,49.8683882 C-0.477590415,47.4913928 0.0580249682,44.8194768 1.21501892,42.4953747 C2.37201288,40.1712726 4.10912198,38.0731694 5.61159595,35.8845063 C6.0517391,35.2433747 6.46922783,34.5782007 6.85758944,33.8961969 C9.28484948,29.6190477 10.4887705,24.6695116 7.94419285,20.5478367 C7.60832328,20.022332 7.24565243,19.5141112 6.85758944,19.0251492 C6.23701995,18.2237347 5.60593234,17.4223201 5.17954366,16.5351543 C4.18517613,14.4707105 4.39877501,12.1490126 4.76124585,9.94351988 C5.24669786,7.01114416 6.1366932,3.85276956 8.91833321,2.02073597 C11.8043454,0.118177912 15.9007513,0.214347654 19.482578,0.898755651 C25.0515216,1.9558214 30.1916493,4.16852688 35.3803222,6.16404902 C40.5689951,8.15957116 46.0044394,9.98439202 51.7093096,10.1807386 C52.9348047,10.2222785 54.1617316,10.1780909 55.380945,10.0485052 L55.380945,10.0485052 C57.0063094,9.88306276 58.6095808,9.54863361 60.1642654,9.05074411 C62.409481,8.31825124 64.4524248,7.21630628 65.9670351,5.68480314 C69.2155181,2.41102484 75.3200771,2.16338776 79.7215087,4.14047737 C83.9214777,6.02700714 86.6375816,10.0196543 86.4369281,14.0074929 C86.2087657,18.4465279 82.8526742,22.0961696 79.7773357,25.8395768 C79.4043467,26.2931774 79.0362123,26.7483809 78.6777869,27.20679 C78.4776728,27.4627083 78.2813344,27.719161 78.0887718,27.9761479 L78.0887718,27.9761479 C77.7513826,28.4297485 77.4253207,28.8857534 77.1178678,29.3473681 C75.5466214,31.7139452 74.4357454,34.5565625 75.5174943,37.111472 C76.1243093,38.5419969 77.2821124,39.6335234 78.6777869,40.5864053 C81.8049069,42.7205722 86.1213843,44.156707 88.0631924,47.1443803 C89.7363836,49.7193251 89.1166232,53.1950599 86.6165454,55.2530924 Z" id="Path" fill="#D2225C" fill-rule="nonzero" opacity="0.1"></path>
                        <g id="Group" opacity="0.1" transform="translate(37.000000, 0.450000)" fill-rule="nonzero">
                            <path d="M8.09589041,43.7095841 C8.09917808,43.7843761 8.10493151,43.8575769 8.11315068,43.9291863 C8.75260274,43.6825316 9.38027397,43.4173116 9.99616438,43.1335262 C10.3248434,43.0913087 10.6303831,42.9466313 10.8665753,42.7213743 C11.0465753,42.6338517 11.2257534,42.5423508 11.4032877,42.4508499 C11.3631138,42.3685483 11.3175413,42.2888194 11.2668493,42.2121519 C10.9208219,41.683038 10.3947945,41.3520434 9.81534247,41.3703436 C9.23589041,41.3886438 8.73452055,41.7522604 8.42465753,42.3004702 C8.18691943,42.7332798 8.07338973,43.2198744 8.09589041,43.7095841 L8.09589041,43.7095841 Z" id="Path" fill="#3F3D56"></path>
                            <path d="M8.00136986,40.9271609 C8.01376343,41.4147264 8.15984979,41.8903348 8.42465753,42.3052441 C8.77150685,42.8327667 9.29753425,43.1637613 9.8769863,43.1454611 C9.91726027,43.1454611 9.95917808,43.1398915 9.99616438,43.1367089 C10.3248434,43.0944914 10.6303831,42.949814 10.8665753,42.724557 C11.0268758,42.5768892 11.1619775,42.4055519 11.2668493,42.2169259 C11.7384155,41.3361349 11.7029253,40.2813336 11.1731507,39.4321157 C10.8263014,38.9030018 10.300274,38.5720072 9.72082192,38.5903074 C9.14136986,38.6086076 8.64082192,38.9722242 8.3309589,39.520434 C8.09340451,39.9524749 7.97960554,40.438183 8.00136986,40.9271609 L8.00136986,40.9271609 Z" id="Path" fill="#3F3D56"></path>
                            <ellipse id="Oval" fill="#3F3D56" transform="translate(9.704969, 38.086475) rotate(-1.880000) translate(-9.704969, -38.086475) " cx="9.70496898" cy="38.0864754" rx="1.79747417" ry="2.27805639"></ellipse>
                            <ellipse id="Oval" fill="#3F3D56" transform="translate(9.610726, 35.304573) rotate(-1.880000) translate(-9.610726, -35.304573) " cx="9.61072645" cy="35.3045734" rx="1.79747417" ry="2.27805639"></ellipse>
                            <ellipse id="Oval" fill="#3F3D56" transform="translate(9.516483, 32.521850) rotate(-1.880000) translate(-9.516483, -32.521850) " cx="9.51648349" cy="32.5218497" rx="1.79747417" ry="2.27805639"></ellipse>
                            <path d="M15.5991781,13.2692224 C15.8343665,12.9590297 16.0469363,12.6333461 16.2353425,12.2945389 L11.489589,11.6946112 L16.5953425,11.5688969 C17.5144663,9.45333557 17.493062,7.06472596 16.5361644,4.96491863 L9.80383562,8.62097649 L15.9682192,3.92658228 C14.2578138,1.29244704 11.1741907,-0.200126697 7.97109294,0.055713433 C4.76799514,0.311553563 1.97878101,2.27320678 0.737492448,5.14310183 C-0.503796108,8.01299689 0.00953195711,11.3132581 2.06876712,13.7020615 C1.7024739,14.1850012 1.3908235,14.70463 1.13917808,15.2520072 L7.37013699,18.1386618 L0.765205479,16.2243038 C-0.0761601461,18.9206782 0.545524353,21.8460017 2.41808219,24.0018807 C-0.239520639,27.5054255 0.330829805,32.3979166 3.7281821,35.239975 C7.12553439,38.0820333 12.2087776,37.9190616 15.4044359,34.8656275 C18.6000941,31.8121934 18.8348018,26.8938917 15.9435616,23.5682459 C18.2967741,20.4693912 18.1544891,16.2142633 15.5991781,13.2692224 Z" id="Path" fill="#D2225C"></path>
                            <path d="M0.401873996,18.9072694 C0.461952418,20.7761282 1.17241678,22.5705473 2.41808219,23.9994937 C-0.240217322,27.5025635 0.32918957,32.3951799 3.72601245,35.2378562 C7.12283533,38.0805325 12.2061321,37.9184562 15.4023687,34.8655661 C18.5986052,31.812676 18.8342133,26.8943924 15.9435616,23.5682459 C17.0490411,22.1153707 0.370684932,17.9723689 0.401873996,18.9072694 Z" id="Path" fill="#000000"></path>
                        </g>
                        <g id="Group" opacity="0.1" transform="translate(19.000000, 27.450000)" fill-rule="nonzero">
                            <path d="M7.18166667,31.8018274 C7.18166667,31.8554315 7.17583333,31.9090355 7.16916667,31.964264 C6.70805556,31.7855838 6.255,31.5941794 5.81,31.3900508 C5.57289827,31.3598409 5.35233632,31.2552099 5.18166667,31.0919797 C5.05166667,31.0275465 4.9225,30.9620305 4.79416667,30.8954315 C4.8231268,30.8360438 4.85597224,30.7785311 4.8925,30.7232487 C5.1425,30.3382741 5.52083333,30.097868 5.93916667,30.1108629 C6.3575,30.1238579 6.71916667,30.3870051 6.93916667,30.7849746 C7.11141473,31.0968504 7.19512925,31.4478828 7.18166667,31.8018274 L7.18166667,31.8018274 Z" id="Path" fill="#3F3D56"></path>
                            <path d="M7.24666667,29.7803046 C7.2384611,30.1344217 7.13377198,30.4800412 6.94333333,30.7817259 C6.69333333,31.1650761 6.31416667,31.4062944 5.89666667,31.3932995 L5.81333333,31.386802 C5.57623161,31.3565922 5.35566966,31.2519612 5.185,31.088731 C5.06908084,30.9816112 4.97146216,30.8571327 4.89583333,30.72 C4.55597512,30.080849 4.58057983,29.3156341 4.96083333,28.6984772 C5.21083333,28.3135025 5.59,28.0730964 6.0075,28.0860914 C6.425,28.0990863 6.7875,28.3622335 7.01166667,28.760203 C7.181894,29.0737434 7.26302795,29.4259342 7.24666667,29.7803046 L7.24666667,29.7803046 Z" id="Path" fill="#3F3D56"></path>
                            <ellipse id="Oval" fill="#3F3D56" transform="translate(6.017969, 27.722598) rotate(-88.190000) translate(-6.017969, -27.722598) " cx="6.01796914" cy="27.7225979" rx="1.65445956" ry="1.29663456"></ellipse>
                            <ellipse id="Oval" fill="#3F3D56" transform="translate(6.082724, 25.701419) rotate(-88.190000) translate(-6.082724, -25.701419) " cx="6.08272373" cy="25.7014189" rx="1.65445956" ry="1.29663456"></ellipse>
                            <ellipse id="Oval" fill="#3F3D56" transform="translate(6.148338, 23.679428) rotate(-88.190000) translate(-6.148338, -23.679428) " cx="6.14833796" cy="23.6794281" rx="1.65445956" ry="1.29663456"></ellipse>
                            <path d="M1.7425,9.69583756 C1.57258453,9.47050667 1.41861696,9.23415575 1.28166667,8.9884264 L4.705,8.54497462 L1.02083333,8.46375635 C0.355374491,6.9274628 0.36863718,5.1918439 1.0575,3.66538071 L5.91833333,6.31553299 L1.46666667,2.9084264 C2.69456924,0.985941728 4.92068256,-0.107912401 7.23675251,0.0731564296 C9.55282246,0.25422526 11.5715647,1.67993941 12.4693325,3.7686076 C13.3671004,5.85727579 12.9937725,8.25963893 11.5016667,9.99553299 C11.7667801,10.3460586 11.9922554,10.7234776 12.1741667,11.1212183 L7.68083333,13.2231472 L12.445,11.8261929 C13.0541549,13.7846168 12.6085283,15.9103841 11.26,17.4789848 C13.1814894,20.0212807 12.775461,23.5759574 10.327344,25.6441549 C7.879227,27.7123524 4.21127959,27.5994173 1.90198863,25.3847406 C-0.407302341,23.1700639 -0.582306608,19.5974974 1.5,17.1784772 C-0.200396815,14.9288257 -0.100192049,11.8372184 1.7425,9.69664975 L1.7425,9.69583756 Z" id="Path" fill="#D2225C"></path>
                            <path d="M12.7092006,13.777868 C12.6673937,15.1353953 12.1567893,16.4394595 11.26,17.4789848 C13.1814894,20.0212807 12.775461,23.5759574 10.327344,25.6441549 C7.879227,27.7123524 4.21127959,27.5994173 1.90198863,25.3847406 C-0.407302341,23.1700639 -0.582306608,19.5974974 1.5,17.1784772 C0.700833333,16.1226396 12.7325,13.0980711 12.7092006,13.777868 Z" id="Path" fill="#000000"></path>
                        </g>
                        <g id="Group" opacity="0.1" transform="translate(61.000000, 16.450000)" fill-rule="nonzero">
                            <path d="M7.1625,31.7977665 C7.1625,31.8521827 7.15666667,31.9049746 7.15083333,31.960203 C6.68916667,31.7815228 6.23611111,31.5901184 5.79166667,31.3859898 C5.5543575,31.3556634 5.33356637,31.2510625 5.1625,31.0879188 C5.03333333,31.0237563 4.90333333,30.9579695 4.775,30.8913706 C4.80428346,30.8321458 4.83711801,30.7746522 4.87333333,30.7191878 C5.12333333,30.3342132 5.50166667,30.0938071 5.92,30.106802 C6.33833333,30.119797 6.7,30.3829442 6.92,30.7809137 C7.09224807,31.0927895 7.17596258,31.4438218 7.1625,31.7977665 L7.1625,31.7977665 Z" id="Path" fill="#3F3D56"></path>
                            <path d="M7.2325,29.7762437 C7.22404321,30.1304361 7.11906484,30.4760611 6.92833333,30.777665 C6.67833333,31.1610152 6.3,31.4022335 5.88166667,31.3892386 L5.79833333,31.3827411 C5.56102416,31.3524147 5.34023304,31.2478137 5.16916667,31.0846701 C5.05358223,30.9772574 4.95600667,30.8528339 4.88,30.7159391 C4.54014179,30.0767881 4.56474649,29.3115732 4.945,28.6944162 C5.195,28.3102538 5.57416667,28.0690355 5.99166667,28.0820305 C6.40916667,28.0950254 6.7725,28.3581726 6.99583333,28.7561421 C7.16663832,29.0695261 7.24834968,29.4217256 7.2325,29.7762437 L7.2325,29.7762437 Z" id="Path" fill="#3F3D56"></path>
                            <ellipse id="Oval" fill="#3F3D56" transform="translate(6.001595, 27.717901) rotate(-88.190000) translate(-6.001595, -27.717901) " cx="6.00159532" cy="27.7179015" rx="1.65445956" ry="1.29663456"></ellipse>
                            <ellipse id="Oval" fill="#3F3D56" transform="translate(6.067210, 25.696723) rotate(-88.190000) translate(-6.067210, -25.696723) " cx="6.06720956" cy="25.6967229" rx="1.65445956" ry="1.29663456"></ellipse>
                            <ellipse id="Oval" fill="#3F3D56" transform="translate(6.132797, 23.675569) rotate(-88.190000) translate(-6.132797, -23.675569) " cx="6.13279706" cy="23.6755695" rx="1.65445956" ry="1.29663456"></ellipse>
                            <path d="M1.72333333,9.69177665 C1.55321192,9.46674923 1.39950111,9.23036501 1.26333333,8.98436548 L4.68666667,8.54497462 L1.0025,8.45807107 C0.337369212,6.92177423 0.350328694,5.18639375 1.03833333,3.65969543 L5.89916667,6.30984772 L1.4475,2.90436548 C2.67333071,0.977055178 4.90135406,-0.121154181 7.22064283,0.0587402381 C9.5399316,0.238634657 11.5616855,1.66647576 12.4593106,3.7584908 C13.3569357,5.85050585 12.9799561,8.25599419 11.4825,9.99147208 C11.7473455,10.3420212 11.9725421,10.7194411 12.1541667,11.1171574 L7.66083333,13.2190863 L12.425,11.822132 C13.0351084,13.7802529 12.5893742,15.9062284 11.24,17.4741117 C13.1617603,20.0159851 12.7560961,23.5705478 10.3082138,25.6387288 C7.86033136,27.7069099 4.19254141,27.5939507 1.88352029,25.3792684 C-0.425500839,23.1645862 -0.600089764,19.5921531 1.4825,17.1736041 C-0.217896815,14.9239526 -0.117692049,11.8323453 1.725,9.69177665 L1.72333333,9.69177665 Z" id="Path" fill="#D2225C"></path>
                            <path d="M12.6908626,13.7738071 C12.649094,15.1312403 12.1381479,16.4351413 11.2408333,17.4741117 C13.1622155,20.0160478 12.7563235,23.570355 10.3085005,25.6383461 C7.86067751,27.7063371 4.19312236,27.5933949 1.88413598,25.378918 C-0.424850398,23.1644411 -0.599703007,19.5922498 1.4825,17.1736041 C0.6825,16.1185787 12.7125,13.093198 12.6908626,13.7738071 Z" id="Path" fill="#000000"></path>
                        </g>
                        <ellipse id="Oval" fill="#D2225C" fill-rule="nonzero" cx="15.5" cy="60.45" rx="4.5" ry="1"></ellipse>
                        <circle id="Oval" fill="#3F3D56" fill-rule="nonzero" cx="15.5" cy="59.95" r="1"></circle>
                        <circle id="Oval" fill="#3F3D56" fill-rule="nonzero" cx="15.5" cy="58.95" r="1"></circle>
                        <circle id="Oval" fill="#3F3D56" fill-rule="nonzero" cx="15.5" cy="57.95" r="1"></circle>
                        <circle id="Oval" fill="#3F3D56" fill-rule="nonzero" cx="15.5" cy="56.95" r="1"></circle>
                        <circle id="Oval" fill="#3F3D56" fill-rule="nonzero" cx="15.5" cy="56.95" r="1"></circle>
                        <circle id="Oval" fill="#3F3D56" fill-rule="nonzero" cx="15.5" cy="55.95" r="1"></circle>
                        <circle id="Oval" fill="#3F3D56" fill-rule="nonzero" cx="15.5" cy="54.95" r="1"></circle>
                        <path d="M17.4645919,49.4313613 C17.5357421,49.341962 17.6006188,49.2478973 17.6587713,49.1498206 L16.2877235,48.9278366 L17.7704048,48.9394385 C18.0577796,48.3237791 18.0751213,47.618929 17.81836,46.9903106 L15.8286112,48.0058681 L17.6634882,46.6762844 C17.194571,45.8802587 16.3133037,45.408274 15.3792579,45.4529079 C14.4452122,45.4975417 13.6145833,46.0513303 13.2262817,46.8883187 C12.8379801,47.725307 12.9569392,48.7055302 13.5346219,49.4290409 C13.4237486,49.5681491 13.3283419,49.7185435 13.2500352,49.8776497 L15.0298816,50.7872427 L13.1321125,50.1607373 C12.8612747,50.9480707 13.0126609,51.8167106 13.5346219,52.4702992 C12.7288837,53.4787136 12.8460899,54.9270275 13.8038624,55.7972975 C14.7616348,56.6675675 16.2383652,56.6675675 17.1961376,55.7972975 C18.1539101,54.9270275 18.2711163,53.4787136 17.4653781,52.4702992 C18.1781628,51.5778273 18.1781628,50.3215129 17.4653781,49.4290409 L17.4645919,49.4313613 Z" id="Path" fill="#D2225C" fill-rule="nonzero"></path>
                        <path d="M13,50.489292 C12.9991187,51.0871034 13.1874797,51.6677454 13.5346219,52.1371979 C12.7288837,53.2300167 12.8460899,54.7995545 13.8038624,55.7426662 C14.7616348,56.6857779 16.2383652,56.6857779 17.1961376,55.7426662 C18.1539101,54.7995545 18.2711163,53.2300167 17.4653781,52.1371979 C17.7994924,51.6837304 13,50.1900537 13,50.489292 Z" id="Path" fill="#000000" fill-rule="nonzero" opacity="0.1"></path>
                        <path d="M28,41.163653 L28,59.45 C26.5520468,59.3847301 25.1049708,59.3062445 23.6587719,59.2145431 L23,59.1716591 L23,41.163653 C23,40.9743805 23.0815129,40.79286 23.2266069,40.6590241 C23.3717008,40.5251882 23.5684904,40.45 23.7736842,40.45 L27.2263158,40.45 C27.4315096,40.45 27.6282992,40.5251882 27.7733931,40.6590241 C27.9184871,40.79286 28,40.9743805 28,41.163653 L28,41.163653 Z" id="Path" fill="#3F3D56" fill-rule="nonzero"></path>
                        <path d="M34,59.3712309 L34,29.1517607 C34,28.764189 34.3463902,28.45 34.7736842,28.45 L38.2263158,28.45 C38.4315096,28.45 38.6282992,28.5239353 38.7733931,28.6555409 C38.9184871,28.7871466 39,28.9656422 39,29.1517607 L39,59.45 L34,59.3712309 Z" id="Path" fill="#3F3D56" fill-rule="nonzero"></path>
                        <path d="M44,60.45 L44,36.1594138 C44,35.7676154 44.3463902,35.45 44.7736842,35.45 L48.2263158,35.45 C48.6536098,35.45 49,35.7676154 49,36.1594138 L49,60.3977189 L44,60.45 Z" id="Path" fill="#3F3D56" fill-rule="nonzero"></path>
                        <path d="M60,17.1619713 L60,59.327302 C58.3333333,59.3708921 56.6666667,59.4117914 55,59.45 L55,17.1619713 C55,16.7687604 55.3463902,16.45 55.7736842,16.45 L59.2263158,16.45 C59.6536098,16.45 60,16.7687604 60,17.1619713 L60,17.1619713 Z" id="Path" fill="#3F3D56" fill-rule="nonzero"></path>
                        <path d="M70,26.1573142 L70,59.2775821 C68.3333333,59.3513609 66.6666667,59.4034873 65,59.45 L65,26.1573142 C65,25.7666754 65.3463902,25.45 65.7736842,25.45 L69.2263158,25.45 C69.6536098,25.45 70,25.7666754 70,26.1573142 Z" id="Path" fill="#3F3D56" fill-rule="nonzero"></path>
                        <polyline id="Path" stroke="#3F3D56" stroke-width="7" stroke-linecap="round" points="26 31.45 36.5 19.6932432 47 25.6121622 57.5 7.45 68 16.1256757"></polyline>
                        <ellipse id="Oval" fill="#D2225C" fill-rule="nonzero" cx="25.5" cy="30.45" rx="2.5" ry="2"></ellipse>
                        <ellipse id="Oval" fill="#D2225C" fill-rule="nonzero" cx="36.5" cy="19.45" rx="2.5" ry="2"></ellipse>
                        <ellipse id="Oval" fill="#D2225C" fill-rule="nonzero" cx="46.5" cy="25.45" rx="2.5" ry="2"></ellipse>
                        <ellipse id="Oval" fill="#D2225C" fill-rule="nonzero" cx="57.5" cy="7.45" rx="2.5" ry="2"></ellipse>
                        <ellipse id="Oval" fill="#D2225C" fill-rule="nonzero" cx="77.5" cy="26.45" rx="2.5" ry="2"></ellipse>
                        <ellipse id="Oval" fill="#D2225C" fill-rule="nonzero" opacity="0.1" cx="18.5" cy="57.95" rx="1.5" ry="1"></ellipse>
                        <path d="M18,57.0218964 C18,57.0218964 18.805886,56.989109 19.0487869,56.7615843 C19.2916877,56.5340596 20.289019,56.2648054 20.349555,56.627454 C20.4100911,56.9901025 21.5602758,58.4397032 20.6522352,58.4496388 C19.7441946,58.4595744 18.5372573,58.2628499 18.2951132,58.0691062 C18.052969,57.8753624 18,57.0218964 18,57.0218964 Z" id="Path" fill="#A8A8A8" fill-rule="nonzero"></path>
                        <path d="M20.6674826,57.3613909 C19.7591457,57.368348 18.5525716,57.2312915 18.3095915,57.0956265 C18.1248963,56.9919645 18.0514724,56.6211467 18.0264932,56.45 L18,56.45 C18,56.45 18.0507155,57.0476219 18.2936956,57.183287 C18.5366757,57.318952 19.740979,57.4567042 20.6515867,57.4497471 C20.9142475,57.4497471 21.0050812,57.3620866 20.9997825,57.2347701 C20.963449,57.3119949 20.863532,57.3599994 20.6674826,57.3613909 Z" id="Path" fill="#000000" fill-rule="nonzero" opacity="0.2"></path>
                        <ellipse id="Oval" fill="#D2225C" fill-rule="nonzero" opacity="0.1" cx="86" cy="59.95" rx="3" ry="1"></ellipse>
                        <path d="M84,58.307595 C84,58.307595 85.6124546,58.2589158 86.0985804,57.9181619 C86.5847062,57.5774079 88.5786459,57.1709372 88.6989414,57.7169548 C88.8192369,58.2629724 91.1229789,60.4348732 89.302067,60.4494769 C87.4811551,60.4640807 85.0719486,60.1703832 84.5866467,59.8815537 C84.1013449,59.5927242 84,58.307595 84,58.307595 Z" id="Path" fill="#A8A8A8" fill-rule="nonzero"></path>
                        <path d="M89.3354667,60.2696503 C87.5144039,60.2832977 85.1049978,60.0088338 84.6196557,59.738919 C84.2504991,59.5319338 84.1030013,58.7889099 84.0535607,58.45 L84,58.45 C84,58.45 84.1021773,59.6471783 84.5866953,59.9186094 C85.0712134,60.1900406 87.4822675,60.4652627 89.3025063,60.4493408 C89.8282249,60.4493408 90.0095071,60.2734413 89.999619,60.0186902 C89.9262821,60.1703277 89.7260476,60.2666176 89.3354667,60.2696503 Z" id="Path" fill="#000000" fill-rule="nonzero" opacity="0.2"></path>
                        <path d="M68.0132257,27.8549495 C68.0286305,27.9952397 68.0863552,28.1280853 68.1792472,28.2370253 C68.2996128,28.3683889 68.4797461,28.4284637 68.641617,28.5069615 C69.0605301,28.7138564 69.3805033,29.068807 69.5348126,29.4977953 C69.8112383,30.2763649 69.8469329,31.0997902 70.1988985,31.8511259 C70.550864,32.6024615 70.9642575,33.3241602 71.2680768,34.0939187 C71.4407391,34.5304624 71.5785369,34.9846279 71.8317197,35.3819227 C71.9542915,35.5773158 72.1106813,35.7509791 72.2940895,35.895362 C72.274997,36.1773131 72.2675261,36.4560602 72.2691863,36.7380113 C72.3831978,36.7358428 72.4903866,36.7902796 72.553083,36.8821909 C72.6145125,36.9735117 72.6568139,37.0755566 72.6775991,37.1825649 C72.7913238,37.6367305 72.6510357,38.120533 72.7531389,38.5771015 C73.0336508,39.847104 72.9475107,41.167039 72.5041067,42.3930534 C72.390382,42.7038404 72.2476035,43.7323211 72.3687992,44.0407052 C72.8203776,43.9966503 73.2204893,44.2641835 73.643014,44.4412039 C73.677177,44.682851 73.6567886,44.9287688 73.5832463,45.1621016 C73.4313366,45.5842273 73.4321667,46.0431988 73.434657,46.4893544 L73.4554097,49.7942699 C73.4554097,50.2131916 73.4612205,50.6377202 73.5699646,51.0438259 C73.6936506,51.5011955 73.9534742,51.967376 73.9451731,52.4399645 C73.9227602,53.4572313 74.4208246,54.4264382 74.3809795,55.435695 C74.3735085,55.6295364 74.346115,55.8217758 74.3270225,56.0140152 C74.2779993,56.5261282 74.2913723,57.0420216 74.3668676,57.5511293 C74.5179472,58.5651921 74.9172288,59.5624339 74.817616,60.5821037 C74.8109751,60.6509895 74.786902,60.7423032 74.7196633,60.7687361 C74.802674,60.8592488 74.8906654,60.9489605 74.980317,61.0346672 C74.9621759,61.0638551 74.9375009,61.0887596 74.9080977,61.107558 C74.8100084,61.1569874 74.7016039,61.1843704 74.5909966,61.1876577 C74.4612263,61.190943 74.3352242,61.2304507 74.2282397,61.3013994 C74.1504734,61.3733952 74.0976999,61.466847 74.0771602,61.5689325 C74.0173964,61.7730629 74.0538348,61.9922309 74.1767731,62.1680786 C74.2508921,62.2581095 74.347813,62.3281821 74.4581795,62.371532 C74.8416891,62.5317315 75.281646,62.4155869 75.6817577,62.2986412 L77.2490005,61.8404707 C77.3445951,61.8213107 77.4328111,61.7769472 77.5038434,61.7123111 C77.5363424,61.6752655 77.5578544,61.6304291 77.5661015,61.5825495 C77.9122563,61.6626492 78.2924455,61.5641266 78.6452411,61.4623999 L80.2124838,61.0034283 C80.3082126,60.9846326 80.396527,60.9402196 80.4673268,60.8752687 C80.5244373,60.8082437 80.5478432,60.7202497 80.5312451,60.6349695 C80.5428666,60.6301635 80.5544881,60.6269595 80.5661096,60.6213525 C80.6856451,60.5692877 80.8151418,60.467561 80.786088,60.3450084 C80.7653354,60.2649087 80.6823246,60.2184508 80.64663,60.1447591 C80.6124626,60.0472468 80.6345931,59.9395595 80.7047375,59.862007 C80.7661655,59.7819072 80.8491762,59.7154244 80.9056235,59.6313197 C81.0865869,59.3637865 80.963731,59.0121487 80.8956622,58.6989586 C80.7487332,58.0301258 80.8848708,57.331656 80.7918988,56.6540121 C80.7603547,56.4257279 80.7030773,56.2014486 80.6574214,55.9747663 C80.560676,55.4389851 80.4966474,54.8981804 80.4656666,54.3551494 C80.4058989,53.5797839 80.1826,52.8156323 80.3104365,52.0466748 C80.3725146,51.5953666 80.3988776,51.1401513 80.3892967,50.6849791 C80.3983285,50.3950207 80.3852884,50.1048137 80.3502817,49.8166978 C80.3179075,49.6020305 80.2606301,49.3913682 80.2357269,49.1758999 C80.2155225,48.9337045 80.2110865,48.6905246 80.2224451,48.4477932 C80.2338911,47.9066996 80.1820975,47.366085 80.0680452,46.8361863 C79.9020237,46.1080796 79.5899033,45.4112118 79.4570861,44.6815031 C79.5019119,44.6911151 79.5467377,44.7007271 79.5899033,44.711941 C79.594884,44.1512428 79.0860281,42.9321247 78.8975937,42.4002624 C78.8700106,42.335114 78.8532036,42.2661892 78.8477873,42.196008 C78.8591803,42.1034522 78.8766476,42.0116872 78.9000841,41.9212659 C78.9241572,41.7274245 78.8170733,41.5431951 78.7880196,41.3493537 C78.7767008,41.2130004 78.7870585,41.0757787 78.8187335,40.942447 C78.9523808,40.2255543 79.1184023,39.5142685 79.2844238,38.8037838 C79.3568096,38.5464585 79.3818157,38.2788687 79.3583033,38.0131993 C79.3192674,37.7283276 79.4101071,37.4411139 79.6073356,37.2258188 C79.6802734,37.1608827 79.7424278,37.0855089 79.7916194,37.0023405 C79.819226,36.930971 79.8316481,36.854966 79.8281441,36.7788622 C79.8248472,36.4493797 79.7745689,36.1219029 79.6787248,35.8056503 C79.8248237,35.5501321 79.8787807,35.2361411 79.9211162,34.9397721 C80.0140882,34.2853571 80.1070602,33.6277382 80.1037398,32.9669153 C80.1111359,32.614386 80.0607065,32.262946 79.9543204,31.9256186 C79.8766093,31.7172873 79.7816714,31.5153198 79.6704237,31.3216665 C79.2337872,30.5102561 78.8162432,29.6563928 78.2650519,28.9130672 C78.0990304,28.6871859 78.203624,28.3755979 78.2152455,28.0968508 C78.2276971,27.7604318 78.0898993,27.4376299 77.9545918,27.1284448 C77.8855616,26.9381561 77.7796377,26.7622798 77.6424714,26.6101995 C77.5487155,26.5106292 77.4166169,26.45269 77.2772241,26.45 C77.1190853,26.468644 76.9770783,26.5524965 76.8879038,26.6798863 C76.6851323,26.9464053 76.6011514,27.2800653 76.6546436,27.6066403 C76.7097905,27.9302851 76.855941,28.2331156 77.0771683,28.4821306 C77.184028,28.60743 77.3064145,28.7196065 77.4415854,28.8161465 C77.5788298,29.2369372 77.717181,29.6574608 77.8566391,30.0777175 C78.0757874,30.7465504 78.2949358,31.4185872 78.6037357,32.0513752 C78.6942174,32.2348036 78.7938303,32.421436 78.8046217,32.6240884 C78.8162432,32.8427607 78.721611,33.05102 78.6460712,33.2568764 C78.48693,33.685931 78.396788,34.135963 78.3787766,34.5913382 C78.3545088,34.601721 78.3311843,34.614046 78.3090476,34.628184 C78.0475638,34.7931895 77.9653832,35.1528374 77.6931079,35.3002209 C77.5345574,35.3859276 77.3419725,35.3803207 77.1643295,35.4195695 C77.1485575,35.4195695 77.1327854,35.4275795 77.1161833,35.4323855 C77.1095424,35.4003456 77.1029016,35.3691067 77.098751,35.3362658 C77.0962024,35.3157804 77.0962024,35.2950744 77.098751,35.274589 C77.5220155,35.0500351 77.877568,34.7232359 78.1305745,34.326208 C78.1838854,34.2526805 78.2250503,34.1716165 78.2526003,34.0859088 C78.2750055,33.983205 78.2792156,33.8775807 78.2650519,33.7735198 C78.2511863,33.4261983 78.1997164,33.0812282 78.1114821,32.744238 C78.0229204,32.4056189 77.8291377,32.1012406 77.5561402,31.8719518 C77.4200026,31.7662201 77.2631123,31.6869214 77.1278048,31.5803887 C76.8638307,31.3745324 76.6828672,31.0701533 76.3807082,30.9171628 C75.9834795,30.730488 75.5045545,30.8500103 75.250932,31.1991139 C75.210738,31.2772622 75.1542111,31.3465339 75.0849105,31.4025673 C75.0320552,31.4266962 74.9805205,31.4534314 74.9305106,31.482667 C74.8391987,31.5531548 74.8342181,31.6885234 74.864102,31.79826 C74.9207455,32.0237429 74.9524667,32.2543829 74.9587342,32.4863168 C74.405439,33.1128562 74.4033315,34.0337357 74.9537536,34.6626269 C74.9537536,34.8116125 74.9537536,34.960598 74.9479428,35.1095835 C74.9479428,35.1376184 74.9479428,35.1664543 74.9421321,35.1944892 C74.8464004,35.1623024 74.7607104,35.107179 74.6930998,35.0342898 C74.6001278,34.9221501 74.5835257,34.7571446 74.469801,34.6650299 C74.3880201,34.6130022 74.2947937,34.5800911 74.1975257,34.5689102 C73.9557776,34.515915 73.7290627,34.4122753 73.5334398,34.2653322 C73.37987,34.1507896 73.2204893,34.004207 73.0411861,33.9705651 C72.731793,33.4105676 72.3706124,32.8786803 71.9620465,32.3813862 C71.8584294,32.2636655 71.7640871,32.1386278 71.67981,32.0073204 C71.5013369,31.7069463 71.4482101,31.3537064 71.3353155,31.0244965 C71.0198747,30.1017474 70.2329329,29.3616258 70.0411781,28.4068368 C69.971449,28.0608059 69.7439996,27.7596308 69.5879394,27.4408339 C69.4825158,27.2253655 69.3663008,26.9978823 69.1554535,26.8745287 C68.8840084,26.7143292 68.5087998,26.7880209 68.2830106,27.0034892 C68.0615239,27.2318141 67.9619271,27.5461484 68.0132257,27.8549495 L68.0132257,27.8549495 Z M77.8690907,60.2705157 C77.7710015,60.3199451 77.662597,60.3473281 77.5519897,60.3506154 C77.4962041,60.3562164 77.4407799,60.3647733 77.3859682,60.3762473 C77.3652155,60.2080379 77.353594,60.0374254 77.3403123,59.8716189 C77.2963166,59.3277417 77.2083252,58.7878694 77.1211639,58.2487981 C77.0298521,57.6880999 76.9866865,57.0745358 76.789121,56.5362655 C76.4711899,55.6599743 76.1491082,54.7572502 76.1897835,53.8288941 C76.1989146,53.6182318 76.2263082,53.4091714 76.2379297,53.1993101 C76.2644931,52.6794628 76.1889534,52.1484014 76.3209404,51.642972 C76.379878,51.4130858 76.480321,51.1936125 76.518506,50.9597212 C76.5428616,50.7484984 76.545642,50.5354769 76.5268071,50.3237292 C76.4905273,49.5886851 76.5538743,48.8522163 76.7152414,48.1330012 C76.8696414,48.3276436 76.920278,48.5791568 76.9642736,48.820257 L77.2755639,50.4494858 C77.4606779,51.4162898 77.624209,52.4415665 78.1148025,53.3018378 C78.0459036,53.6118238 77.9778348,53.9426357 78.0915595,54.2390048 C78.1405358,54.3671644 78.2210562,54.479304 78.2708627,54.6090656 C78.3538734,54.8245339 78.3422519,55.0616292 78.3671551,55.2899135 C78.4211121,55.7705119 78.6269787,56.2431004 78.4758992,56.706878 C78.3204976,57.185097 78.2194605,57.678207 78.1745702,58.1775093 C78.1663158,58.316364 78.1496854,58.4546368 78.1247638,58.591625 C78.0982003,58.7149786 78.0550348,58.8319242 78.0309616,58.9584818 C77.9977701,59.1360856 78.0059936,59.3185933 78.0550348,59.4927471 C78.092306,59.589269 78.1152232,59.6903978 78.1231036,59.7931212 C78.1231036,59.8956488 77.9927767,59.9693406 77.8881832,59.9853606 C77.9188971,60.0238084 77.9521014,60.0606543 77.9861358,60.0966992 C77.9661544,60.164691 77.9253583,60.2252747 77.8690907,60.2705157 L77.8690907,60.2705157 Z" id="Shape" fill="url(#linearGradient-1)" fill-rule="nonzero"></path>
                        <path d="M75.4614365,60.9524182 C75.3509292,60.9563386 75.2436308,61.003485 75.1525271,61.0881516 C75.0860689,61.1730485 75.0410577,61.2840773 75.0238737,61.4055001 C74.9731123,61.6472417 75.0041759,61.9069724 75.1087001,62.1147548 C75.1718594,62.2219053 75.2543988,62.3052025 75.3483346,62.3565897 C75.6749163,62.5477635 76.0495662,62.4082066 76.3902855,62.2696056 L77.7248874,61.726672 C77.806241,61.704175 77.8813728,61.6515574 77.9419016,61.5746889 C78.0172329,61.4374863 78.0195076,61.2506175 77.9475567,61.1101366 C77.8758594,60.975238 77.778014,60.8697216 77.6648021,60.8052144 C77.2498596,60.5318359 76.7819007,60.4697044 76.3259588,60.458234 C76.156306,60.458234 75.9887739,60.4027936 75.8735514,60.5796293 C75.8127591,60.6752162 75.8240693,60.7774942 75.7321741,60.8587431 C75.648178,60.9167158 75.5557013,60.9487127 75.4614365,60.9524182 L75.4614365,60.9524182 Z" id="Path" fill="#3F3D56" fill-rule="nonzero"></path>
                        <path d="M78.4614097,59.9521153 C78.3509524,59.9564671 78.243737,60.0035759 78.152486,60.0878516 C78.0861774,60.1729094 78.0411928,60.2838698 78.0238267,60.4052068 C77.9731412,60.6472709 78.0041936,60.9072513 78.108657,61.1154327 C78.1720609,61.2220184 78.2545508,61.3049346 78.3483026,61.3563168 C78.6756063,61.5474947 79.0495665,61.4088907 79.3903016,61.2702868 L80.7249651,60.7263857 C80.8063225,60.7038882 80.8814577,60.6512694 80.9419893,60.5743993 C81.0172033,60.4374936 81.0194785,60.2509784 80.9476447,60.1107929 C80.875864,59.9759945 80.7780376,59.8705013 80.664877,59.8058642 C80.2492085,59.5324798 79.7812279,59.4693911 79.325265,59.4579204 C79.1556044,59.4579204 78.9887715,59.4034348 78.8728367,59.5802743 C78.8120417,59.6758632 78.8233524,59.7771875 78.7314529,59.8584381 C78.6479281,59.9172029 78.5555404,59.9492519 78.4614097,59.9521153 Z" id="Path" fill="#3F3D56" fill-rule="nonzero"></path>
                        <path d="M76.5544723,43.7359409 C77.4084875,43.6468949 78.2675794,43.6218732 79.1250635,43.6610706 C79.1816461,43.6604694 79.2379323,43.6696208 79.2916261,43.6881513 C79.4804483,43.7678006 79.509616,44.0242713 79.5272701,44.2337489 C79.604027,45.0844032 79.9617146,45.8769135 80.1413259,46.710045 C80.2468027,47.2337312 80.2946982,47.768142 80.2840939,48.3030306 C80.2737189,48.5420096 80.2778207,48.7814288 80.296375,49.0198741 C80.3194021,49.2325377 80.373132,49.4412188 80.4022996,49.6530859 C80.4346827,49.9377134 80.4467408,50.2244359 80.4383754,50.5109086 C80.4471566,50.9600779 80.422779,51.4092855 80.3654563,51.854592 C80.2472505,52.6136496 80.4537268,53.3679283 80.5089918,54.1357473 C80.5365341,54.6727653 80.5947155,55.2076182 80.6832302,55.7374943 C80.7254465,55.9613088 80.7784088,56.1827338 80.8075765,56.4081413 C80.8935443,57.0779917 80.7676628,57.7677544 80.9035227,58.4288435 C80.9664634,58.7378827 81.0800637,59.0851535 80.9127335,59.3495891 C80.8605388,59.4292384 80.7837818,59.4969403 80.7269816,59.5773861 C80.6620964,59.6538565 80.6415995,59.7605067 80.6732518,59.856955 C80.7062573,59.9294359 80.7830142,59.9772255 80.8022035,60.0544853 C80.8321387,60.1763487 80.7093275,60.2759103 80.5987975,60.3276823 C79.7659843,60.7179638 78.6921541,60.4431737 78.130293,59.695267 C78.2270068,59.6793372 78.3452126,59.6068563 78.3475153,59.5049052 C78.3401363,59.4035496 78.3189452,59.3037916 78.2845746,59.2086099 C78.239368,59.03677 78.2317626,58.8566153 78.262315,58.6813317 C78.2845746,58.5586718 78.3244882,58.4423838 78.3490504,58.3189275 C78.3720938,58.1835121 78.3874716,58.0468121 78.3951046,57.9095302 C78.4366214,57.4161641 78.5300537,56.9289956 78.6737325,56.4567273 C78.8134302,55.998744 78.6230728,55.5351851 78.5731808,55.0572895 C78.5501537,54.8310855 78.5601321,54.5977131 78.4841427,54.3842531 C78.4380885,54.2584072 78.3636343,54.1453052 78.3183476,54.0194594 C78.2131906,53.7255535 78.2761313,53.3989915 78.3398396,53.0931382 C77.8862058,52.2432804 77.7349946,51.2301416 77.5638265,50.2751467 L77.2759879,48.6662313 C77.233004,48.4272835 77.1861822,48.1795742 77.0457169,47.9868229 C76.8965134,48.6971422 76.8379322,49.4247308 76.8714786,50.1508939 C76.888886,50.360122 76.886315,50.5706236 76.8638029,50.7793267 C76.8284947,51.0103096 76.7356187,51.2277521 76.6811213,51.4539561 C76.562148,51.9533571 76.6319968,52.4774493 76.6043643,52.9911872 C76.5936183,53.1990718 76.5682885,53.4053634 76.5598453,53.613248 C76.5222343,54.5308077 76.8200514,55.4228797 77.1140306,56.2886673 C77.2944095,56.819928 77.3343232,57.4236696 77.4210586,57.9796215 C77.4978155,58.5124752 77.5830158,59.0453289 77.623697,59.5829615 C77.6613079,60.0767871 77.6781944,60.6112337 77.9744764,60.9991257 C77.7035242,61.1815226 77.4241288,61.3671054 77.1071225,61.4300283 C76.7376968,61.4900035 76.359693,61.413921 76.0386654,61.2149753 C75.7194554,61.0169178 75.4341365,60.7652583 75.1943386,60.4702545 C75.2565117,60.4479527 75.2787713,60.3539665 75.2849118,60.2862647 C75.3770202,59.2779048 75.0078191,58.2950327 74.8681214,57.2914518 C74.7982892,56.788683 74.7859224,56.2791154 74.8312781,55.7733365 C74.8489322,55.5829747 74.874262,55.3926129 74.8811701,55.2014547 C74.9180135,54.2050422 74.4551689,53.2452684 74.4720554,52.2480594 C74.4797311,51.7805181 74.2417845,51.3201453 74.1251139,50.8685339 C74.0245622,50.4702875 74.021492,50.0481463 74.0191892,49.63397 L74,46.3683496 C74,45.9270926 74,45.4746847 74.137395,45.0581189 C74.3062603,44.5563285 74.1128328,43.9804642 74.0836651,43.45 C74.8812716,43.712313 75.7207714,43.8094664 76.5544723,43.7359409 L76.5544723,43.7359409 Z" id="Path" fill="#696791" fill-rule="nonzero"></path>
                        <path d="M73.946373,34.6743983 C73.6164263,34.0107446 73.2134039,33.3847468 72.7445526,32.807661 C72.6465893,32.6949523 72.5573726,32.5751603 72.4776558,32.4492968 C72.3088829,32.1612153 72.2586435,31.8229319 72.1518848,31.5078186 C71.8535884,30.6242656 71.1094175,29.9144884 70.9280847,29.0008143 C70.8621455,28.6687095 70.6470581,28.382945 70.4994799,28.0740104 C70.3997861,27.8677966 70.2898874,27.6499977 70.0904998,27.5333749 C69.833808,27.3789076 69.4789923,27.45 69.2654749,27.6569487 C69.0572821,27.8752526 68.9638981,28.1762837 69.0127079,28.4717637 C69.0274069,28.6063036 69.0820058,28.7336171 69.169706,28.8378512 C69.2835296,28.9637421 69.4538726,29.020895 69.6069457,29.096584 C70.0024804,29.2938413 70.305144,29.633969 70.4515955,30.0457856 C70.7129973,30.7910903 70.7467519,31.5804182 71.0795878,32.3002359 C71.4124238,33.0200535 71.803349,33.7105224 72.0906555,34.4465591 C72.2539336,34.8643931 72.384242,35.2961292 72.6236641,35.6822975 C72.8630862,36.0684658 73.2367416,36.3920748 73.6881111,36.45 C73.685053,36.1700431 73.7282677,35.8914586 73.8160646,35.6251446 C73.9141884,35.320844 74.0884563,34.9624799 73.946373,34.6743983 Z" id="Path" fill="#A0616A" fill-rule="nonzero"></path>
                        <path d="M78.5039735,35.2667267 C78.4855059,34.6741803 78.5647882,34.0830113 78.7375129,33.5253373 C78.8036225,33.3116442 78.8812295,33.094599 78.8747622,32.8674977 C78.8654207,32.6563186 78.7791907,32.4627378 78.7008652,32.271671 C78.430678,31.6138314 78.2409721,30.9166052 78.0541405,30.2210551 L77.6948491,28.9095659 C77.5777064,28.8093878 77.4717357,28.692561 77.3793911,28.5617908 C77.1878676,28.303549 77.0612863,27.9885891 77.0136324,27.6517095 C76.9673162,27.3124139 77.0400961,26.9656605 77.2155542,26.6896715 C77.2930272,26.5568754 77.4158639,26.469519 77.5525696,26.45 C77.6731775,26.4531089 77.7874338,26.5136752 77.8687461,26.6176024 C77.9872785,26.7753079 78.0789742,26.9578948 78.1389333,27.1556063 C78.2560623,27.477403 78.3753471,27.8126079 78.3645684,28.161221 C78.3545082,28.4511732 78.261811,28.7746459 78.4076833,29.0101274 C78.8848224,29.7827747 79.2462696,30.6702296 79.6242443,31.5141079 C79.7206592,31.7151918 79.8028501,31.9251114 79.8699996,32.1417791 C79.9623076,32.4929152 80.0059717,32.8589813 79.9993446,33.2261669 C79.9993446,33.912499 79.9217376,34.5963169 79.8412563,35.2767829 C79.7902369,35.7033311 79.7234087,36.1675899 79.4467543,36.45 C79.1593211,36.0209377 78.8704508,35.6019316 78.5039735,35.2667267 Z" id="Path" fill="#A0616A" fill-rule="nonzero"></path>
                        <circle id="Oval" fill="#A0616A" fill-rule="nonzero" cx="76.5" cy="33.95" r="1.5"></circle>
                        <path d="M77.2050367,35.535555 C77.2470094,35.8424858 77.4157398,36.1174957 77.5802728,36.3826839 C77.6793284,36.5463803 77.806086,36.720717 78,36.7387236 C77.4953213,36.9969647 76.9651714,37.2048236 76.4176285,37.359133 C76.2315274,37.4200975 76.0364064,37.4507913 75.8400839,37.45 C75.6737201,37.437883 75.5108692,37.3971483 75.3590766,37.3296676 C74.6864189,37.044057 74.185431,36.473218 74,35.7810996 C74.2168686,35.7867326 74.4337549,35.7705502 74.6472193,35.7328092 C74.769118,35.723681 74.88274,35.6691686 74.9645331,35.5805715 C75.0131757,35.4976004 75.0359314,35.4025937 75.0300105,35.3071985 C75.038405,35.0240037 75.0392445,34.7399905 75.0300105,34.4567957 C75.4580188,34.4301973 75.8873557,34.4818297 76.2959077,34.6090333 C76.4637985,34.6622347 76.6316894,34.7260763 76.7995803,34.7678189 C76.9053515,34.7940103 77.1966422,34.7678189 77.2747114,34.8275681 C77.403148,34.9118717 77.1756558,35.3268421 77.2050367,35.535555 Z" id="Path" fill="#A0616A" fill-rule="nonzero"></path>
                        <path d="M76.7713271,35.9023192 C76.8071572,35.4398723 77.1147782,35.0540489 77.5347769,34.9447876 C77.6991414,34.9051997 77.8773309,34.9101482 78.02403,34.822725 C78.275953,34.6717962 78.3519908,34.303959 78.5939291,34.1348858 C78.8358674,33.9658126 79.1791894,34.0598338 79.3896373,34.2734433 C79.6000853,34.4870528 79.7068453,34.7913846 79.7928679,35.0891184 C79.9212915,35.4916936 79.9909838,35.9131686 79.9994755,36.3386105 C80.0026789,36.4164305 79.9911834,36.4941418 79.9656809,36.5670655 C79.9201372,36.6521896 79.8626229,36.7292496 79.795172,36.7955205 C79.6128001,37.0152934 79.5286711,37.3094952 79.5647546,37.6012986 C79.5865812,37.8729367 79.5634382,38.1465791 79.4963974,38.4095509 C79.3427858,39.136978 79.1891742,39.8635804 79.0655168,40.5976055 C79.0365016,40.7327006 79.0269178,40.8717694 79.0370987,41.0099791 C79.0609085,41.2087432 79.1630602,41.3967856 79.1407865,41.5955497 C79.1190348,41.6880794 79.1028719,41.7820212 79.0923988,41.8767885 C79.0974176,41.9485164 79.1129709,42.0189403 79.1384823,42.0854495 C79.3128315,42.628958 79.7836512,43.8743264 79.7790428,44.45 C78.9610609,44.224844 77.7552096,44.1745344 76.9103457,44.1704107 C76.6780058,44.1677997 76.4457065,44.1788127 76.214485,44.2034006 C75.659179,44.2677309 75.0908159,44.4417525 74.5524072,44.2809268 C74.0524013,44.1316475 73.6099999,43.7036037 73.0930967,43.7572123 C72.9809602,43.4421588 73.1130662,42.390606 73.2182902,42.0722536 C73.6285106,40.8187153 73.7082496,39.467849 73.4487076,38.1687247 C73.3542365,37.7019177 73.4840383,37.2062446 73.3788144,36.7427367 C73.3595827,36.6330686 73.3204357,36.528538 73.2636056,36.4351059 C73.2054155,36.3407837 73.1062708,36.2850621 73.0009298,36.2874762 C72.9913573,35.541909 73.0557248,34.7973659 73.1929443,34.0664317 C73.2436361,33.8066363 73.3465559,33.4998304 73.5946387,33.455294 C73.8143033,33.4148814 73.9986373,33.6144702 74.1752906,33.7604505 C74.3564197,33.9110064 74.5662032,34.016882 74.7897372,34.0705555 C74.8797345,34.0820678 74.9659923,34.1159548 75.0416602,34.1695251 C75.1468842,34.2635463 75.1622454,34.4326195 75.2482679,34.5472594 C75.4018795,34.7526215 75.7452015,34.7353018 75.8542657,34.9720043 C75.8781105,35.0425106 75.8973584,35.1147128 75.9118701,35.188088 C75.9634613,35.3287386 76.0513981,35.4506356 76.1653293,35.5394304 C76.3364116,35.7121421 76.5445771,35.8367975 76.7713271,35.9023192 Z" id="Path" fill="#F86D70" fill-rule="nonzero"></path>
                        <path d="M75.0143421,31.4903855 C74.9881577,31.3715775 74.9925218,31.2302221 75.0725296,31.1504387 C75.1125334,31.1131486 75.1649022,31.0992732 75.2078154,31.0637175 C75.2682943,31.0031152 75.3177894,30.9284637 75.3532841,30.8443131 C75.5774033,30.4703741 75.9951668,30.343925 76.341744,30.5451252 C76.604315,30.7090281 76.7628759,31.036834 76.9963531,31.2579729 C77.1149101,31.3724448 77.252378,31.4574315 77.3716624,31.5719034 C77.6105613,31.8179498 77.7803999,32.1454585 77.8582552,32.510226 C77.9355607,32.8724259 77.9806622,33.2433248 77.9928137,33.6167876 C78.0052275,33.7288719 78.001538,33.8426585 77.9819036,33.9532656 C77.9577314,34.0460427 77.921665,34.133802 77.8749841,34.2134289 C77.6349607,34.6470346 77.3185663,35.0407485 76.9221641,35.264489 C76.5257619,35.4882295 76.0435331,35.5246524 75.6522223,35.2905054 C75.6128542,35.2715399 75.5789823,35.2392918 75.5547583,35.1977138 C75.5325159,35.1343984 75.5271824,35.0644476 75.5394841,34.997388 C75.5606952,34.7323359 75.5167195,34.4656547 75.4129263,34.229906 C75.340192,34.0564637 75.2310904,33.9073034 75.172903,33.7277906 C75.1187957,33.5268551 75.0956323,33.3159036 75.1045327,33.1051329 C75.0979866,32.559657 75.1292624,32.0159155 75.0143421,31.4903855 Z" id="Path" fill="#2D293D" fill-rule="nonzero"></path>
                    </g>
                </g>
            </g>
        </g>
    </g>
</svg>