<?xml version="1.0" encoding="UTF-8"?>
<svg width="90px" height="73px" viewBox="0 0 90 73" version="1.1" xmlns="http://www.w3.org/2000/svg" xmlns:xlink="http://www.w3.org/1999/xlink">
    <!-- Generator: sketchtool 58 (101010) - https://sketch.com -->
    <title>86B2AE87-EF80-456F-995E-41BA4DDB19B4</title>
    <desc>Created with sketchtool.</desc>
    <g id="Mobile---UI" stroke="none" stroke-width="1" fill="none" fill-rule="evenodd">
        <g id="3.-Home" transform="translate(-23.000000, -1127.000000)" fill-rule="nonzero">
            <g id="Informations" transform="translate(23.000000, 714.000000)">
                <g id="Block" transform="translate(0.000000, 414.000000)">
                    <g id="Illustration-3">
                        <ellipse id="Oval" fill="#FF6584" cx="20.5" cy="30.9064698" rx="5.5" ry="5.49226442"></ellipse>
                        <path d="M54,37.2402326 C54,47.7188835 47.7319832,51.3776371 40,51.3776371 C32.2680178,51.3776371 26,47.7188835 26,37.2402326 C26,26.7615816 40,13.431083 40,13.431083 C40,13.431083 54,26.7615807 54,37.2402326 Z" id="Path" fill="#D2225C"></path>
                        <polygon id="Path" fill="#3F3D56" points="38.7527542 50.1029427 38.8992813 41.2539878 45 30.3066601 38.9222601 39.8659356 38.9882122 35.8870672 43.1927333 27.9667979 39.0056204 34.8341731 39.0056204 34.8341731 39.1241949 27.6780838 43.626545 21.3725253 39.1427967 26.5527916 39.2168063 13.431083 38.751461 30.8018355 38.789759 30.0852704 34.2121061 23.2126263 38.7163463 31.4608334 38.2897963 39.453013 38.2770635 39.2408925 33 32.0084047 38.2611474 39.9902417 38.2077292 40.9897641 38.1981796 41.0047902 38.2025565 41.0868478 37.1204645 61.3635724 38.5662381 61.3635724 38.739723 50.8902471 43.9879386 42.9279245"></polygon>
                        <path d="M67,47.2261679 C67,57.7048188 60.7319832,61.3635724 53,61.3635724 C45.2680158,61.3635724 39,57.7048217 39,47.2261679 C39,36.747514 53,23.4170183 53,23.4170183 C53,23.4170183 67,36.747516 67,47.2261679 Z" id="Path" fill="#3F3D56"></path>
                        <polygon id="Path" fill="#F2F2F2" points="52.7527542 60.088878 52.8993808 51.2400207 59 40.292693 52.9223596 49.8518709 52.9882122 45.8731 57.1928328 37.9528307 53.0056204 44.8201084 53.0056204 44.8202059 53.1241949 37.6640191 57.626545 31.3585582 53.1427967 36.5388245 53.2169058 23.4170183 52.751461 40.7878684 52.789759 40.0713032 48.2121061 33.1986592 52.7163463 41.4468663 52.2897963 49.4389483 52.2770635 49.2268278 47 41.9944376 52.2611474 49.9762745 52.2078287 50.975797 52.1981796 50.990823 52.2025565 51.0728807 51.1204645 71.3495077 52.5662381 71.3495077 52.739723 60.8761824 57.9879386 52.9139574"></polygon>
                        <path d="M41,47.2261679 C41,57.7048188 34.7319832,61.3635724 27,61.3635724 C19.2680158,61.3635724 13,57.7048217 13,47.2261679 C13,36.747514 27,23.4170183 27,23.4170183 C27,23.4170183 41,36.747516 41,47.2261679 Z" id="Path" fill="#3F3D56"></path>
                        <polygon id="Path" fill="#F2F2F2" points="26.7527065 60.088878 26.8993319 51.2400207 33 40.292693 26.9223105 49.8518709 26.9881625 45.8731 31.1927483 37.9528307 27.00567 44.8201084 27.00567 44.8202059 27.1241441 37.6640191 31.6264569 31.3585582 27.1427458 36.5388245 27.2168543 23.4170183 26.7515128 40.7878684 26.789711 40.0713032 22.2121956 33.1986592 26.7162989 41.4468663 26.2897525 49.4389483 26.2771192 49.2268278 21 41.9944376 26.2611038 49.9762745 26.2077855 50.975797 26.198236 50.990823 26.2026129 51.0728807 25.1204304 71.3495077 26.566192 71.3495077 26.7396754 60.8761824 31.987947 52.9139574"></polygon>
                        <path d="M40.001289,70.3508081 C26.1669255,70.3508081 14.2590624,60.5919922 11.5600778,47.0425042 C8.8610931,33.4930162 16.1226924,19.9265199 28.9039688,14.6397478 C41.6852452,9.35297572 56.4264318,13.8183689 64.112402,25.3050695 C71.7983723,36.7917701 70.2884743,52.100569 60.5061021,61.8692104 C55.0798041,67.3175796 47.6962552,70.3716674 40.001289,70.3508081 Z M40.001289,12.6566529 C24.1336973,12.6566529 11.2244247,25.5477521 11.2244247,41.393125 C11.2244247,57.238498 24.1336973,70.1296507 40.001289,70.1296507 C55.8688807,70.1296507 68.7781534,57.238498 68.7781534,41.393125 C68.7781534,25.5477521 55.8688807,12.6566529 40.001289,12.6566529 Z" id="Shape" fill="#2F2E41"></path>
                        <polygon id="Path" fill="#F2F2F2" points="64 58.8671379 64 71.3495077 17 71.3495077 17 58.8671379 40.4999517 46.3846695 40.5489403 46.4105859"></polygon>
                        <polygon id="Path" fill="#000000" opacity="0.1" points="64 58.8541662 64 71.3495077 40 71.3495077 40 46.3846695"></polygon>
                        <polygon id="Path" fill="#3F3D56" points="38 53.7864326 36 54.3734177 36 52.0590581 38 51.3776371"></polygon>
                        <polygon id="Path" fill="#3F3D56" points="19 61.1241058 18 61.3635724 18 59.6463707 19 59.3663854"></polygon>
                        <polygon id="Path" fill="#3F3D56" points="21 60.1117714 20 60.3649789 20 58.6643274 21 58.3677918"></polygon>
                        <polygon id="Path" fill="#3F3D56" points="23 59.099668 22 59.3663854 22 57.6813162 23 57.3691983"></polygon>
                        <polygon id="Path" fill="#3F3D56" points="25 58.0557951 24 58.3677918 24 56.7332551 25 56.3706048"></polygon>
                        <polygon id="Path" fill="#3F3D56" points="29 56.862198 28 57.3691983 28 54.9618293 29 54.3734177"></polygon>
                        <polygon id="Path" fill="#3F3D56" points="33 55.8510238 32 56.3706048 32 53.9793657 33 53.3748242"></polygon>
                        <polygon id="Path" fill="#3F3D56" points="19 64.1956334 18 64.359353 18 62.5680737 19 62.362166"></polygon>
                        <polygon id="Path" fill="#3F3D56" points="21 64.1839845 20 64.359353 20 62.5829565 21 62.362166"></polygon>
                        <polygon id="Path" fill="#3F3D56" points="23 63.1743212 22 63.3607595 22 61.5976042 23 61.3635724"></polygon>
                        <polygon id="Path" fill="#3F3D56" points="25 62.1501601 24 62.362166 24 60.6306319 25 60.3649789"></polygon>
                        <polygon id="Path" fill="#3F3D56" points="29 62.0105501 28 62.362166 28 59.8046162 29 59.3663854"></polygon>
                        <polygon id="Path" fill="#3F3D56" points="33 60.9803667 32 61.3635724 32 58.847225 33 58.3677918"></polygon>
                        <polygon id="Path" fill="#3F3D56" points="38 58.9577686 36 59.3663854 36 56.8805514 38 56.3706048"></polygon>
                        <polygon id="Path" fill="#3F3D56" points="38 65.1343176 36 65.3579466 36 62.6944312 38 62.362166"></polygon>
                        <polygon id="Path" fill="#3F3D56" points="19 67.2640187 18 67.3551336 18 65.4929877 19 65.3579466"></polygon>
                        <polygon id="Path" fill="#3F3D56" points="21 67.2583016 20 67.3551336 20 65.5021114 21 65.3579466"></polygon>
                        <polygon id="Path" fill="#3F3D56" points="23 67.2566706 22 67.3551336 22 65.5062169 23 65.3579466"></polygon>
                        <polygon id="Path" fill="#3F3D56" points="25 66.2414988 24 66.3565401 24 64.531071 25 64.359353"></polygon>
                        <polygon id="Path" fill="#3F3D56" points="29 66.2339553 28 66.3565401 28 64.5433494 29 64.359353"></polygon>
                        <polygon id="Path" fill="#3F3D56" points="33 66.1518416 32 66.3565401 32 63.6681802 33 63.3607595"></polygon>
                        <polygon id="Path" fill="#3F3D56" points="62 61.1241058 63 61.3635724 63 59.6463707 62 59.3663854"></polygon>
                        <polygon id="Path" fill="#3F3D56" points="60 60.1117714 61 60.3649789 61 58.6643274 60 58.3677918"></polygon>
                        <polygon id="Path" fill="#3F3D56" points="57 59.099668 58 59.3663854 58 57.6813162 57 57.3691983"></polygon>
                        <polygon id="Path" fill="#3F3D56" points="55 58.0557951 56 58.3677918 56 56.7332551 55 56.3706048"></polygon>
                        <polygon id="Path" fill="#3F3D56" points="51 56.862198 52 57.3691983 52 54.9618293 51 54.3734177"></polygon>
                        <polygon id="Path" fill="#3F3D56" points="48 55.8510238 49 56.3706048 49 53.9793657 48 53.3748242"></polygon>
                        <polygon id="Path" fill="#3F3D56" points="62 64.1956334 63 64.359353 63 62.5680737 62 62.362166"></polygon>
                        <polygon id="Path" fill="#3F3D56" points="60 64.1839845 61 64.359353 61 62.5829565 60 62.362166"></polygon>
                        <polygon id="Path" fill="#3F3D56" points="57 63.1743212 58 63.3607595 58 61.5976042 57 61.3635724"></polygon>
                        <polygon id="Path" fill="#3F3D56" points="55 62.1501601 56 62.362166 56 60.6306319 55 60.3649789"></polygon>
                        <polygon id="Path" fill="#3F3D56" points="51 62.0105501 52 62.362166 52 59.8046162 51 59.3663854"></polygon>
                        <polygon id="Path" fill="#3F3D56" points="48 60.9803667 49 61.3635724 49 58.847225 48 58.3677918"></polygon>
                        <polygon id="Path" fill="#3F3D56" points="42 58.9577686 44 59.3663854 44 56.8805514 42 56.3706048"></polygon>
                        <polygon id="Path" fill="#3F3D56" points="42 65.1343176 44 65.3579466 44 62.6944312 42 62.362166"></polygon>
                        <polygon id="Path" fill="#3F3D56" points="62 67.2640187 63 67.3551336 63 65.4929877 62 65.3579466"></polygon>
                        <polygon id="Path" fill="#3F3D56" points="60 67.2583016 61 67.3551336 61 65.5021114 60 65.3579466"></polygon>
                        <polygon id="Path" fill="#3F3D56" points="57 67.2566706 58 67.3551336 58 65.5062169 57 65.3579466"></polygon>
                        <polygon id="Path" fill="#3F3D56" points="55 66.2414988 56 66.3565401 56 64.531071 55 64.359353"></polygon>
                        <polygon id="Path" fill="#3F3D56" points="51 66.2339553 52 66.3565401 52 64.5433494 51 64.359353"></polygon>
                        <polygon id="Path" fill="#3F3D56" points="48 66.1518416 49 66.3565401 49 63.6681802 48 63.3607595"></polygon>
                        <polygon id="Path" fill="#3F3D56" points="44 54.3734177 42 53.7923876 42 51.3776371 44 52.0531828"></polygon>
                        <rect id="Rectangle" fill="#2F2E41" x="60.9274324" y="68.3537271" width="1" height="1.99718706"></rect>
                        <rect id="Rectangle" fill="#2F2E41" x="61.948579" y="69.3523207" width="1" height="1.99718706"></rect>
                        <rect id="Rectangle" fill="#2F2E41" x="63.95" y="69.3523207" width="1" height="1"></rect>
                        <polygon id="Path" fill="#3F3D56" points="56 67.6899689 56 70.3509142 54.0000506 70.3483058 52 70.3456104 52 67.3551336 54.0000506 67.5225947"></polygon>
                        <polygon id="Path" fill="#3F3D56" points="24 70.3509142 28 70.3454365 28 67.3551336 24 67.6896211"></polygon>
                        <rect id="Rectangle" fill="#2F2E41" x="0" y="70.2520823" width="86" height="1"></rect>
                        <polygon id="Path" fill="#000000" opacity="0.1" points="56 67.5324178 56 70.3509142 54 70.3481513 54 67.3551336"></polygon>
                        <rect id="Rectangle" fill="#2F2E41" x="39.9010805" y="68.3537271" width="1" height="2.99578059"></rect>
                        <path d="M41,67.5730388 C41,68.5276268 40.5343076,69.3242361 39.9744967,69.351601 C39.4302368,69.3782055 39,68.6638811 39,67.7567734 C39,66.8496657 40.06335,64.359353 40.06335,64.359353 C40.06335,64.359353 41,66.6184518 41,67.5730388 Z" id="Path" fill="#D2225C"></path>
                        <rect id="Rectangle" fill="#2F2E41" x="16.9409973" y="68.3537271" width="1" height="1.99718706"></rect>
                        <path d="M17,68.2847516 C17,68.8575041 16.767153,69.3354701 16.4872485,69.3518889 C16.2151189,69.3678517 16,68.9392567 16,68.3949929 C16,67.8507291 16.5316747,66.3565401 16.5316747,66.3565401 C16.5316747,66.3565401 17,67.7119991 17,68.2847516 Z" id="Path" fill="#D2225C"></path>
                        <path d="M61,68.481 C61,68.9806088 60.5889369,69.3708514 60.0543194,69.3516408 C59.4866267,69.3312414 59,68.8622131 59,68.3052072 C59,67.7482013 60.0543194,66.3565401 60.0543194,66.3565401 C60.0543194,66.3565401 61,67.9813904 61,68.481 Z" id="Path" fill="#D2225C"></path>
                        <path d="M63,68.77144 C63,69.1045127 62.7944685,69.3646745 62.5271604,69.3518674 C62.2433175,69.3382677 62,69.0255824 62,68.654245 C62,68.2829076 62.5271604,67.3551336 62.5271604,67.3551336 C62.5271604,67.3551336 63,68.4383673 63,68.77144 Z" id="Path" fill="#D2225C"></path>
                        <path d="M64,69.7700338 C64,70.1031063 63.7944689,70.3632673 63.5271598,70.350461 C63.243317,70.336861 63,70.0241757 63,69.6528388 C63,69.2815019 63.5271598,68.3537271 63.5271598,68.3537271 C63.5271598,68.3537271 64,69.4369604 64,69.7700338 Z" id="Path" fill="#D2225C"></path>
                        <path d="M65,16.110853 C65,16.110853 63.9411774,18.7436733 64.5294124,19.328744 C65.1176474,19.9138146 61,17.573531 61,17.573531 L63.2352927,15.42827 L65,16.110853 Z" id="Path" fill="#A0616A"></path>
                        <ellipse id="Oval" fill="#2F2E41" cx="63" cy="11.4338959" rx="5" ry="4.99296765"></ellipse>
                        <polygon id="Path" fill="#A0616A" points="82 48.4357866 79.4444811 50.3790436 78 48.1119105 80.5555189 46.3846695"></polygon>
                        <path d="M78.0114528,62.6686702 L78.6256171,65.6315323 L80.3657505,67.9813896 C80.3657505,67.9813896 85.0743468,69.4117371 81.9011625,70.1269108 C78.7279782,70.8420845 78.0114528,69.6160723 78.0114528,69.6160723 L75.7595153,67.6748863 L75.7595153,70.3312451 L74.3264645,70.3312451 L74.0193819,66.5510412 C74.0193819,66.5510412 73.8146605,65.4271961 74.7359073,64.2011839 L74.9406287,62.362166 L78.0114528,62.6686702 Z" id="Path" fill="#2F2E41"></path>
                        <path d="M65.6971827,24.4046317 L66.5422534,29.4524709 C66.5422534,29.4524709 75.521126,28.4648505 76.1549293,30.3303553 C76.7887326,32.1958601 77,32.7445393 77,32.7445393 L75.2042253,33.4029536 L74.3591546,31.7569189 C73.8389355,31.5655576 73.2658092,31.6052509 72.7746473,31.8666579 C71.9295775,32.3056001 64.5352112,33.4029536 64.0070422,31.976397 C63.4788731,30.5498374 62,25.2825241 62,25.2825241 L64.2183096,23.4170183 L65.6971827,24.4046317 Z" id="Path" fill="#A0616A"></path>
                        <path d="M65.6971827,24.4046317 L66.5422534,29.4524709 C66.5422534,29.4524709 75.521126,28.4648505 76.1549293,30.3303553 C76.7887326,32.1958601 77,32.7445393 77,32.7445393 L75.2042253,33.4029536 L74.3591546,31.7569189 C73.8389355,31.5655576 73.2658092,31.6052509 72.7746473,31.8666579 C71.9295775,32.3056001 64.5352112,33.4029536 64.0070422,31.976397 C63.4788731,30.5498374 62,25.2825241 62,25.2825241 L64.2183096,23.4170183 L65.6971827,24.4046317 Z" id="Path" fill="#000000" opacity="0.1"></path>
                        <path d="M71,38.9745322 L71.7466667,41.4980591 L73.6666663,51.1715781 C73.6666663,51.1715781 73.8799995,58.3215712 74.1999998,59.1627471 C74.5200001,60.003923 74.5200001,60.1090694 74.1999998,60.4245105 C73.8799995,60.7399516 73.24,61.7914203 74.1999998,62.4223025 C75.1599996,63.0531847 78.5733336,63.7892124 78.6800007,63.0531838 C78.7866678,62.3171552 78.7866707,61.1605391 78.6800007,60.6348043 C78.5733307,60.1090694 79,51.9076067 79,51.9076067 L77.7199999,39.3951197 L73.3466661,37.3973277 L71,38.9745322 Z" id="Path" fill="#2F2E41"></path>
                        <path d="M71,38.9745322 L71.7466667,41.4980591 L73.6666663,51.1715781 C73.6666663,51.1715781 73.8799995,58.3215712 74.1999998,59.1627471 C74.5200001,60.003923 74.5200001,60.1090694 74.1999998,60.4245105 C73.8799995,60.7399516 73.24,61.7914203 74.1999998,62.4223025 C75.1599996,63.0531847 78.5733336,63.7892124 78.6800007,63.0531838 C78.7866678,62.3171552 78.7866707,61.1605391 78.6800007,60.6348043 C78.5733307,60.1090694 79,51.9076067 79,51.9076067 L77.7199999,39.3951197 L73.3466661,37.3973277 L71,38.9745322 Z" id="Path" fill="#000000" opacity="0.1"></path>
                        <path d="M75.2014705,28.4099859 L77.5661313,32.8155353 C77.5661313,32.8155353 91.1091875,38.6896021 89.9268576,41.1021647 C88.7445276,43.5147273 82.1879681,48.0251721 82.1879681,48.0251721 C82.1879681,48.0251721 81.8655141,49.8083709 80.8981531,49.2839006 C79.9307922,48.7594303 77.5661313,46.0321853 77.7811013,45.717503 C77.9960713,45.4028206 78.7484622,44.6685624 79.0709162,44.7734568 C79.3933702,44.8783513 83.15533,42.0462118 83.15533,42.0462118 L76.7062505,40.4728009 C76.7062505,40.4728009 68.9673609,40.263013 68.537422,36.6966153 C68.107483,33.1302177 68.537422,32.5008539 68.537422,32.5008539 L68,31.3470189 L72.4068707,28.7246673 L75.2014705,28.4099859 Z" id="Path" fill="#2F2E41"></path>
                        <path d="M78.6772089,46.3846695 L76.3994422,48.3723459 C76.3994422,48.3723459 74.44707,47.5354292 73.2539553,47.8492731 C72.0608407,48.163117 70,48.3723459 70,48.3723459 L70.3253955,50.1507934 L73.0927549,49.6583633 L70.8677211,52.6615436 C70.8677211,52.6615436 70.8677211,57.3691983 72.2777667,57.3691983 C73.6878124,57.3691983 73.2539533,54.5446051 73.2539533,54.5446051 L77.5925568,51.3015541 C77.5925568,51.3015541 79.761859,50.4646373 79.9787891,50.4646373 C80.1957191,50.4646373 78.6772089,46.3846695 78.6772089,46.3846695 Z" id="Path" fill="#2F2E41"></path>
                        <ellipse id="Oval" fill="#A0616A" cx="64.5" cy="12.9317862" rx="3.5" ry="3.49507736"></ellipse>
                        <path d="M61.3443416,15.6236838 C61.3443416,15.6236838 63.0733873,15.1840029 63.6137142,15.6236838 C64.1540412,16.0633646 64.262107,17.0526481 65.0185645,17.1625678 C65.7750221,17.2724875 66.4234138,17.2724915 66.5314796,17.3824092 C66.6395454,17.4923269 69.1250486,20.5700969 69.1250486,20.5700969 C69.1250486,20.5700969 70.6379637,21.4494586 70.9621601,22.6585825 C71.2863565,23.8677064 74.5283173,27.9347568 74.9605794,28.3744377 C75.3928416,28.8141185 72.1508788,31.0125248 71.0702259,31.7819668 C69.989573,32.5514088 66.855676,32.88117 65.8830879,31.1224455 C64.9104997,29.3637211 59.6152959,17.9320108 61.3443416,15.6236838 Z" id="Path" fill="#575A89"></path>
                        <path d="M64.6971819,22.4074446 L65.5422527,27.4552838 C65.5422527,27.4552838 74.5211268,26.4676634 75.1549292,28.3331692 C75.7887316,30.198675 76,30.7473532 76,30.7473532 L74.2042261,31.4057665 L73.3591554,29.7597318 C72.8389362,29.5683711 72.2658101,29.6080644 71.774648,29.8694709 C70.9295782,30.3084131 63.5352114,31.4057665 63.0070423,29.9792099 C62.4788732,28.5526503 61,23.285337 61,23.285337 L63.2183097,21.4198312 L64.6971819,22.4074446 Z" id="Path" fill="#A0616A"></path>
                        <path d="M63.4674695,16.8538986 C63.4674695,16.8538986 66.2144395,22.2313506 65.9865682,23.7135397 C65.758697,25.1957288 64.961147,24.1370218 64.961147,24.1370218 C64.961147,24.1370218 63.9357246,22.6548336 63.4799821,23.5017977 C63.0242395,24.3487618 62.4545608,25.5133389 61.9988182,25.4074689 C61.5430757,25.3015989 59.0364885,17.4671741 60.4037172,16.7260801 C61.7709459,15.984986 63.4674695,16.8538986 63.4674695,16.8538986 Z" id="Path" fill="#575A89"></path>
                        <ellipse id="Oval" fill="#2F2E41" cx="58" cy="4.44374121" rx="5" ry="4.99296765"></ellipse>
                        <path d="M53.2489354,8.80282447 C54.5671411,9.6876144 56.2652723,9.92440838 57.8051566,9.43816159 C59.345041,8.95191479 60.5357784,7.80290743 61,6.35528333 C60.7639644,8.09846265 59.4925954,9.57032882 57.7114326,10.1624639 C55.9302698,10.754599 53.9419018,10.3664095 52.5682503,9.15835939 C51.1945989,7.95030927 50.6690235,6.1276253 51.2087786,4.44374121 C50.9797583,6.13384822 51.7620494,7.80532384 53.2489354,8.80282447 L53.2489354,8.80282447 Z" id="Path" fill="#2F2E41"></path>
                        <ellipse id="Oval" fill="#2F2E41" cx="61.5" cy="11.9331927" rx="3.5" ry="3.49507736"></ellipse>
                        <ellipse id="Oval" fill="#2F2E41" cx="64" cy="10.9345992" rx="3" ry="2.49648383"></ellipse>
                        <ellipse id="Oval" fill="#A0616A" cx="64.5" cy="13.431083" rx="1" ry="1"></ellipse>
                        <path d="M74.0821314,31.2520817 C74.0821314,31.2520817 76.0892357,30.1820297 76.4618445,30.4503468 C76.8344534,30.718664 77,31.5582811 77,31.5582811 L74.6802684,32.4043601 L74,31.2454448 L74.0821314,31.2520817 Z" id="Path" fill="#2F2E41"></path>
                    </g>
                </g>
            </g>
        </g>
    </g>
</svg>