<?xml version="1.0" encoding="UTF-8"?>
<svg width="80px" height="59px" viewBox="0 0 80 59" version="1.1" xmlns="http://www.w3.org/2000/svg" xmlns:xlink="http://www.w3.org/1999/xlink">
    <!-- Generator: sketchtool 58 (101010) - https://sketch.com -->
    <title>7F54C47B-2507-4568-8D48-4BC89A197765</title>
    <desc>Created with sketchtool.</desc>
    <defs>
        <linearGradient x1="-0.015731574%" y1="50.0024836%" x2="100%" y2="50.0024836%" id="linearGradient-1">
            <stop stop-color="#808080" stop-opacity="0.25" offset="0%"></stop>
            <stop stop-color="#808080" stop-opacity="0.12" offset="54%"></stop>
            <stop stop-color="#808080" stop-opacity="0.1" offset="100%"></stop>
        </linearGradient>
        <linearGradient x1="0%" y1="50.5%" x2="100%" y2="50.5%" id="linearGradient-2">
            <stop stop-color="#808080" stop-opacity="0.25" offset="0%"></stop>
            <stop stop-color="#808080" stop-opacity="0.12" offset="54%"></stop>
            <stop stop-color="#808080" stop-opacity="0.1" offset="100%"></stop>
        </linearGradient>
        <linearGradient x1="0%" y1="49.5%" x2="100.840336%" y2="49.5%" id="linearGradient-3">
            <stop stop-color="#808080" stop-opacity="0.25" offset="0%"></stop>
            <stop stop-color="#808080" stop-opacity="0.12" offset="54%"></stop>
            <stop stop-color="#808080" stop-opacity="0.1" offset="100%"></stop>
        </linearGradient>
        <linearGradient x1="0%" y1="50.5%" x2="100.840336%" y2="50.5%" id="linearGradient-4">
            <stop stop-color="#808080" stop-opacity="0.25" offset="0%"></stop>
            <stop stop-color="#808080" stop-opacity="0.12" offset="54%"></stop>
            <stop stop-color="#808080" stop-opacity="0.1" offset="100%"></stop>
        </linearGradient>
    </defs>
    <g id="Mobile---UI" stroke="none" stroke-width="1" fill="none" fill-rule="evenodd">
        <g id="3.-Home" transform="translate(-33.000000, -1280.000000)">
            <g id="Informations" transform="translate(23.000000, 714.000000)">
                <g id="Block" transform="translate(0.000000, 558.000000)">
                    <g id="Illustration-4">
                        <g id="Group" transform="translate(0.000000, -0.150685)"></g>
                        <path d="M82,57.4514439 C81.4010701,57.7627673 80.7735396,58.031676 80.1544211,58.2997365 C77.8672155,59.2735765 75.545521,60.2558993 73.0883943,60.5901266 C68.4736058,61.2093803 63.7116085,59.512795 59.1775746,60.5714642 C55.3795852,61.4553851 52.238568,64.1639836 48.5280628,65.3702557 C46.8027746,65.9309771 45.0076673,66.1506849 43.1965773,66.1506849 L42.9627255,66.1506849 C42.7384072,66.1478573 42.5157712,66.142202 42.2948177,66.1337191 C40.4584919,66.0641591 38.6145954,65.7901606 36.814441,65.4398157 C31.1304953,64.3370353 25.3456065,62.3155539 21,58.5940941 C33.6532351,56.2629859 59.7176209,52.6848875 82,57.4514439 Z" id="Path" fill="#252223" fill-rule="nonzero" opacity="0.1"></path>
                        <polygon id="Path" fill="#D2225C" fill-rule="nonzero" opacity="0.3" points="86.2303665 29.6966298 86.2303665 24.3488466 83.0471204 24.3488466 83.0471204 29.6966298 79.2774869 29.6966298 79.2774869 21.4242777 76.513089 21.4242777 76.513089 15.2409035 74.2513089 15.2409035 74.2513089 8.89041096 69.5602094 8.89041096 69.5602094 15.2409035 67.2984293 15.2409035 67.2984293 21.4242777 64.617801 21.4242777 64.617801 13.9875168 63.1099476 13.9875168 63.1099476 10.2273567 62.1884817 10.2273567 62.1884817 13.9875168 56.8272251 13.9875168 56.8272251 37.7183045 52.7225131 37.7183045 52.7225131 35.2115312 50.2094241 35.2115312 50.2094241 37.7183045 46.104712 37.7183045 46.104712 29.6966298 38.7329843 29.6966298 38.7329843 24.3488466 35.5497382 24.3488466 35.5497382 29.6966298 35.382199 29.6966298 35.382199 39.9744005 32.0314136 39.9744005 32.0314136 33.9581445 28.0104712 33.9581445 28.0104712 39.9744005 24.6596859 39.9744005 24.6596859 21.4242777 22.0628272 21.4242777 22.0628272 15.2409035 12.513089 15.2409035 12.513089 21.4242777 10 21.4242777 10 54.0958904 24.6596859 54.0958904 35.382199 54.0958904 46.104712 54.0958904 56.8272251 54.0958904 64.617801 54.0958904 79.2774869 54.0958904 90 54.0958904 90 29.6966298"></polygon>
                        <rect id="Rectangle" fill="#FFFFFF" fill-rule="nonzero" opacity="0.4" x="12" y="23.9589041" width="4" height="2.00913242"></rect>
                        <rect id="Rectangle" fill="#FFFFFF" fill-rule="nonzero" opacity="0.4" transform="translate(21.000000, 24.963470) rotate(-180.000000) translate(-21.000000, -24.963470) " x="19" y="23.9589041" width="4" height="2.00913242"></rect>
                        <rect id="Rectangle" fill="#FFFFFF" fill-rule="nonzero" opacity="0.4" x="12" y="27.9771689" width="4" height="2.00913242"></rect>
                        <rect id="Rectangle" fill="#FFFFFF" fill-rule="nonzero" opacity="0.4" transform="translate(21.000000, 28.981735) rotate(-180.000000) translate(-21.000000, -28.981735) " x="19" y="27.9771689" width="4" height="2.00913242"></rect>
                        <rect id="Rectangle" fill="#FFFFFF" fill-rule="nonzero" opacity="0.4" x="12" y="30.9908676" width="4" height="2.00913242"></rect>
                        <rect id="Rectangle" fill="#FFFFFF" fill-rule="nonzero" opacity="0.4" transform="translate(21.000000, 31.995434) rotate(-180.000000) translate(-21.000000, -31.995434) " x="19" y="30.9908676" width="4" height="2.00913242"></rect>
                        <rect id="Rectangle" fill="#FFFFFF" fill-rule="nonzero" opacity="0.4" x="12" y="35.0091324" width="4" height="2.00913242"></rect>
                        <rect id="Rectangle" fill="#FFFFFF" fill-rule="nonzero" opacity="0.4" transform="translate(21.000000, 36.013699) rotate(-180.000000) translate(-21.000000, -36.013699) " x="19" y="35.0091324" width="4" height="2.00913242"></rect>
                        <rect id="Rectangle" fill="#FFFFFF" fill-rule="nonzero" opacity="0.4" x="12" y="39.0273973" width="4" height="2.00913242"></rect>
                        <rect id="Rectangle" fill="#FFFFFF" fill-rule="nonzero" opacity="0.4" transform="translate(21.000000, 40.031963) rotate(-180.000000) translate(-21.000000, -40.031963) " x="19" y="39.0273973" width="4" height="2.00913242"></rect>
                        <rect id="Rectangle" fill="#FFFFFF" fill-rule="nonzero" opacity="0.4" x="12" y="43.0456621" width="4" height="2.00913242"></rect>
                        <rect id="Rectangle" fill="#FFFFFF" fill-rule="nonzero" opacity="0.4" transform="translate(21.000000, 44.050228) rotate(-180.000000) translate(-21.000000, -44.050228) " x="19" y="43.0456621" width="4" height="2.00913242"></rect>
                        <rect id="Rectangle" fill="#FFFFFF" fill-rule="nonzero" opacity="0.4" x="12" y="47.0639269" width="4" height="2.00913242"></rect>
                        <rect id="Rectangle" fill="#FFFFFF" fill-rule="nonzero" opacity="0.4" transform="translate(21.000000, 48.068493) rotate(-180.000000) translate(-21.000000, -48.068493) " x="19" y="47.0639269" width="4" height="2.00913242"></rect>
                        <rect id="Rectangle" fill="#FFFFFF" fill-rule="nonzero" opacity="0.4" x="26" y="42.0410959" width="8" height="1.00456621"></rect>
                        <rect id="Rectangle" fill="#FFFFFF" fill-rule="nonzero" opacity="0.4" x="26" y="44.0502283" width="8" height="1.00456621"></rect>
                        <rect id="Rectangle" fill="#FFFFFF" fill-rule="nonzero" opacity="0.4" x="26" y="45.0547945" width="8" height="1.00456621"></rect>
                        <rect id="Rectangle" fill="#FFFFFF" fill-rule="nonzero" opacity="0.4" x="48" y="43.0456621" width="8" height="1.00456621"></rect>
                        <rect id="Rectangle" fill="#FFFFFF" fill-rule="nonzero" opacity="0.4" x="48" y="44.0502283" width="8" height="1.00456621"></rect>
                        <rect id="Rectangle" fill="#FFFFFF" fill-rule="nonzero" opacity="0.4" x="48" y="46.0593607" width="8" height="1.00456621"></rect>
                        <rect id="Rectangle" fill="#FFFFFF" fill-rule="nonzero" opacity="0.4" x="26" y="47.0639269" width="8" height="1.00456621"></rect>
                        <rect id="Rectangle" fill="#FFFFFF" fill-rule="nonzero" opacity="0.4" x="26" y="48.0684932" width="8" height="1.00456621"></rect>
                        <rect id="Rectangle" fill="#FFFFFF" fill-rule="nonzero" opacity="0.4" x="26" y="50.0776256" width="8" height="1.00456621"></rect>
                        <rect id="Rectangle" fill="#FFFFFF" fill-rule="nonzero" opacity="0.4" x="37" y="31.9954338" width="2" height="3.01369863"></rect>
                        <rect id="Rectangle" fill="#FFFFFF" fill-rule="nonzero" opacity="0.4" transform="translate(43.000000, 33.502283) rotate(-180.000000) translate(-43.000000, -33.502283) " x="42" y="31.9954338" width="2" height="3.01369863"></rect>
                        <rect id="Rectangle" fill="#FFFFFF" fill-rule="nonzero" opacity="0.4" x="37" y="36.0136986" width="2" height="3.01369863"></rect>
                        <rect id="Rectangle" fill="#FFFFFF" fill-rule="nonzero" opacity="0.4" transform="translate(43.000000, 37.520548) rotate(-180.000000) translate(-43.000000, -37.520548) " x="42" y="36.0136986" width="2" height="3.01369863"></rect>
                        <rect id="Rectangle" fill="#FFFFFF" fill-rule="nonzero" opacity="0.4" x="37" y="41.0365297" width="2" height="3.01369863"></rect>
                        <rect id="Rectangle" fill="#FFFFFF" fill-rule="nonzero" opacity="0.4" transform="translate(43.000000, 42.543379) rotate(-180.000000) translate(-43.000000, -42.543379) " x="42" y="41.0365297" width="2" height="3.01369863"></rect>
                        <rect id="Rectangle" fill="#FFFFFF" fill-rule="nonzero" opacity="0.4" x="37" y="46.0593607" width="2" height="3.01369863"></rect>
                        <rect id="Rectangle" fill="#FFFFFF" fill-rule="nonzero" opacity="0.4" transform="translate(43.000000, 47.566210) rotate(-180.000000) translate(-43.000000, -47.566210) " x="42" y="46.0593607" width="2" height="3.01369863"></rect>
                        <rect id="Rectangle" fill="#FFFFFF" fill-rule="nonzero" opacity="0.4" x="57" y="15.9223744" width="3" height="4.01826484"></rect>
                        <rect id="Rectangle" fill="#FFFFFF" fill-rule="nonzero" opacity="0.4" x="57" y="21.9497717" width="3" height="4.01826484"></rect>
                        <rect id="Rectangle" fill="#FFFFFF" fill-rule="nonzero" opacity="0.4" x="57" y="26.9726027" width="3" height="4.01826484"></rect>
                        <rect id="Rectangle" fill="#FFFFFF" fill-rule="nonzero" opacity="0.4" x="57" y="33" width="3" height="4.01826484"></rect>
                        <rect id="Rectangle" fill="#FFFFFF" fill-rule="nonzero" opacity="0.4" x="57" y="38.0228311" width="3" height="4.01826484"></rect>
                        <rect id="Rectangle" fill="#FFFFFF" fill-rule="nonzero" opacity="0.4" x="57" y="44.0502283" width="3" height="4.01826484"></rect>
                        <rect id="Rectangle" fill="#FFFFFF" fill-rule="nonzero" opacity="0.4" x="67" y="23.9589041" width="11" height="3.01369863"></rect>
                        <rect id="Rectangle" fill="#FFFFFF" fill-rule="nonzero" opacity="0.4" x="67" y="30.9908676" width="11" height="3.01369863"></rect>
                        <rect id="Rectangle" fill="#FFFFFF" fill-rule="nonzero" opacity="0.4" x="67" y="38.0228311" width="11" height="3.01369863"></rect>
                        <rect id="Rectangle" fill="#FFFFFF" fill-rule="nonzero" opacity="0.4" x="67" y="45.0547945" width="11" height="3.01369863"></rect>
                        <rect id="Rectangle" fill="#FFFFFF" fill-rule="nonzero" opacity="0.4" x="13" y="16.9269406" width="2" height="3.01369863"></rect>
                        <rect id="Rectangle" fill="#FFFFFF" fill-rule="nonzero" opacity="0.4" x="86" y="31.9954338" width="4" height="5.02283105"></rect>
                        <rect id="Rectangle" fill="#FFFFFF" fill-rule="nonzero" opacity="0.4" x="86" y="39.0273973" width="4" height="5.02283105"></rect>
                        <rect id="Rectangle" fill="#FFFFFF" fill-rule="nonzero" opacity="0.4" x="86" y="46.0593607" width="4" height="5.02283105"></rect>
                        <path d="M14.6888113,48.6549132 C14.6888113,48.6549132 8.4521843,52.7752057 19.9487126,59.1187215 C19.9487126,59.1187215 22.4836048,53.9696569 19.6809646,49.7712956 C18.5559284,48.0775051 16.4518961,47.5725911 14.7830776,48.5959279 L14.6888113,48.6549132 Z" id="Path" fill="#D2225C" fill-rule="nonzero"></path>
                        <path d="M15,49.0730594 C15,49.0730594 20.1405014,53.3306757 19.9970526,59.1187215" id="Path" stroke="#535461"></path>
                        <path d="M20.7047473,59.1187215 C20.7047473,59.1187215 18.9144625,52.1962644 21.0407432,47.1011178 C21.9333456,44.9630571 22.2294284,42.562181 21.8172347,40.2414719 C21.6201355,39.1396384 21.33471,38.0607164 20.9645454,37.0182648" id="Path" stroke="#535461" stroke-width="2"></path>
                        <path d="M22,33.6141749 C22,34.488175 20.5002025,37.0182648 20.5002025,37.0182648 C20.5002025,37.0182648 19.0004051,34.4847709 19.0004051,33.6141749 C18.9877861,33.0403683 19.2707769,32.5043597 19.7398811,32.2135449 C20.2089853,31.9227301 20.790613,31.9227301 21.2597172,32.2135449 C21.7288214,32.5043597 22.0118122,33.0403683 21.9991932,33.6141749 L22,33.6141749 Z" id="Path" fill="#D2225C" fill-rule="nonzero"></path>
                        <path d="M24.7951205,38.2093515 C24.377648,38.8779011 22,40.0319635 22,40.0319635 C22,40.0319635 22.0433932,37.3104547 22.4608657,36.6419051 C22.8867105,35.9962131 23.7315182,35.8202664 24.3648829,36.2453588 C24.9982475,36.6704512 25.1891429,37.5415257 24.7951205,38.2085759 L24.7951205,38.2093515 Z" id="Path" fill="#D2225C" fill-rule="nonzero"></path>
                        <path d="M25.0832801,46.8628986 C24.2344096,47.2339365 21,46.9777436 21,46.9777436 C21,46.9777436 22.6857069,44.568406 23.5345774,44.197368 C24.379479,43.8458005 25.3933048,44.1453287 25.8152901,44.8711897 C26.2372755,45.5970508 25.9122928,46.4824081 25.0842058,46.8628986 L25.0832801,46.8628986 Z" id="Path" fill="#D2225C" fill-rule="nonzero"></path>
                        <path d="M23.3983927,53.2578741 C22.7499944,53.8348379 20,54.0958904 20,54.0958904 C20,54.0958904 21.0122872,51.0086609 21.6606854,50.4307512 C22.0800663,50.0511385 22.6363988,49.9713513 23.1181629,50.2217252 C23.5999271,50.472099 23.9331154,51.0141721 23.9910483,51.6418459 C24.0489812,52.2695197 23.8227591,52.8863724 23.3983927,53.2578741 L23.3983927,53.2578741 Z" id="Path" fill="#D2225C" fill-rule="nonzero"></path>
                        <path d="M18.4996866,40.7909557 C19.1179325,41.4048639 22,42.0410959 22,42.0410959 C22,42.0410959 21.2943933,39.1158023 20.6761474,38.5010356 C20.2791582,38.0875517 19.6941484,37.9263988 19.1476462,38.0799786 C18.601144,38.2335584 18.1789595,38.6777565 18.0445714,39.2405697 C17.9101834,39.8033829 18.0846931,40.3964402 18.5005266,40.7900971 L18.4996866,40.7909557 Z" id="Path" fill="#D2225C" fill-rule="nonzero"></path>
                        <path d="M16.9167199,47.8674648 C17.7655904,48.2385028 21,47.9823099 21,47.9823099 C21,47.9823099 19.3142931,45.5729722 18.4654226,45.2019342 C17.620521,44.8503667 16.6066952,45.1498949 16.1847099,45.875756 C15.7627245,46.601617 16.0877072,47.4869743 16.9157942,47.8674648 L16.9167199,47.8674648 Z" id="Path" fill="#D2225C" fill-rule="nonzero"></path>
                        <path d="M16.5863198,55.2635295 C17.2376348,55.8428872 20,56.1050228 20,56.1050228 C20,56.1050228 18.9831591,53.0040346 18.3310546,52.4246769 C17.6792809,51.8542954 16.7671208,52.0229616 16.2878126,52.8024898 C15.8085044,53.582018 15.9414139,54.6806947 16.5855304,55.2635295 L16.5863198,55.2635295 Z" id="Path" fill="#D2225C" fill-rule="nonzero"></path>
                        <path d="M22,33.6141749 C22,34.488175 20.5002025,37.0182648 20.5002025,37.0182648 C20.5002025,37.0182648 19.0004051,34.4847709 19.0004051,33.6141749 C18.9877861,33.0403683 19.2707769,32.5043597 19.7398811,32.2135449 C20.2089853,31.9227301 20.790613,31.9227301 21.2597172,32.2135449 C21.7288214,32.5043597 22.0118122,33.0403683 21.9991932,33.6141749 L22,33.6141749 Z" id="Path" fill="#000000" fill-rule="nonzero" opacity="0.25"></path>
                        <path d="M24.7951205,38.2093515 C24.377648,38.8779011 22,40.0319635 22,40.0319635 C22,40.0319635 22.0433932,37.3104547 22.4608657,36.6419051 C22.8867105,35.9962131 23.7315182,35.8202664 24.3648829,36.2453588 C24.9982475,36.6704512 25.1891429,37.5415257 24.7951205,38.2085759 L24.7951205,38.2093515 Z" id="Path" fill="#000000" fill-rule="nonzero" opacity="0.25"></path>
                        <path d="M25.0832801,46.8628986 C24.2344096,47.2339365 21,46.9777436 21,46.9777436 C21,46.9777436 22.6857069,44.568406 23.5345774,44.197368 C24.379479,43.8458005 25.3933048,44.1453287 25.8152901,44.8711897 C26.2372755,45.5970508 25.9122928,46.4824081 25.0842058,46.8628986 L25.0832801,46.8628986 Z" id="Path" fill="#000000" fill-rule="nonzero" opacity="0.25"></path>
                        <path d="M23.3983927,53.2578741 C22.7499944,53.8348379 20,54.0958904 20,54.0958904 C20,54.0958904 21.0122872,51.0086609 21.6606854,50.4307512 C22.0800663,50.0511385 22.6363988,49.9713513 23.1181629,50.2217252 C23.5999271,50.472099 23.9331154,51.0141721 23.9910483,51.6418459 C24.0489812,52.2695197 23.8227591,52.8863724 23.3983927,53.2578741 L23.3983927,53.2578741 Z" id="Path" fill="#000000" fill-rule="nonzero" opacity="0.25"></path>
                        <path d="M18.4996866,40.7909557 C19.1179325,41.4048639 22,42.0410959 22,42.0410959 C22,42.0410959 21.2943933,39.1158023 20.6761474,38.5010356 C20.2791582,38.0875517 19.6941484,37.9263988 19.1476462,38.0799786 C18.601144,38.2335584 18.1789595,38.6777565 18.0445714,39.2405697 C17.9101834,39.8033829 18.0846931,40.3964402 18.5005266,40.7900971 L18.4996866,40.7909557 Z" id="Path" fill="#000000" fill-rule="nonzero" opacity="0.25"></path>
                        <path d="M16.9167199,47.8674648 C17.7655904,48.2385028 21,47.9823099 21,47.9823099 C21,47.9823099 19.3142931,45.5729722 18.4654226,45.2019342 C17.620521,44.8503667 16.6066952,45.1498949 16.1847099,45.875756 C15.7627245,46.601617 16.0877072,47.4869743 16.9157942,47.8674648 L16.9167199,47.8674648 Z" id="Path" fill="#000000" fill-rule="nonzero" opacity="0.25"></path>
                        <path d="M16.5863198,55.2635295 C17.2376348,55.8428872 20,56.1050228 20,56.1050228 C20,56.1050228 18.9831591,53.0040346 18.3310546,52.4246769 C17.6792809,51.8542954 16.7671208,52.0229616 16.2878126,52.8024898 C15.8085044,53.582018 15.9414139,54.6806947 16.5855304,55.2635295 L16.5863198,55.2635295 Z" id="Path" fill="#000000" fill-rule="nonzero" opacity="0.25"></path>
                        <path d="M84.7047473,57.109589 C84.7047473,57.109589 82.9144625,50.187132 85.0407432,45.0919854 C85.9333456,42.9539247 86.2294284,40.5530486 85.8172347,38.2323395 C85.6201355,37.130506 85.33471,36.051584 84.9645454,35.0091324" id="Path" stroke="#535461" stroke-width="2"></path>
                        <path d="M86,31.6050425 C86,32.4790426 84.5002025,35.0091324 84.5002025,35.0091324 C84.5002025,35.0091324 83.0004051,32.4756385 83.0004051,31.6050425 C82.9877861,31.0312359 83.2707769,30.4952273 83.7398811,30.2044125 C84.2089853,29.9135977 84.790613,29.9135977 85.2597172,30.2044125 C85.7288214,30.4952273 86.0118122,31.0312359 85.9991932,31.6050425 L86,31.6050425 Z" id="Path" fill="#D2225C" fill-rule="nonzero"></path>
                        <path d="M88.7603286,37.2318947 C88.3480525,37.8905003 86,39.0273973 86,39.0273973 C86,39.0273973 86.0428531,36.3463681 86.4551291,35.6877625 C86.7156821,35.24775 87.186486,34.9884543 87.6849714,35.0104257 C88.1834568,35.0323972 88.6312171,35.3321799 88.8546187,35.7935234 C89.0780203,36.2548669 89.0419245,36.8052068 88.7603286,37.2311307 L88.7603286,37.2318947 Z" id="Path" fill="#D2225C" fill-rule="nonzero"></path>
                        <path d="M89.0832801,44.8537661 C88.2344096,45.2248041 85,44.9686112 85,44.9686112 C85,44.9686112 86.6857069,42.5592736 87.5345774,42.1882356 C88.379479,41.8366681 89.3933048,42.1361963 89.8152901,42.8620573 C90.2372755,43.5879184 89.9122928,44.4732757 89.0842058,44.8537661 L89.0832801,44.8537661 Z" id="Path" fill="#D2225C" fill-rule="nonzero"></path>
                        <path d="M87.4143541,51.2452647 C86.7629105,51.8246224 84,52.086758 84,52.086758 C84,52.086758 85.0170416,48.9867195 85.6684852,48.4064121 C86.3203876,47.8360306 87.2327277,48.0046968 87.7121306,48.784225 C88.1915334,49.5637532 88.0585977,50.6624298 87.4143541,51.2452647 Z" id="Path" fill="#D2225C" fill-rule="nonzero"></path>
                        <path d="M82.4766158,38.7734138 C83.0989366,39.3914516 86,40.0319635 86,40.0319635 C86,40.0319635 85.2897426,37.0869918 84.6674218,36.4680896 C84.0447021,35.8496327 83.0494595,35.8643387 82.4444851,36.5009364 C81.8395108,37.1375341 81.8538962,38.1549568 82.4766158,38.7734138 Z" id="Path" fill="#D2225C" fill-rule="nonzero"></path>
                        <path d="M80.9095973,45.8580922 C81.7599485,46.2295734 85,45.9730745 85,45.9730745 C85,45.9730745 83.3113527,43.5608588 82.4610014,43.1893776 C81.6156127,42.8428344 80.6057409,43.1438861 80.1848368,43.8679224 C79.7639327,44.5919586 80.0854891,45.4749424 80.9095973,45.8580922 Z" id="Path" fill="#D2225C" fill-rule="nonzero"></path>
                        <path d="M80.5856459,53.2543971 C81.2370895,53.8337548 84,54.0958904 84,54.0958904 C84,54.0958904 82.9829584,50.9958519 82.3315148,50.4155445 C81.6796124,49.845163 80.7672723,50.0138292 80.2878694,50.7933574 C79.8084666,51.5728856 79.9414023,52.6715623 80.5856459,53.2543971 L80.5856459,53.2543971 Z" id="Path" fill="#D2225C" fill-rule="nonzero"></path>
                        <path d="M75.3529639,57.109589 C75.3529639,57.109589 74.4562627,53.3338129 75.5213489,50.5531636 C75.9739003,49.390825 76.110343,48.0776978 75.9101899,46.8109499 C75.8114699,46.2106262 75.6686362,45.622785 75.4834792,45.0547945" id="Path" stroke="#535461" stroke-width="2"></path>
                        <path d="M76,42.997522 C76,43.5254692 75,45.0547945 75,45.0547945 C75,45.0547945 74,43.5245128 74,42.997522 C74,42.4693024 74.4477153,42.0410959 75,42.0410959 C75.5522847,42.0410959 76,42.4693024 76,42.997522 Z" id="Path" fill="#D2225C" fill-rule="nonzero"></path>
                        <path d="M77.830257,46.1717421 C77.5568122,46.4988059 76,47.0639269 76,47.0639269 C76,47.0639269 76.028256,45.7316542 76.3017007,45.4045904 C76.4710885,45.1801146 76.7859153,45.0459156 77.1212383,45.0552518 C77.4565612,45.0645881 77.7581506,45.2159498 77.906317,45.4492671 C78.0544834,45.6825845 78.0252648,45.9601245 77.830257,46.1717421 Z" id="Path" fill="#D2225C" fill-rule="nonzero"></path>
                        <path d="M77.6448613,49.9429826 C77.3028467,50.1913253 76,50.020089 76,50.020089 C76,50.020089 76.679173,48.4058611 77.0204939,48.1575183 C77.359116,47.9366754 77.7581588,48.1401685 77.9255242,48.6190412 C78.0928896,49.097914 77.9691407,49.682103 77.6448613,49.9439839 L77.6448613,49.9429826 Z" id="Path" fill="#D2225C" fill-rule="nonzero"></path>
                        <path d="M76.7272223,53.6708876 C76.3972366,53.9637467 75,54.0958904 75,54.0958904 C75,54.0958904 75.514302,52.5298088 75.8442877,52.2369498 C76.174073,51.9726263 76.6184964,52.0658039 76.8542615,52.4487004 C77.0900267,52.8315969 77.034125,53.3694015 76.7272223,53.6708876 L76.7272223,53.6708876 Z" id="Path" fill="#D2225C" fill-rule="nonzero"></path>
                        <path d="M74.2621602,46.4424467 C74.5726273,46.7472339 76,47.0639269 76,47.0639269 C76,47.0639269 75.6499483,45.6106315 75.3425858,45.3058442 C75.1470292,45.0924113 74.8525348,45.006253 74.5761802,45.0816219 C74.2998256,45.1569909 74.086398,45.3816726 74.0207464,45.6663436 C73.9550948,45.9510147 74.047859,46.2495404 74.2621602,46.4432404 L74.2621602,46.4424467 Z" id="Path" fill="#D2225C" fill-rule="nonzero"></path>
                        <path d="M73.3551387,50.9475488 C73.6971533,51.1958915 75,51.0246552 75,51.0246552 C75,51.0246552 74.320827,49.4104273 73.9795061,49.1620846 C73.640884,48.9412417 73.2418412,49.1447347 73.0744758,49.6236074 C72.9071104,50.1024802 73.0308593,50.6866692 73.3551387,50.9485502 L73.3551387,50.9475488 Z" id="Path" fill="#D2225C" fill-rule="nonzero"></path>
                        <path d="M73.2774774,54.6765731 C73.6065652,54.9686609 75,55.1004566 75,55.1004566 C75,55.1004566 74.4841326,53.5376086 74.1580096,53.2455208 C73.8289064,52.9766353 73.3818024,53.0680186 73.1452138,53.4525253 C72.9086253,53.8370321 72.9670137,54.3773944 73.2774774,54.6765731 L73.2774774,54.6765731 Z" id="Path" fill="#D2225C" fill-rule="nonzero"></path>
                        <path d="M32.5991869,13.5785029 L32.0519897,13.5785029 C32.1929711,13.5841203 32.3260826,13.5215764 32.3984941,13.4156941 C32.4709056,13.3098117 32.4709056,13.1777159 32.3984941,13.0718336 C32.3260826,12.9659513 32.1929711,12.9034074 32.0519897,12.9090248 L27.6195329,12.9090248 C27.4148117,12.9171818 27.2536336,13.0646338 27.2536336,13.2437638 C27.2536336,13.4228938 27.4148117,13.5703459 27.6195329,13.5785029 L28.1667302,13.5785029 C28.0257487,13.5728856 27.8926372,13.6354295 27.8202257,13.7413118 C27.7478142,13.8471941 27.7478142,13.9792899 27.8202257,14.0851722 C27.8926372,14.1910546 28.0257487,14.2535984 28.1667302,14.2479811 L27.4008131,14.2479811 C27.2598317,14.2423637 27.1267202,14.3049076 27.0543086,14.41079 C26.9818971,14.5166723 26.9818971,14.6487681 27.0543086,14.7546504 C27.1267202,14.8605327 27.2598317,14.9230766 27.4008131,14.9174593 L31.8332698,14.9174593 C31.9742513,14.9230766 32.1073628,14.8605327 32.1797743,14.7546504 C32.2521858,14.6487681 32.2521858,14.5166723 32.1797743,14.41079 C32.1073628,14.3049076 31.9742513,14.2423637 31.8332698,14.2479811 L32.5991869,14.2479811 C32.7401683,14.2535984 32.8732798,14.1910546 32.9456914,14.0851722 C33.0181029,13.9792899 33.0181029,13.8471941 32.9456914,13.7413118 C32.8732798,13.6354295 32.7401683,13.5728856 32.5991869,13.5785029 L32.5991869,13.5785029 Z" id="Path" fill="#252223" fill-rule="nonzero" opacity="0.1"></path>
                        <path d="M52.5991869,23.624165 L52.0519897,23.624165 C52.1929711,23.6297824 52.3260826,23.5672385 52.3984941,23.4613562 C52.4709056,23.3554739 52.4709056,23.223378 52.3984941,23.1174957 C52.3260826,23.0116134 52.1929711,22.9490695 52.0519897,22.9546869 L47.6195329,22.9546869 C47.4148117,22.9628439 47.2536336,23.1102959 47.2536336,23.2894259 C47.2536336,23.4685559 47.4148117,23.616008 47.6195329,23.624165 L48.1667302,23.624165 C48.0257487,23.6185477 47.8926372,23.6810916 47.8202257,23.7869739 C47.7478142,23.8928562 47.7478142,24.024952 47.8202257,24.1308343 C47.8926372,24.2367167 48.0257487,24.2992605 48.1667302,24.2936432 L47.4008131,24.2936432 C47.2598317,24.2880258 47.1267202,24.3505697 47.0543086,24.4564521 C46.9818971,24.5623344 46.9818971,24.6944302 47.0543086,24.8003125 C47.1267202,24.9061948 47.2598317,24.9687387 47.4008131,24.9631214 L51.8332698,24.9631214 C51.9742513,24.9687387 52.1073628,24.9061948 52.1797743,24.8003125 C52.2521858,24.6944302 52.2521858,24.5623344 52.1797743,24.4564521 C52.1073628,24.3505697 51.9742513,24.2880258 51.8332698,24.2936432 L52.5991869,24.2936432 C52.7401683,24.2992605 52.8732798,24.2367167 52.9456914,24.1308343 C53.0181029,24.024952 53.0181029,23.8928562 52.9456914,23.7869739 C52.8732798,23.6810916 52.7401683,23.6185477 52.5991869,23.624165 L52.5991869,23.624165 Z" id="Path" fill="#252223" fill-rule="nonzero" opacity="0.1"></path>
                        <path d="M87.5991869,10.5648043 L87.0519897,10.5648043 C87.1929711,10.5704216 87.3260826,10.5078778 87.3984941,10.4019954 C87.4709056,10.2961131 87.4709056,10.1640173 87.3984941,10.058135 C87.3260826,9.95225267 87.1929711,9.88970879 87.0519897,9.89532613 L82.6195329,9.89532613 C82.4148117,9.90348316 82.2536336,10.0509352 82.2536336,10.2300652 C82.2536336,10.4091952 82.4148117,10.5566473 82.6195329,10.5648043 L83.1667302,10.5648043 C83.0257487,10.559187 82.8926372,10.6217308 82.8202257,10.7276132 C82.7478142,10.8334955 82.7478142,10.9655913 82.8202257,11.0714736 C82.8926372,11.1773559 83.0257487,11.2398998 83.1667302,11.2342825 L82.4008131,11.2342825 C82.2598317,11.2286651 82.1267202,11.291209 82.0543086,11.3970913 C81.9818971,11.5029736 81.9818971,11.6350695 82.0543086,11.7409518 C82.1267202,11.8468341 82.2598317,11.909378 82.4008131,11.9037606 L86.8332698,11.9037606 C87.0379911,11.8956036 87.1991692,11.7481515 87.1991692,11.5690215 C87.1991692,11.3898915 87.0379911,11.2424395 86.8332698,11.2342825 L87.5991869,11.2342825 C87.7401683,11.2398998 87.8732798,11.1773559 87.9456914,11.0714736 C88.0181029,10.9655913 88.0181029,10.8334955 87.9456914,10.7276132 C87.8732798,10.6217308 87.7401683,10.559187 87.5991869,10.5648043 L87.5991869,10.5648043 Z" id="Path" fill="#252223" fill-rule="nonzero" opacity="0.1"></path>
                        <path d="M55.4795502,57.0145196 L55.4977246,57.0145196 C55.4977246,57.0145196 52.5989019,48.895937 51.786835,47.7955546 C51.786835,47.7955546 50.936767,47.2836705 50.9755942,46.4173404 L49.9322162,41.2580877 C49.9322162,41.2580877 49.9479123,41.2420913 49.9743479,41.2126243 L49.9966529,41.1873669 L50.0222623,41.157058 C50.1613771,40.9886562 50.2777874,40.8020644 50.3684027,40.6022362 L50.3849249,40.5635082 C50.4237244,40.4730348 50.4562969,40.3799184 50.482406,40.2848344 C50.5550437,40.3113705 50.6350875,40.3071249 50.7046298,40.2730476 C50.7046298,40.2730476 50.7046298,40.2452644 50.7046298,40.1955915 L50.7046298,40.1955915 C50.7046298,40.1955915 50.6947165,39.8899765 50.6938904,39.411769 C50.6938904,39.2787465 50.6938904,39.1339372 50.6938904,38.9798668 C50.7261087,38.8611568 50.7533704,38.7365535 50.7765015,38.603531 L50.7343698,38.583325 L50.7343698,38.563961 L50.698847,38.5471227 C50.7277609,37.4147475 50.8219376,35.9674963 51.093728,34.9816143 C51.1030906,34.9468152 51.1130039,34.9122967 51.123468,34.8780588 C51.4448251,33.80125 51.4539123,32.4870213 51.5365234,31.3756941 C51.6006507,31.5153157 51.6558401,31.6590225 51.7017455,31.8059124 C51.7424377,31.7592287 51.7894474,31.7186903 51.8413583,31.6855186 L52.1651937,34.3266048 L52.1651937,37.4416888 C52.1651937,37.4416888 51.6240911,41.4593053 53.3217488,40.7108432 C55.0194065,39.9623811 53.785197,37.2051108 53.785197,37.2051108 C53.785197,37.2051108 53.785197,35.6694586 54.0173341,34.8814265 C54.1701646,34.3628071 54.0718574,32.6857132 53.9859419,31.5979595 C54.151164,31.6274265 54.2486451,31.6510001 54.2486451,31.6510001 C54.2862377,31.4931618 54.3031822,31.3309497 54.2990379,31.1685831 C54.3345606,29.3525733 52.1371059,26.42692 51.2424279,25.3105412 C50.9874657,24.9120117 50.6307456,24.5918365 50.2106156,24.3844352 L48.491479,23.5357852 C48.491479,23.5357852 47.6794121,23.3337257 47.3630117,22.6938706 C47.3630117,22.6829258 47.3572289,22.6719809 47.3547506,22.661036 C47.3905487,22.644759 47.4257961,22.6270787 47.4604927,22.6079954 C47.7230057,22.4792724 47.9530542,22.2909065 48.1329469,22.0573832 C48.498914,21.5833853 48.6740495,20.9898355 48.8409239,20.4114401 C49.0375382,19.7311731 49.2358048,19.0365936 49.2093693,18.3277015 C49.1829337,17.6188094 48.8904905,16.8821341 48.3006474,16.5057983 C47.7967198,16.1841869 47.0936996,16.1235691 46.7806036,15.6083173 C46.6979925,15.4694014 46.6451214,15.3043861 46.5327703,15.1924115 C46.5352879,15.1446149 46.5028654,15.1022339 46.4567681,15.0930656 L45.591004,14.9196312 C45.5664617,14.9146861 45.5409973,14.9198961 45.5202294,14.9341116 C45.4994615,14.948327 45.4850969,14.9703796 45.4803052,14.9954035 L45.4803052,15.0080322 C44.7060669,15.0299288 43.9462387,15.2266109 43.2555888,15.5839018 C43.0102396,15.7046882 42.7748596,15.8454646 42.5517424,16.0048591 C42.2336898,16.2338599 41.9205938,16.537791 41.8751577,16.9309652 C41.8528527,17.1271313 41.8991149,17.3283489 41.8602877,17.5203054 C41.7553716,18.0347152 41.0787869,18.3697972 41.1779202,18.8858909 C41.2448351,19.2361274 41.6339333,19.3868301 41.9982482,19.3910396 C41.7933408,20.1373826 41.9014934,20.9369163 42.296907,21.5989174 C42.6923206,22.2609185 43.3395409,22.7260295 44.0841779,22.8833014 C44.3491544,23.2634483 44.5813327,23.6662656 44.778111,24.0872393 C44.3328373,24.5182996 43.4001582,25.5184941 43.9718269,25.85526 L42.7822273,28.8507922 L42.8978828,31.938093 L42.3964336,32.3944107 L42.5063063,32.5341686 C41.944551,33.2009649 40.6442526,34.6583191 39.6933991,35.0464417 C39.5565168,35.1024389 39.4239647,35.1688571 39.2968659,35.2451336 C39.1232332,35.3574807 38.929977,35.4346613 38.7276756,35.4724505 C38.6393659,35.48229 38.5520353,35.4997523 38.4666245,35.5246492 L38.2394441,35.0447579 C38.2003951,34.9621957 38.1307307,34.8988498 38.0458087,34.8686848 C37.9608867,34.8385198 37.8676797,34.8440126 37.7867354,34.8839522 L37.6471226,34.9521473 L37.6471226,34.9521473 L37.3166783,35.1146368 L37.1787178,35.1828319 L37.1787178,35.1828319 L37.0746279,35.2341887 C36.9063867,35.3170586 36.8357817,35.5231308 36.9168407,35.694716 L37.1919356,36.2756371 C36.8011852,36.6267155 36.6095275,37.0459889 37.1423689,37.4366373 C37.3469919,37.589274 37.5951663,37.6691442 37.8486937,37.6639543 L38.0139158,38.0167165 C38.0529648,38.0992787 38.1226292,38.1626246 38.2075512,38.1927896 C38.2924732,38.2229546 38.3856802,38.2174618 38.4666245,38.1775222 L38.708675,38.0579703 L39.1779059,37.8272857 C39.2589183,37.7874897 39.3210752,37.7164926 39.3506739,37.629946 C39.3802727,37.5433994 39.374883,37.4484093 39.3356931,37.3659165 L39.1985587,37.0754559 C39.5055804,36.8323206 39.7868787,36.5572097 40.0378873,36.2545892 C40.0378873,36.2545892 40.7433859,35.8041649 41.1589196,35.7031351 C41.4340145,35.6366239 42.3980858,34.9908754 42.99619,34.5817049 L43.1663688,39.1280438 C43.1288399,39.1871793 43.0850706,39.2419494 43.0358433,39.2913752 L43.1688472,39.1953969 L43.1688472,39.2290735 C43.1510199,39.2509243 43.1319887,39.2717251 43.1118455,39.2913752 L43.1696733,39.2492795 L43.1696733,39.3040039 C43.1508649,39.3270913 43.1307274,39.3490197 43.1093672,39.3696732 L43.1704994,39.3258937 L43.1952827,39.8032593 L43.4860737,39.3115811 L43.5042482,39.8032593 L43.5719892,39.6887589 C42.7557918,41.1023335 41.6925872,43.1835464 41.124223,45.277388 C41.124223,45.277388 40.2353278,46.8526103 40.3509833,48.4674025 L38.7276756,56.4655912 L38.7590678,56.477378 C38.2303569,56.8663426 37.1159334,57.5794443 36.0229888,57.6080694 C36.0229888,57.6080694 33.3951304,57.5289294 34.1295429,58.1199534 C34.8639554,58.7109775 41.3951873,59.5773076 41.3951873,59.5773076 L41.6430205,57.5861796 L41.7008483,57.6080694 C41.7008483,57.6080694 41.7008483,57.5971245 41.7008483,57.5769185 L41.7834594,57.6080694 C41.7834594,57.6080694 41.6256722,56.6179778 42.2039498,56.0665237 C42.7822273,55.5150697 44.1362229,49.9205471 44.0213935,49.0559008 C44.0213935,49.0559008 45.0589887,46.4131308 46.3576348,44.3058186 L47.8842876,48.3065968 L49.5844236,51.2996032 C49.5844236,51.2996032 51.8463149,56.4251793 51.7736172,57.5668155 C51.2986035,58.1561558 50.4518399,59.0822618 49.8165607,59.0578463 C49.8165607,59.0578463 47.2275295,59.5697304 49.0053199,60.0428864 C50.7831103,60.5160424 56,58.7463379 56,58.7463379 L55.4795502,57.0145196 Z M44.1618323,38.6894062 L44.1775285,38.6801452 C44.0949174,38.8072743 44.0123063,38.947874 43.9181297,39.1011025 L44.1618323,38.6894062 Z" id="Shape" fill="url(#linearGradient-1)" fill-rule="nonzero"></path>
                        <path d="M43.1125,38.92958 C42.9669118,39.0555057 42.8875,39.1252145 42.8875,39.1252145 C42.9701133,39.0733876 43.0459143,39.0074796 43.1125,38.92958 Z" id="Path" fill="url(#linearGradient-2)" fill-rule="nonzero"></path>
                        <path d="M44.1125,38.92958 C43.9669118,39.0555057 43.8875,39.1252145 43.8875,39.1252145 C43.9701133,39.0733876 44.0459143,39.0074796 44.1125,38.92958 Z" id="Path" fill="url(#linearGradient-3)" fill-rule="nonzero"></path>
                        <path d="M44.1125,38.92958 C43.9669118,39.0555057 43.8875,39.1252145 43.8875,39.1252145 C43.9701133,39.0733876 44.0459143,39.0074796 44.1125,38.92958 Z" id="Path" fill="url(#linearGradient-4)" fill-rule="nonzero"></path>
                        <path d="M52.942469,56.4606692 C52.942469,56.4606692 51.481402,58.2207406 50.5070606,58.1859326 C50.5070606,58.1859326 47.787803,58.6346525 49.6546232,59.0485643 C51.5214434,59.4624762 57,57.9097392 57,57.9097392 L56.3486595,56.1050228 L52.942469,56.4606692 Z" id="Path" fill="#333333" fill-rule="nonzero"></path>
                        <path d="M47,43.0156526 L48.8501105,48.0383933 L50.450464,50.9562063 C50.450464,50.9562063 52.6449845,56.1126065 52.5002209,57.109589 L56,56.5152664 C56,56.5152664 53.2789218,48.6133815 52.5177198,47.5441051 C52.5177198,47.5441051 51.7223155,47.0456139 51.7557225,46.1991034 L50.7765798,41.1763628 C50.7765798,41.1763628 51.731065,40.204599 51.1965532,38.990735 C51.1695095,38.9285287 51.1382236,38.8657619 51.1026955,38.8024348 C50.3709236,37.4986238 47.6172338,38.224084 47.6172338,38.224084 L47,43.0156526 Z" id="Path" fill="#535461" fill-rule="nonzero"></path>
                        <path d="M47,43.0156526 L48.8501105,48.0383933 L50.450464,50.9562063 C50.450464,50.9562063 52.6449845,56.1126065 52.5002209,57.109589 L56,56.5152664 C56,56.5152664 53.2789218,48.6133815 52.5177198,47.5441051 C52.5177198,47.5441051 51.7223155,47.0456139 51.7557225,46.1991034 L50.7765798,41.1763628 C50.7765798,41.1763628 51.731065,40.204599 51.1965532,38.990735 C51.1695095,38.9285287 51.1382236,38.8657619 51.1026955,38.8024348 C50.3709236,37.4986238 47.6172338,38.224084 47.6172338,38.224084 L47,43.0156526 Z" id="Path" fill="#000000" fill-rule="nonzero" opacity="0.03"></path>
                        <g id="Group" opacity="0.1" transform="translate(49.000000, 37.018265)" fill="#000000" fill-rule="nonzero">
                            <path d="M3.41551724,9.55342466 C3.41551724,9.55342466 2.61091954,9.05700152 2.64471264,8.21400304 L1.65425287,3.21210046 C1.65425287,3.21210046 2.61977011,2.24436834 2.07908046,1.03554033 C2.05172414,0.973592085 2.02007663,0.911085743 1.98413793,0.848021309 C1.62850575,0.218493151 0.788505747,0.0644596651 0.0185057471,0.0736681887 C0.757126437,0.0803652968 1.53436782,0.248630137 1.87390805,0.848021309 C1.90984674,0.911085743 1.94149425,0.973592085 1.96885057,1.03554033 C2.50712644,2.24771689 1.54402299,3.21210046 1.54402299,3.21210046 L2.53448276,8.21651446 C2.49747126,9.05365297 3.30528736,9.55593607 3.30528736,9.55593607 C4.07609195,10.6249619 6.82781609,18.4898782 6.82781609,18.4898782 L3.39862069,19.0633181 C3.39862069,19.0691781 3.39862069,19.0758752 3.39862069,19.0817352 L6.93885057,18.4898782 C6.93885057,18.4898782 4.18632184,10.6224505 3.41551724,9.55342466 Z" id="Path"></path>
                        </g>
                        <path d="M39.2814005,55.1004566 C39.2814005,55.1004566 37.6724694,56.3048489 36.1058787,56.3428987 C36.1058787,56.3428987 33.3714015,56.2722348 34.1344089,56.8033788 C34.8974162,57.3345228 41.6974433,58.1141553 41.6974433,58.1141553 L42,56.0416065 L39.2814005,55.1004566 Z" id="Path" fill="#333333" fill-rule="nonzero"></path>
                        <g id="Group" opacity="0.1" transform="translate(39.000000, 37.018265)" fill="#000000" fill-rule="nonzero">
                            <path d="M5.95267606,0.567686777 C5.95267606,0.567686777 3.40901408,4.19438453 2.40338028,7.85955504 C2.40338028,7.85955504 1.51690141,9.41898378 1.63267606,11.0177402 L0.0169014085,18.9337219 L2.98478873,20.0648208 C2.98478873,20.0648208 2.83098592,19.0901778 3.40732394,18.5438648 C3.98366197,17.9975517 5.33408451,12.4608958 5.21915493,11.6033809 C5.21915493,11.6033809 7.06901408,6.92423977 8.91887324,5.09122705 C10.7687324,3.25821432 11.6898592,2.83586904 11.9611273,1.25335665 C11.9628169,1.25335665 7.60985915,-0.875468765 5.95267606,0.567686777 Z" id="Path"></path>
                        </g>
                        <path d="M44.9668834,37.4971388 C44.9668834,37.4971388 42.4113457,40.9584256 41.4010168,44.4564303 C41.4010168,44.4564303 40.5103992,45.9447347 40.6267144,47.470573 L39,55.0255126 L41.9817437,56.1050228 C41.9817437,56.1050228 41.8272228,55.1748326 42.4062516,54.6534365 C42.9852804,54.1320404 44.3420077,48.8479073 44.2265416,48.0295031 C44.2265416,48.0295031 46.0850373,43.5637741 47.9435329,41.8143638 C49.8020286,40.0649534 50.7274559,39.661871 51,38.1515358 C51.0076311,38.1515358 46.6343505,36.1198046 44.9668834,37.4971388 Z" id="Path" fill="#535461" fill-rule="nonzero"></path>
                        <g id="Group" opacity="0.1" transform="translate(42.000000, 37.018265)" fill="#000000" fill-rule="nonzero">
                            <path d="M4.62137615,0.0273583989 C6.48825688,0.050442048 8.8133945,1.21402895 8.8133945,1.21402895 C8.54752294,2.79654134 7.64834862,3.21888662 5.84091743,5.05189935 C4.03348624,6.88491208 2.22522936,11.5631983 2.22522936,11.5631983 C2.33834862,12.4181483 1.02055046,17.958224 0.454954128,18.5036821 C-0.0404587156,18.9790343 0.0140366972,19.7784125 0.0346788991,19.9784708 L0.153577982,20.0246381 C0.153577982,20.0246381 0.00330275229,19.0499951 0.566422018,18.5036821 C1.12954128,17.9573691 2.45146789,12.4181483 2.33834862,11.5631983 C2.33834862,11.5631983 4.14577982,6.88405713 5.95321101,5.0510444 C7.7606422,3.21803167 8.6606422,2.79568639 8.92568828,1.213174 C8.92651376,1.2183037 6.50559633,0.00341979986 4.62137615,0.0273583989 Z" id="Path"></path>
                        </g>
                        <path d="M43.2693163,31.9954338 C43.2693163,31.9954338 41.3318032,34.1462979 40.0244045,34.6136011 C39.8806267,34.6650254 39.7413946,34.7260238 39.6078881,34.7960794 C39.4254237,34.8992476 39.2223608,34.9700935 39.0098133,35.0047394 C38.8533945,35.0182997 38.7004398,35.0541958 38.5568073,35.1110529 C37.8768532,35.390324 36.3086868,36.1424521 37.3437478,36.8088947 C38.6422465,37.6411545 40.3884114,35.7235453 40.3884114,35.7235453 C40.3884114,35.7235453 41.1297749,35.3093989 41.5658711,35.2165729 C42.0019673,35.123747 44,33.8789275 44,33.8789275 L43.2693163,31.9954338 Z" id="Path" fill="#FDA57D" fill-rule="nonzero"></path>
                        <polygon id="Path" fill="#4D8AF0" fill-rule="nonzero" points="43.6781519 31.9954338 43 32.6527216 44 34.0045662"></polygon>
                        <g id="Group" opacity="0.1" transform="translate(43.000000, 31.995434)" fill="#000000" fill-rule="nonzero">
                            <polygon id="Path" points="1.32571429 0.00251141553 0.0885714286 0.652130898 1.91285714 1.98820396"></polygon>
                        </g>
                        <path d="M44.8004144,23.9589041 C44.8004144,23.9589041 43.3667127,25.4138213 43.9668508,25.8235535 L43,28.6581476 L43.3335635,39.0273973 L44.7002762,36.3416479 L43.7665746,30.522797 C43.7665746,30.522797 43.5,27.0535678 44.2665746,26.2332856 L45,24.5158454 L44.8004144,23.9589041 Z" id="Path" fill="#4D8AF0" fill-rule="nonzero"></path>
                        <g id="Group" opacity="0.1" transform="translate(43.000000, 23.958904)" fill="#000000" fill-rule="nonzero">
                            <path d="M2.689,0.0203628286 C2.689,0.0203628286 0.613,1.46938171 1.482,1.8774528 L0.082,4.70055535 L0.565,15.0277675 L2.544,12.3529063 L1.192,6.55764532 C1.192,6.55764532 0.806,3.10248056 1.916,2.28552388 L2.978,0.575046279 L2.689,0.0203628286 Z" id="Path"></path>
                        </g>
                        <path d="M44,21.948185 C44,21.948185 45.396484,23.7164266 45.3584281,24.738422 C45.3203723,25.7604174 48,22.9701804 48,22.9701804 C48,22.9701804 46.9815926,21.6732975 47.2455016,20.2988602 C47.5094105,18.9244229 44,21.948185 44,21.948185 Z" id="Path" fill="#FDA57D" fill-rule="nonzero"></path>
                        <path d="M52,30.5319613 L52.3162487,33.6430756 L52.3162487,36.7124128 C52.3162487,36.7124128 51.8730844,40.6786785 53.2649948,39.9403324 C54.6569051,39.2019863 53.6443545,36.4796547 53.6443545,36.4796547 C53.6443545,36.4796547 53.6443545,34.9628906 53.8343811,34.1853252 C54.0244077,33.4077597 53.7372872,29.9863014 53.7372872,29.9863014 L52,30.5319613 Z" id="Path" fill="#FDA57D" fill-rule="nonzero"></path>
                        <path d="M47,23.9589041 C47,23.9589041 45.9353235,24.9666075 45.3826604,24.617395 L44.625019,26.467117 C44.1619728,27.5978137 43.9519548,28.8131415 44.0092191,30.0306147 L44.279064,37.0182648 L45.4622301,36.8636257 L45.8566188,30.2362338 L46.4482018,26.2062697 L47,23.9589041 Z" id="Path" fill="#F2F2F2" fill-rule="nonzero"></path>
                        <g id="Group" opacity="0.1" transform="translate(43.000000, 22.954338)" fill="#000000" fill-rule="nonzero">
                            <path d="M4.43462264,0.0758079964 C4.43462264,0.0758079964 3.05915094,1.00633033 2.6745283,1.80439693 C2.6745283,1.80439693 2.6354717,2.67827152 2.32641509,3.05814456 C2.01735849,3.4380176 1.70660377,5.33821584 1.62933962,7.61745406 C1.55207547,9.89669228 1.20481132,12.9365096 1.20481132,12.9365096 C1.20481132,12.9365096 0.624056604,15.8996859 0.00424528302,16.203751 C0.00424528302,16.203751 2.86981132,14.0761287 4.26396226,14.7975543 C5.65811321,15.5189798 7.24584906,17.2675621 7.71028302,17.0009845 C7.71028302,17.0009845 7.59820755,13.6687649 8.10679245,11.895191 C8.11641509,11.8613134 8.12632075,11.8282689 8.13650943,11.7960575 C8.6790566,10.0466422 8.33009434,7.65494153 8.94990566,6.63111705 C8.94990566,6.63111705 8.94990566,4.77423767 8.59245283,3.38720125 C8.40539429,2.67032768 7.90505944,2.07117927 7.2254717,1.75024836 L5.50358491,0.93218844 C5.50358491,0.93218844 4.58915094,0.797233545 4.43462264,0.0758079964 Z" id="Path"></path>
                        </g>
                        <g id="Group" opacity="0.1" transform="translate(43.000000, 22.954338)" fill="#000000" fill-rule="nonzero">
                            <path d="M4.39317757,0.0754399965 C4.39317757,0.0754399965 3.10794393,1.07771424 2.72439252,1.87107771 C2.72439252,1.87107771 2.68570093,2.7407102 2.37953271,3.11873919 C2.07336449,3.49676819 1.76551402,5.38774216 1.68897196,7.65591612 C1.61242991,9.92409008 1.26841121,12.949151 1.26841121,12.949151 C1.26841121,12.949151 0.693084112,15.897943 0.0790654206,16.200532 C0.0790654206,16.200532 2.91785047,14.083238 4.29897196,14.8011615 C5.68009346,15.519085 7.25299065,17.259179 7.71308411,16.9938955 C7.71308411,16.9938955 7.60205607,13.6778517 8.10588785,11.9128874 C8.11542056,11.8791742 8.12523364,11.8462901 8.1353271,11.814235 C8.67280374,10.0733121 8.3271028,7.69322162 8.9411215,6.67436716 C8.9411215,6.67436716 8.9411215,4.82650175 8.58700935,3.44619852 C8.40169901,2.73280492 7.9060402,2.136565 7.23280374,1.817192 L5.52700935,1.00310325 C5.52700935,1.00310325 4.54626168,0.793363479 4.39317757,0.0754399965 Z" id="Path"></path>
                        </g>
                        <path d="M47.3624454,22.9543379 C47.3624454,22.9543379 46.0766091,23.9099319 45.6870135,24.7146426 C45.6870135,24.7146426 45.6477122,25.5939567 45.3367192,25.9761943 C45.0257262,26.3584319 44.7130245,28.2704581 44.6352762,30.5638836 C44.557528,32.8573092 44.2080881,35.9160481 44.2080881,35.9160481 C44.2080881,35.9160481 43.6236947,38.897669 43,39.2036267 C43,39.2036267 45.88352,37.0627609 47.2864059,37.788677 C48.6892918,38.5145932 50.2844124,40.2698684 50.7526106,40.0049845 C50.7526106,40.0049845 50.6398329,36.6520231 51.1516043,34.8674095 C51.1612873,34.833321 51.171255,34.8000708 51.1815075,34.7676589 C51.727454,33.0073542 51.3763053,30.6007662 52,29.5705688 C52,29.5705688 52,27.7021311 51.6403076,26.306461 C51.452077,25.5851252 50.9486074,24.9822473 50.2647617,24.6593187 L48.5320866,23.8361667 C48.5320866,23.8361667 47.6546421,23.6232537 47.3624454,22.9543379 Z" id="Path" fill="#4D8AF0" fill-rule="nonzero"></path>
                        <g id="Group" opacity="0.1" transform="translate(49.000000, 24.963470)" fill="#000000" fill-rule="nonzero">
                            <path d="M2.3041791,0.284667437 C2.3041791,0.284667437 6.44955224,4.74784618 5.87820896,6.87268526 C5.87820896,6.87268526 3.75402985,6.40925345 3.18268657,7.02688012 C3.18268657,7.02688012 2.73492537,5.59676514 1.38537313,4.78597128 C0.0358208955,3.97517742 -1.20895522,-1.22254497 2.3041791,0.284667437 Z" id="Path"></path>
                        </g>
                        <path d="M51.318544,25.2367149 C51.318544,25.2367149 55.5248865,29.7108203 54.94514,31.8408614 C54.94514,31.8408614 52.7897189,31.376295 52.2099724,31.9954338 C52.2099724,31.9954338 51.7556256,30.5618176 50.3862245,29.7490388 C49.0168233,28.9362599 47.7537392,23.7258125 51.318544,25.2367149 Z" id="Path" fill="#4D8AF0" fill-rule="nonzero"></path>
                        <g id="Group" opacity="0.1" transform="translate(44.000000, 19.940639)" fill="#000000" fill-rule="nonzero">
                            <path d="M2.8935,1.19417808 C2.8395,0.84760274 2.8845,0.817465753 2.9445,0.440753425 C3.18375,-1.06609589 0.003,2.24520548 0.003,2.24520548 C0.003,2.24520548 0.18,2.51549658 0.39975,2.91292808 C0.561869266,2.9549033 0.726970376,2.97602812 0.8925,2.97602812 C1.7625,2.97696918 2.46375,2.05496575 2.8935,1.19417808 Z" id="Path"></path>
                        </g>
                        <ellipse id="Oval" fill="#FDA57D" fill-rule="nonzero" cx="45.5" cy="20.4429224" rx="2.5" ry="2.51141553"></ellipse>
                        <g id="Group" opacity="0.1" transform="translate(42.000000, 14.917808)" fill="#000000" fill-rule="nonzero">
                            <path d="M1.00884211,4.51105424 C0.607157895,4.56757489 0.0951578947,4.42274073 0.0176842105,4.01031662 C-0.08,3.48043555 0.592,3.14042852 0.696421053,2.61407998 C0.735157895,2.41625771 0.688842105,2.21048723 0.711578947,2.01089869 C0.757052632,1.60730594 1.06778947,1.29732551 1.38526316,1.06241156 C2.38713506,0.325473835 3.60573967,-0.0149866847 4.82442105,0.10156054 C4.97663161,0.103587052 5.1248759,0.15274664 5.25052632,0.242862161 C5.38273684,0.356786592 5.43410526,0.54224497 5.52421053,0.695027347 C5.83578947,1.22490842 6.53473684,1.28407848 7.03494737,1.61260475 C7.62442105,1.99676853 7.91157895,2.75096593 7.93768421,3.47513674 C7.96378947,4.19930754 7.76926316,4.91023132 7.57136842,5.6061418 C7.40294737,6.19784234 7.23452632,6.80543931 6.86736842,7.28939736 C6.50021053,7.77335541 5.89978947,8.1124793 5.328,7.96676201 C5.58989474,7.76893974 5.39957895,7.30970947 5.11578947,7.14809574 C4.832,6.98648201 4.48,6.95910482 4.23747368,6.73655477 C3.99494737,6.51400472 3.92252632,6.15015304 3.84336842,5.81897737 C3.744,5.40125445 3.59915789,4.97734959 3.30863158,4.6709017 C2.73684211,4.07478549 1.70863158,4.41214311 1.00884211,4.51105424 Z" id="Path"></path>
                        </g>
                        <path d="M43.0094051,19.8564995 C42.6042791,19.9066718 42.0878921,19.7781053 42.0097546,19.4120042 C41.9112334,18.9416387 42.5889913,18.6398209 42.6943071,18.1725912 C42.7333759,17.9969881 42.6866632,17.8143296 42.7095949,17.6371586 C42.7554582,17.2788969 43.0688575,17.0037331 43.3890515,16.7952044 C44.3995078,16.1410387 45.6285538,15.8388183 46.8576773,15.9422751 C47.0111921,15.944074 47.1607066,15.987712 47.2874336,16.0677059 C47.420777,16.1688345 47.4725855,16.3334624 47.5634629,16.4690844 C47.8777115,16.9394498 48.5826477,16.991974 49.0871443,17.2836006 C49.6816688,17.6246155 49.9712871,18.2941023 49.9976161,18.9369351 C50.023945,19.5797678 49.8277519,20.2108415 49.6281616,20.8285881 C49.4582974,21.3538295 49.2884333,21.8931819 48.9181294,22.3227823 C48.5478256,22.7523827 47.9422599,23.0534166 47.3655711,22.9240661 C47.6297099,22.748463 47.4377634,22.340813 47.1515423,22.1973515 C46.8653212,22.0538901 46.5103052,22.0295878 46.2657008,21.8320344 C46.0210964,21.6344809 45.9489041,21.3114966 45.8639721,21.0175182 C45.7637522,20.6467134 45.6176691,20.2704211 45.3246534,19.9983931 C44.7530606,19.468448 43.7151906,19.768698 43.0094051,19.8564995 Z" id="Path" fill="#72351C" fill-rule="nonzero"></path>
                        <path d="M46.7684008,16.545728 L46.9982772,15.2136937 C47.00288,15.1878895 46.9981723,15.1610735 46.9852033,15.1392214 C46.9722342,15.1173692 46.9520815,15.1022968 46.9292358,15.0973627 L46.1172151,14.9197582 C46.0944173,14.9145484 46.0707255,14.9198769 46.0514193,14.9345562 C46.0321131,14.9492355 46.0187967,14.9720459 46.0144376,14.9979042 L45.7845611,16.3299384 L45,19.6227271 L46.4396697,19.9406393 L46.7684008,16.545728 Z" id="Path" fill="#CBDAE3" fill-rule="nonzero"></path>
                        <g id="Group" opacity="0.1" transform="translate(44.000000, 18.936073)" fill="#000000" fill-rule="nonzero">
                            <ellipse id="Oval" cx="1.49090909" cy="1.51872146" rx="1.45090909" ry="1.45753425"></ellipse>
                        </g>
                        <ellipse id="Oval" fill="#CBDAE3" fill-rule="nonzero" cx="45.5" cy="20.4429224" rx="1.5" ry="1.50684932"></ellipse>
                        <ellipse id="Oval" fill="#E9E9E9" fill-rule="nonzero" cx="45" cy="20.9452055" rx="1" ry="1.00456621"></ellipse>
                        <ellipse id="Oval" fill="#F48681" fill-rule="nonzero" cx="45.5" cy="20.4429224" rx="1" ry="1"></ellipse>
                        <polygon id="Rectangle" fill="#000000" fill-rule="nonzero" opacity="0.05" transform="translate(46.216870, 16.638573) rotate(11.050000) translate(-46.216870, -16.638573) " points="45.6838128 16.6194404 46.7499307 16.6193221 46.7499265 16.6577048 45.6838086 16.6578231"></polygon>
                        <path d="M38.6035592,34.6429809 C38.9611439,34.6430635 39.251003,34.9329225 39.2510856,35.2905073 L39.2515161,37.1550937 C39.2515987,37.5124651 38.9619588,37.8022387 38.6045875,37.8023213 C38.6044879,37.8023213 38.6043883,37.8023213 38.6042887,37.8023213 C38.2467039,37.8022387 37.9568448,37.5123796 37.9567623,37.1547949 L37.9563317,35.2902084 C37.9562492,34.9328371 38.245889,34.6430634 38.6032604,34.6429809 C38.60336,34.6429809 38.6034596,34.6429809 38.6035592,34.6429809 Z" id="Rectangle" fill="#CBDAE3" fill-rule="nonzero" transform="translate(38.603924, 36.222651) rotate(-25.740000) translate(-38.603924, -36.222651) "></path>
                        <g id="Group" opacity="0.1" transform="translate(37.000000, 35.009132)" fill="#000000" fill-rule="nonzero">
                            <path d="M1.30400221,0.0680297077 C1.72247637,0.112522664 2.05560591,0.438608409 2.1090306,0.856036302 L2.29730734,2.32711595 C2.33708612,2.63792307 2.11737423,2.9221291 1.80656711,2.96190788 C1.76276853,2.96751346 1.71846529,2.96798685 1.67455694,2.96331843 C1.25608278,2.91882547 0.922953234,2.59273973 0.869528552,2.17531183 L0.681251812,0.704232186 C0.641473033,0.393425061 0.861184918,0.109219033 1.17199204,0.069440254 C1.21579062,0.0638346752 1.26009386,0.0633612892 1.30400221,0.0680297077 Z" id="Rectangle" transform="translate(1.489280, 1.515674) rotate(-25.740000) translate(-1.489280, -1.515674) "></path>
                        </g>
                        <path d="M38.7236657,34.5850957 C39.0916252,34.5851807 39.3898942,34.8834496 39.3899792,35.2514091 L39.390401,37.0784302 C39.3904859,37.4461702 39.0924426,37.7443512 38.7247026,37.7444361 C38.7246002,37.7444361 38.7244977,37.7444361 38.7243952,37.7444361 C38.3564357,37.7443511 38.0581667,37.4460822 38.0580818,37.0781227 L38.0576599,35.2511016 C38.057575,34.8833616 38.3556183,34.5851806 38.7233583,34.5850957 C38.7234607,34.5850957 38.7235632,34.5850957 38.7236657,34.5850957 Z" id="Rectangle" fill="#CBDAE3" fill-rule="nonzero" transform="translate(38.724030, 36.164766) rotate(-25.740000) translate(-38.724030, -36.164766) "></path>
                        <polygon id="Rectangle" fill="#F2F2F2" fill-rule="nonzero" transform="translate(38.656821, 36.027564) rotate(-25.740000) translate(-38.656821, -36.027564) " points="38.1531677 34.8287177 39.1599202 34.8289501 39.1604738 37.2264104 38.1537213 37.2261781"></polygon>
                        <circle id="Oval" fill="#F2F2F2" fill-rule="nonzero" transform="translate(39.311108, 37.339291) rotate(-25.740000) translate(-39.311108, -37.339291) " cx="39.3111078" cy="37.3392908" r="1"></circle>
                    </g>
                </g>
            </g>
        </g>
    </g>
</svg>