<?xml version="1.0" encoding="UTF-8"?>
<svg width="84px" height="63px" viewBox="0 0 84 63" version="1.1" xmlns="http://www.w3.org/2000/svg" xmlns:xlink="http://www.w3.org/1999/xlink">
    <!-- Generator: sketchtool 58 (101010) - https://sketch.com -->
    <title>23A810EB-415B-4E7A-A842-1ABC684B66FE</title>
    <desc>Created with sketchtool.</desc>
    <g id="Mobile---UI" stroke="none" stroke-width="1" fill="none" fill-rule="evenodd">
        <g id="3.-Home" transform="translate(-29.000000, -987.000000)">
            <g id="Informations" transform="translate(23.000000, 714.000000)">
                <g id="Block" transform="translate(0.000000, 268.000000)">
                    <g id="Illustration-2">
                        <ellipse id="Oval" fill="#DEE3F3" fill-rule="nonzero" opacity="0.5" cx="48.5" cy="62.7244745" rx="20.5" ry="3.52102102"></ellipse>
                        <g id="Group" opacity="0.45" transform="translate(0.000000, -0.150901)">
                            <path d="M43.3352441,27.1354803 C43.3355231,27.1746545 43.3389155,27.2137729 43.3454001,27.2525898 C43.3389074,27.2137736 43.3355149,27.1746548 43.3352441,27.1354803 Z" id="Path" fill="#D2225C" fill-rule="nonzero"></path>
                            <path d="M53.7414165,24.6241889 C53.7433595,24.637098 53.7457755,24.6498421 53.7472745,24.662886 C53.7457755,24.649823 53.7433595,24.637106 53.7414165,24.6241889 Z" id="Path" fill="#D2225C" fill-rule="nonzero"></path>
                            <path d="M53.7193433,24.5202203 C53.7229983,24.5336455 53.7265013,24.547132 53.7296823,24.5607573 C53.7265013,24.5471169 53.7230133,24.5336686 53.7193433,24.5202203 Z" id="Path" fill="#D2225C" fill-rule="nonzero"></path>
                            <path d="M53.7327752,27.335767 C53.7278502,27.3579625 53.7221752,27.3798572 53.7159662,27.4015296 C53.7221912,27.3798501 53.7278502,27.3579776 53.7327752,27.335767 Z" id="Path" fill="#D2225C" fill-rule="nonzero"></path>
                            <path d="M53.7467224,27.2493765 C53.7438474,27.2729724 53.7404224,27.2963982 53.7360924,27.3195162 C53.7404214,27.2963982 53.7438474,27.2729874 53.7467224,27.2493765 Z" id="Path" fill="#D2225C" fill-rule="nonzero"></path>
                            <path d="M43.8077648,27.9354931 C43.7384613,27.8988403 43.6741975,27.8532033 43.6166048,27.7997406 C43.6741771,27.8532289 43.7384444,27.8988684 43.8077648,27.9354931 L43.8077648,27.9354931 Z" id="Path" fill="#D2225C" fill-rule="nonzero"></path>
                            <path d="M43.6283549,27.8122784 C43.5948293,27.7807318 43.5632771,27.7471342 43.5338789,27.7116778 C43.5632692,27.7471413 43.5948218,27.7807394 43.6283549,27.8122784 Z" id="Path" fill="#D2225C" fill-rule="nonzero"></path>
                            <path d="M58.979443,45.0211698 C58.9664461,44.9854578 58.9507228,44.9504427 58.932365,44.9163295 C58.9507176,44.9504445 58.9664408,44.9854592 58.979443,45.0211698 L58.979443,45.0211698 Z" id="Path" fill="#D2225C" fill-rule="nonzero"></path>
                            <path d="M58.5207468,44.4800007 C58.5560377,44.5029558 58.5900633,44.5288136 58.6225978,44.5574028 C58.590071,44.528799 58.5560447,44.5029405 58.5207468,44.4800007 Z" id="Path" fill="#D2225C" fill-rule="nonzero"></path>
                            <path d="M58.7207454,44.6216772 C58.7753108,44.6735529 58.8232305,44.7321204 58.8633869,44.7960139 C58.8232393,44.7321139 58.7753188,44.6735454 58.7207454,44.6216772 L58.7207454,44.6216772 Z" id="Path" fill="#D2225C" fill-rule="nonzero"></path>
                            <path d="M58.6256965,44.5442582 C58.6606352,44.5706636 58.6940295,44.5992787 58.7256965,44.6299467 C58.694041,44.5992647 58.6606458,44.5706489 58.6256965,44.5442582 Z" id="Path" fill="#D2225C" fill-rule="nonzero"></path>
                            <path d="M58.9345593,44.9156047 C58.9179587,44.8811398 58.8994457,44.8475579 58.8791003,44.8150041 C58.8994529,44.8475539 58.9179661,44.8811362 58.9345593,44.9156047 Z" id="Path" fill="#D2225C" fill-rule="nonzero"></path>
                            <path d="M59.0017652,45.1438509 C58.9957894,45.1099729 58.9879433,45.076396 58.9782572,45.0432503 C58.9879441,45.0763958 58.9957902,45.1099727 59.0017652,45.1438509 Z" id="Path" fill="#D2225C" fill-rule="nonzero"></path>
                            <path d="M85.920844,40.1891422 L80.7829725,40.1891422 C81.0237883,40.0207834 81.1674458,39.7438308 81.1673604,39.4480932 L81.1673604,37.0665917 C81.1673654,36.8272332 81.0731924,36.5976764 80.9055589,36.4284223 C80.7379254,36.2591682 80.5105634,36.1640815 80.2734909,36.1640807 L74.3597241,36.1640807 C74.7302818,36.0446611 74.9818444,35.6970459 74.9819179,35.3043183 L74.9819179,32.9228217 C74.9820081,32.6270819 74.8383477,32.3501266 74.5975259,32.1817727 L80.2734942,32.1817727 C80.5105669,32.1817699 80.7379285,32.0866819 80.9055617,31.9174272 C81.0731949,31.7481724 81.167368,31.5186155 81.1673637,31.2792568 L81.1673637,28.8977512 C81.1673686,28.6583926 81.0731956,28.4288357 80.9055622,28.2595815 C80.7379287,28.0903273 80.5105667,27.9952404 80.2734942,27.9952394 L73.9551818,27.9952394 C74.3257412,27.8758222 74.5773049,27.5282055 74.5773756,27.135477 L74.5773756,24.7539803 C74.5774648,24.4582408 74.4338046,24.181286 74.1929836,24.0129314 L80.2734917,24.0129314 C80.5105647,24.0129294 80.7379268,23.9178417 80.9055602,23.7485868 C81.0731936,23.5793319 81.1673664,23.3497745 81.1673613,23.1104155 L81.1673613,20.7289099 C81.1673651,20.489552 81.0731916,20.2599963 80.9055583,20.0907431 C80.7379249,19.9214899 80.5105635,19.8264038 80.2734917,19.8264029 L77.0903758,19.8264029 C77.4609334,19.7069834 77.712496,19.3593682 77.7125696,18.9666406 L77.7125696,16.5851399 C77.7125722,16.345777 77.6183949,16.116217 77.4507563,15.9469619 C77.2831177,15.7777068 77.0557502,15.682624 76.8186735,15.682624 L68.1895348,15.682624 C67.9524576,15.682624 67.7250894,15.7777053 67.5574505,15.9469606 C67.3898115,16.116216 67.2956344,16.3457766 67.2956378,16.5851399 C67.2956406,16.3457768 67.2014633,16.1162166 67.0338245,15.9469614 C66.8661857,15.7777062 66.6388179,15.682624 66.4017409,15.682624 L57.772603,15.682624 C57.4248729,15.682624 57.1088405,15.8866772 56.962603,16.2052046 C56.9740092,16.2630687 56.9797819,16.3219205 56.9798387,16.3809194 L56.9798387,18.7624202 C56.979738,18.8935038 56.9512002,19.0229742 56.8962315,19.1417295 C56.9364583,19.3473514 57.0464439,19.5323746 57.2072457,19.6649328 L59.4234065,19.6649328 C59.6298613,19.6646507 59.8299913,19.7368451 59.989525,19.8691532 L60.955694,19.8691532 C60.5851482,19.9885814 60.3335946,20.3361878 60.3335131,20.7289066 C60.333337,20.6715029 60.3277509,20.6142464 60.3168304,20.5579112 C60.3168578,20.5611238 60.3173026,20.5642271 60.3173026,20.5674462 L60.3173026,22.9489429 C60.3170181,23.0249014 60.3072223,23.1005188 60.2881483,23.1739961 C60.3024876,23.1893165 60.315333,23.2059949 60.3265068,23.2238006 C60.3311805,23.186188 60.3335205,23.1483172 60.3335131,23.1104098 C60.3340042,23.1627399 60.3390163,23.2149269 60.3484926,23.2663773 C60.3603412,23.2950849 60.3671163,23.3256665 60.3685106,23.356735 C60.4249476,23.5574095 60.5483943,23.7321985 60.7179148,23.8514588 L59.9491082,23.8514588 C59.9559974,23.846622 59.9621101,23.8407999 59.9688605,23.8357724 C59.8974643,23.8375743 59.8255684,23.8296969 59.7540826,23.8288665 C59.7285648,23.8285539 59.7033459,23.8232786 59.6798056,23.8133293 C59.5966305,23.8385606 59.5102546,23.8514057 59.4234065,23.8514588 L54.1279017,24.0129257 C53.887086,24.1812849 53.7435097,24.4582368 53.7435097,24.7539746 L53.7435097,27.1354713 C53.7435097,27.5281998 53.9951441,27.8758165 54.3657035,27.9952337 L59.4234065,28.0379872 C59.5123306,28.0379563 59.6007611,28.0513294 59.6857738,28.0776642 C59.7422143,28.0826346 59.7981199,28.0925504 59.852859,28.1072994 C59.857066,28.1063646 59.8613045,28.106002 59.8655155,28.1051259 C59.8163337,28.0778807 59.7647063,28.0554008 59.7113249,28.0379872 L60.9556908,28.0379872 C60.5851442,28.1574173 60.3335908,28.5050253 60.3335099,28.8977455 C60.3334376,28.8454172 60.3288769,28.7931935 60.3198791,28.7416597 C60.3139687,28.7502447 60.307402,28.7583495 60.3002389,28.7658999 C60.3115067,28.8234067 60.3172203,28.8818818 60.3172994,28.9405031 L60.3172994,31.3220046 C60.3172994,31.4324959 60.3335099,31.4059413 60.3335099,31.2792511 C60.3334279,31.5749912 60.4770908,31.8519442 60.7179116,32.0203001 L63.8733519,32.1224103 C63.9815956,32.1225893 64.0888989,32.1427042 64.1899921,32.181767 L64.9493701,32.181767 C64.8134651,32.2776931 64.7065401,32.4097599 64.6404595,32.5633134 C64.7233925,32.7027325 64.7672187,32.8622951 64.7672481,33.0249262 L64.7672481,35.4064253 C64.7672749,35.5307509 64.7417549,35.6537301 64.6923011,35.7675887 C64.8041153,35.9560246 64.9800118,36.0969522 65.1871719,36.1640774 L64.3580225,36.1640774 C64.213757,36.2587025 64.0453939,36.3090254 63.8733584,36.3089412 L60.7431035,36.3089412 C60.4878079,36.474697 60.3334992,36.7601347 60.3335163,37.0665884 C60.3335163,36.7485509 60.2161709,39.8828075 60.2161709,39.8828075 C60.2161709,40.1643039 65.086983,40.2912492 65.086983,40.2912492 C65.210754,40.2912376 65.3331667,40.3172922 65.4464002,40.3677485 C65.4972272,40.3567914 65.5492089,40.3522743 65.6011429,40.3543017 C65.5995285,40.3531493 65.5981135,40.3517427 65.5964871,40.3506042 L66.3652711,40.3506042 C66.1244495,40.5189596 65.9807895,40.7959159 65.9808799,41.0916565 C65.980633,41.048578 65.9773361,41.0055725 65.9710146,40.9629688 C65.9667721,40.9727385 65.9624126,40.9824129 65.9575857,40.9917148 C65.9728627,41.0579661 65.980677,41.125748 65.9808799,41.1937707 L65.9808799,43.4731613 C65.980878,43.712524 66.0750554,43.9420835 66.2426939,44.1113385 C66.4103324,44.2805935 66.6376995,44.3756791 66.8747761,44.3756771 L65.4990554,44.3756771 C65.3718714,44.4427879 65.2304891,44.477822 65.086983,44.4777874 L59.48437,44.4777874 C59.1883761,44.6328691 59.0025868,44.9415025 59.0025463,45.278193 L59.0025463,47.6596897 C59.0025458,47.8990519 59.0967238,48.1286106 59.2643619,48.2978653 C59.4320001,48.4671199 59.6593663,48.5622056 59.8964424,48.5622056 L68.5255795,48.5622056 C68.7626563,48.5622056 68.9900239,48.4671231 69.1576626,48.2978679 C69.3253012,48.1286127 69.4194784,47.8990526 69.4194756,47.6596897 C69.4194728,47.8990526 69.51365,48.1286127 69.6812887,48.2978679 C69.8489273,48.4671231 70.0762949,48.5622056 70.3133717,48.5622056 L78.9425128,48.5622056 C79.1795897,48.5622056 79.4069573,48.4671231 79.5745959,48.2978679 C79.7422346,48.1286127 79.8364118,47.8990526 79.836409,47.6596897 L79.836409,45.2781906 C79.8364124,45.0388274 79.7422354,44.809267 79.5745966,44.6400117 C79.4069578,44.4707564 79.1795899,44.3756712 78.9425128,44.3756747 L85.920844,44.3756747 C86.1579209,44.3756775 86.3852885,44.2805922 86.5529271,44.111337 C86.7205658,43.9420819 86.8147402,43.7125218 86.8147402,43.4731588 L86.8147402,41.0916565 C86.8147402,40.8522933 86.7205671,40.6227328 86.5529282,40.4534776 C86.3852893,40.2842225 86.1579211,40.1891379 85.920844,40.1891422 Z M64.5448351,24.0129314 C64.3040191,24.1812905 64.1603604,24.4582424 64.160443,24.7539803 C64.1605257,24.4582424 64.016867,24.1812905 63.776051,24.0129314 L64.5448351,24.0129314 Z M63.5382492,27.9952394 C63.9088086,27.8758222 64.1603723,27.5282055 64.160443,27.135477 C64.1605138,27.5282055 64.4120775,27.8758222 64.7826369,27.9952394 L63.5382492,27.9952394 Z M66.673444,19.8264029 C67.0440018,19.7069836 67.2955645,19.3593682 67.2956378,18.9666406 C67.2957115,19.3593684 67.5472745,19.7069837 67.9178325,19.8264029 L66.673444,19.8264029 Z M69.4194772,45.2781906 C69.4194806,45.0388271 69.3253035,44.8092664 69.1576643,44.6400111 C68.9900252,44.4707557 68.7626568,44.3756747 68.5255795,44.3756747 L70.3133717,44.3756747 C70.076295,44.3756747 69.8489274,44.470757 69.681289,44.6400122 C69.5136505,44.8092675 69.4194738,45.0388277 69.4194772,45.2781906 L69.4194772,45.2781906 Z M70.3660423,40.1891422 C70.6068607,40.0207852 70.75052,39.7438319 70.7504343,39.4480932 C70.7503573,39.7438353 70.8940248,40.0207879 71.134849,40.1891422 L70.3660423,40.1891422 Z M70.7504343,37.0665917 C70.7503583,36.6738734 70.4988084,36.3262646 70.1282639,36.2068342 L71.372629,36.2068342 C71.0020789,36.3262615 70.7505201,36.673869 70.7504343,37.0665917 L70.7504343,37.0665917 Z M70.3660423,32.0203058 C70.6068607,31.8519488 70.75052,31.5749955 70.7504343,31.2792568 C70.7503573,31.5749988 70.8940248,31.8519515 71.134849,32.0203058 L70.3660423,32.0203058 Z M70.7504343,28.8977512 C70.7503571,28.5050331 70.4988078,28.1574247 70.1282639,28.0379929 L71.372629,28.0379929 C71.0020794,28.1574214 70.7505211,28.5050286 70.7504343,28.8977512 L70.7504343,28.8977512 Z M70.3660423,23.8514645 C70.6068608,23.6831076 70.7505202,23.4061542 70.7504343,23.1104155 C70.7503571,23.4061576 70.8940246,23.6831103 71.134849,23.8514645 L70.3660423,23.8514645 Z M70.7504343,20.7289099 C70.7503566,20.3361931 70.498807,19.9885864 70.1282639,19.8691565 L71.372629,19.8691565 C71.0020803,19.9885833 70.7505219,20.3361887 70.7504343,20.7289099 L70.7504343,20.7289099 Z M76.7822021,40.3506091 C76.5413811,40.5189637 76.3977209,40.7959185 76.39781,41.0916581 C76.3978992,40.7959185 76.254239,40.5189637 76.013418,40.3506091 L76.7822021,40.3506091 Z M75.5039139,44.3756747 C75.7409905,44.3756747 75.9683576,44.280591 76.1359961,44.1113361 C76.3036345,43.9420811 76.397812,43.7125215 76.39781,43.4731588 C76.3978081,43.7125215 76.4919856,43.9420811 76.659624,44.1113361 C76.8272625,44.280591 77.0546296,44.3756747 77.2917062,44.3756747 L75.5039139,44.3756747 Z" id="Shape" fill="#D2225C" fill-rule="nonzero"></path>
                            <g transform="translate(0.021454, 0.021258)"></g>
                            <path d="M59.0131475,45.2781906 C59.0128183,45.2397514 59.0094926,45.201368 59.0031905,45.1632725 C59.0095003,45.2013674 59.012826,45.2397511 59.0131475,45.2781906 L59.0131475,45.2781906 Z" id="Path" fill="#D2225C" fill-rule="nonzero"></path>
                            <path d="M53.7536614,27.1354803 C53.7536614,27.1694429 53.7515964,27.2029245 53.7484004,27.2360809 C53.7516124,27.2029245 53.7536614,27.1694507 53.7536614,27.1354803 Z" id="Path" fill="#D2225C" fill-rule="nonzero"></path>
                            <path d="M43.3438153,27.2700609 C43.3505418,27.3062762 43.359993,27.3421204 43.3721153,27.3773909 C43.3599915,27.3421207 43.3505403,27.3062764 43.3438153,27.2700609 Z" id="Path" fill="#D2225C" fill-rule="nonzero"></path>
                            <path d="M33.3451553,32.5913659 C33.3276088,32.5780942 33.312427,32.5627018 33.3000912,32.5456769 C33.2848352,32.5223366 33.2746836,32.4968161 33.2701337,32.4703657 C33.2675308,32.5322342 33.2686187,32.5941758 33.2733932,32.6559497 C33.3054213,32.7422793 33.3219562,32.832258 33.3224349,32.9228217 C33.3228863,32.8348109 33.3384942,32.7473363 33.3687568,32.6632101 C33.359166,32.6427704 33.3517103,32.6216455 33.346477,32.6000827 C33.3457713,32.5971105 33.3457866,32.5943152 33.3451553,32.5913659 Z" id="Path" fill="#D2225C" fill-rule="nonzero"></path>
                            <path d="M45.5678798,15.682624 L36.9387404,15.682624 C36.701664,15.682624 36.4742974,15.7777088 36.3066592,15.9469636 C36.1390209,16.1162184 36.0448431,16.3457774 36.0448442,16.5851399 C36.0448455,16.3457774 35.9506678,16.1162182 35.7830295,15.9469633 C35.6153912,15.7777085 35.3880245,15.682624 35.1509481,15.682624 L26.5218126,15.682624 C26.2847363,15.682624 26.0573697,15.7777088 25.8897314,15.9469636 C25.7220932,16.1162184 25.6279154,16.3457774 25.6279165,16.5851399 L25.6279165,18.9666406 C25.6279901,19.3593682 25.8795527,19.7069834 26.2501103,19.8264029 L19.5596871,19.8264029 C19.3226121,19.8264012 19.0952465,19.9214856 18.9276083,20.0907386 C18.7599701,20.2599916 18.6657916,20.4895488 18.6657909,20.7289099 L18.6657909,23.1104147 C18.6657085,23.4061547 18.8093711,23.6831078 19.0501918,23.8514637 L12.9696845,23.8514637 C12.7326081,23.8514624 12.5052414,23.9465482 12.337603,24.115803 C12.1699647,24.2850578 12.0757883,24.514617 12.0757883,24.7539795 L12.0757883,27.1354762 C12.0757883,27.3748384 12.1699658,27.6043971 12.337604,27.7736518 C12.5052421,27.9429064 12.7326084,28.0379925 12.9696845,28.0379921 L19.2879718,28.0379921 C18.9174256,28.1574225 18.6658726,28.5050305 18.6657917,28.8977504 L18.6657917,31.279256 C18.6657095,31.574996 18.809372,31.851949 19.0501926,32.020305 L13.3742252,32.020305 C13.1371488,32.0203037 12.9097821,32.1153895 12.7421438,32.2846443 C12.5745054,32.4538992 12.4803278,32.6834584 12.4803291,32.9228208 L12.4803291,35.3043175 C12.4803284,35.5436799 12.5745063,35.7732388 12.7421444,35.9424936 C12.9097826,36.1117484 13.1371489,36.2068346 13.3742252,36.2068342 L19.2879726,36.2068342 C18.9174258,36.3262632 18.6658722,36.6738716 18.6657926,37.0665917 L18.6657926,39.4480932 C18.6657921,39.6874552 18.7599698,39.9170136 18.9276076,40.0862682 C19.0952454,40.2555228 19.3226112,40.3506091 19.5596871,40.3506091 L24.6975449,40.3506091 C24.4567287,40.5189679 24.3130699,40.79592 24.3131529,41.0916581 L24.3131529,43.4731588 C24.3131538,43.9716042 24.7133642,44.3756738 25.2070491,44.3756747 L18.2287178,44.3756747 C17.9916415,44.3756734 17.7642747,44.4707592 17.5966364,44.640014 C17.4289981,44.8092689 17.3348204,45.0388281 17.3348217,45.2781906 L17.3348217,47.6596872 C17.3348213,47.8990495 17.4289992,48.1286082 17.5966373,48.2978628 C17.7642755,48.4671175 17.9916417,48.5622031 18.2287178,48.5622031 L26.8578565,48.5622031 C27.0949326,48.5622031 27.3222989,48.4671175 27.489937,48.2978628 C27.6575751,48.1286082 27.7517531,47.8990495 27.7517526,47.6596872 C27.7517522,47.8990499 27.8459305,48.128609 28.0135691,48.2978637 C28.1812078,48.4671184 28.4085747,48.5622031 28.6456512,48.5622031 L37.2747874,48.5622031 C37.5118636,48.5622031 37.7392298,48.4671175 37.9068679,48.2978628 C38.0745061,48.1286082 38.168684,47.8990495 38.1686836,47.6596872 L38.1686836,45.2781906 C38.1686431,44.9415 37.9828537,44.6328667 37.6868599,44.4777849 L35.8262516,44.4777849 C35.6827455,44.4778197 35.541363,44.4427856 35.4141791,44.3756747 L33.8361893,44.3756747 C34.3298745,44.3756742 34.7300854,43.9716045 34.7300863,43.4731588 C34.7300863,43.8658636 34.9323562,41.1937683 34.9323562,41.1937683 C34.9323549,40.9544058 35.0265326,40.7248466 35.1941709,40.5555918 C35.3618093,40.3863369 35.589176,40.2912511 35.8262524,40.2912524 L39.1152479,40.1891422 C39.2090415,40.1228202 39.2894367,40.0390345 39.352119,39.9422815 C39.3055445,39.8318099 39.2814173,39.71302 39.2811683,39.592957 L39.2811683,37.2114603 C39.2809992,37.0348345 39.3324326,36.8620818 39.4290307,36.7148247 C39.358761,36.5483642 39.2406901,36.4069881 39.0900576,36.3089436 L34.410357,36.3089436 C34.2383215,36.3090276 34.0699585,36.2587048 33.9256929,36.1640799 L32.6919971,36.1640799 C33.0625539,36.0446598 33.3141156,35.6970452 33.3141893,35.3043183 L33.2825045,32.9402055 C33.2825045,32.833662 33.2768777,32.7394153 33.2726796,32.6559481 C33.2138138,32.4637785 33.0931548,32.2969173 32.9297973,32.181771 L33.6985813,32.181771 C33.6927883,32.1858409 33.6876691,32.1907551 33.6819745,32.1949571 C34.1177634,32.1697325 39.0960605,31.8749001 39.5007853,31.5460057 C39.490461,31.4835842 39.4884643,31.4200478 39.4948485,31.357091 C39.4876004,31.3117182 39.4837871,31.2658538 39.4834415,31.219896 L39.4834415,28.8383986 C39.4834415,28.8088408 39.4850688,28.7796686 39.4878237,28.7508362 C39.4328942,28.4164495 39.197237,28.1412217 38.8774679,28.0379921 L39.9652652,28.0379921 C40.092449,27.9708807 40.2338315,27.9358466 40.3773377,27.9358819 L42.8446937,27.9358819 C43.1407389,27.780847 43.3265648,27.4721911 43.3265771,27.1354762 L43.3265771,24.7539803 C43.3266598,24.4582424 43.1830011,24.1812905 42.9421851,24.0129314 L40.3773344,23.8514645 C39.9426966,23.8514645 39.6551656,23.6907286 39.8840505,23.8514645 L39.1152439,23.8514645 C39.3544267,23.6841276 39.497767,23.4095481 39.4993122,23.1157518 C39.4889281,23.0607653 39.4836141,23.0049254 39.4834383,22.9489486 L39.4834383,20.5674519 C39.4834383,20.565496 39.4837079,20.5636135 39.4837353,20.5616657 C39.422737,20.2360358 39.1900572,19.9702591 38.8774663,19.8691597 L39.8112126,19.8691597 C39.9707479,19.7368509 40.1708797,19.6646565 40.3773361,19.6649393 L46.1332308,19.6649393 C46.3412562,19.4939612 46.4617729,19.2374697 46.4617729,18.9666438 L46.4617729,16.5851399 C46.4617729,16.345778 46.3675965,16.1162194 46.1999589,15.9469647 C46.0323214,15.77771 45.8049556,15.682624 45.5678798,15.682624 Z M22.8771113,24.0129314 C22.6362953,24.1812905 22.4926367,24.4582424 22.4927193,24.7539803 C22.4928019,24.4582424 22.3491432,24.1812905 22.1083273,24.0129314 L22.8771113,24.0129314 Z M22.4927193,27.135477 C22.49279,27.5282055 22.7443537,27.8758222 23.1149131,27.9952394 L21.8705255,27.9952394 C22.2410845,27.8758219 22.4926478,27.5282053 22.4927185,27.135477 L22.4927193,27.135477 Z M23.281652,32.1817727 C23.040835,32.3501308 22.897176,32.6270834 22.89726,32.9228217 C22.897344,32.6270834 22.753685,32.3501308 22.512868,32.1817727 L23.281652,32.1817727 Z M22.2750662,36.1640807 C22.6456238,36.0446611 22.8971864,35.6970459 22.89726,35.3043183 C22.8973336,35.6970459 23.1488962,36.0446611 23.5194538,36.1640807 L22.2750662,36.1640807 Z M33.294043,24.0129314 C33.0532271,24.1812905 32.9095684,24.4582424 32.909651,24.7539803 C32.9097334,24.4582425 32.7660748,24.1812906 32.525259,24.0129314 L33.294043,24.0129314 Z M27.7517526,45.2781906 C27.7517537,45.0388282 27.657576,44.8092691 27.4899377,44.6400143 C27.3222994,44.4707595 27.0949328,44.3756747 26.8578565,44.3756747 L28.6456512,44.3756747 C28.4085745,44.3756747 28.1812072,44.4707586 28.0135684,44.6400134 C27.8459296,44.8092683 27.7517516,45.0388277 27.7517526,45.2781906 Z M28.698317,40.1891422 C28.9391389,40.0207869 29.0828032,39.7438339 29.0827227,39.4480932 C29.0826404,39.7438332 29.226303,40.0207862 29.4671236,40.1891422 L28.698317,40.1891422 Z M29.0827227,37.0665917 C29.0826413,36.6738706 28.8310859,36.3262623 28.4605378,36.2068342 L29.7049068,36.2068342 C29.3343583,36.3262617 29.0828029,36.6738705 29.0827227,37.0665917 L29.0827227,37.0665917 Z M28.698317,32.0203058 C28.9391389,31.8519504 29.0828032,31.5749975 29.0827227,31.2792568 C29.0826404,31.5749968 29.226303,31.8519498 29.4671236,32.0203058 L28.698317,32.0203058 Z M29.0827227,28.8977512 C29.0826401,28.5050303 28.8310853,28.1574224 28.4605378,28.0379929 L29.7049068,28.0379929 C29.334359,28.1574218 29.0828041,28.5050302 29.0827227,28.8977512 L29.0827227,28.8977512 Z M28.698317,23.8514645 C28.939139,23.6831092 29.0828033,23.4061562 29.0827227,23.1104155 C29.0826403,23.4061555 29.2263029,23.6831086 29.4671236,23.8514645 L28.698317,23.8514645 Z M29.0827227,20.7289099 C29.0826393,20.3361904 28.8310844,19.9885844 28.4605378,19.8691565 L29.7049068,19.8691565 C29.3343597,19.9885835 29.0828047,20.3361902 29.0827227,20.7289099 L29.0827227,20.7289099 Z M32.2874564,27.9952418 C32.6580161,27.875825 32.9095802,27.5282082 32.909651,27.1354794 C32.9097215,27.528208 33.1612853,27.8758249 33.5318448,27.9952418 L32.2874564,27.9952418 Z M35.4226504,19.8264054 C35.7932082,19.706986 36.0447709,19.3593707 36.0448442,18.966643 C36.0449178,19.3593706 36.2964804,19.7069858 36.667038,19.8264054 L35.4226504,19.8264054 Z" id="Shape" fill="#D2225C" fill-rule="nonzero"></path>
                            <path d="M43.6285577,24.0973265 C43.6338187,24.0925329 43.6389577,24.0876407 43.6442807,24.0829477 C43.6389427,24.0876377 43.6338187,24.0925228 43.6285577,24.0973265 Z" id="Path" fill="#D2225C" fill-rule="nonzero"></path>
                            <path d="M43.5722354,24.1540398 C43.5667904,24.1600487 43.5612844,24.1659489 43.5559614,24.1720655 C43.5612844,24.1659449 43.5668054,24.1600407 43.5722354,24.1540398 Z" id="Path" fill="#D2225C" fill-rule="nonzero"></path>
                            <path d="M43.4949287,24.2507459 C43.4974527,24.2470921 43.5002827,24.2437149 43.5028367,24.2400983 C43.5002667,24.2437149 43.4974527,24.2470991 43.4949287,24.2507459 Z" id="Path" fill="#D2225C" fill-rule="nonzero"></path>
                            <path d="M43.3702265,27.3957543 C43.3830589,27.4308823 43.3985253,27.465335 43.4165385,27.4989183 C43.3985253,27.465335 43.3830589,27.4308823 43.3702265,27.3957543 Z" id="Path" fill="#D2225C" fill-rule="nonzero"></path>
                            <path d="M43.4621082,27.6100721 C43.4869561,27.6450986 43.514297,27.6786996 43.5439662,27.7106727 C43.5142936,27.6787018 43.4869526,27.6451007 43.4621082,27.6100721 L43.4621082,27.6100721 Z" id="Path" fill="#D2225C" fill-rule="nonzero"></path>
                            <path d="M43.4102485,27.5084354 C43.4294581,27.5431099 43.4513533,27.576754 43.4758015,27.6091642 C43.4513488,27.5767561 43.4294535,27.5431117 43.4102485,27.5084354 Z" id="Path" fill="#D2225C" fill-rule="nonzero"></path>
                            <path d="M43.359695,24.5607573 C43.362877,24.547132 43.366379,24.5336455 43.370035,24.5202203 C43.366364,24.5336686 43.362877,24.5471169 43.359695,24.5607573 Z" id="Path" fill="#D2225C" fill-rule="nonzero"></path>
                            <path d="M43.3897242,24.4583499 C43.3937322,24.4472637 43.3974642,24.4360468 43.4018072,24.4251225 C43.3974642,24.4360568 43.3937622,24.4472506 43.3897242,24.4583499 Z" id="Path" fill="#D2225C" fill-rule="nonzero"></path>
                            <path d="M43.3421029,24.662886 C43.3436029,24.6498381 43.3460179,24.637098 43.3479609,24.6241889 C43.3460179,24.637106 43.3436019,24.649823 43.3421029,24.662886 Z" id="Path" fill="#D2225C" fill-rule="nonzero"></path>
                            <path d="M43.4399421,24.342086 C43.4406151,24.3408013 43.4411351,24.3394321 43.4418241,24.3381465 C43.4411351,24.3394321 43.4406151,24.3408013 43.4399421,24.342086 Z" id="Path" fill="#D2225C" fill-rule="nonzero"></path>
                            <rect id="Rectangle" fill="#000000" fill-rule="nonzero" opacity="0.1" transform="translate(30.937513, 17.775891) rotate(-180.000000) translate(-30.937513, -17.775891) " x="25.7290474" y="15.6826264" width="10.4169309" height="4.18653005" rx="2.09326503"></rect>
                            <rect id="Rectangle" fill="#000000" fill-rule="nonzero" opacity="0.1" transform="translate(62.087172, 17.775891) rotate(-180.000000) translate(-62.087172, -17.775891) " x="56.8787061" y="15.6826264" width="10.4169309" height="4.18653005" rx="2.09326503"></rect>
                            <rect id="Rectangle" fill="#000000" fill-rule="nonzero" opacity="0.1" transform="translate(75.942701, 21.860312) rotate(-180.000000) translate(-75.942701, -21.860312) " x="70.734236" y="19.7670471" width="10.4169309" height="4.18653005" rx="2.09326503"></rect>
                            <rect id="Rectangle" fill="#000000" fill-rule="nonzero" opacity="0.1" transform="translate(58.951978, 25.944731) rotate(-180.000000) translate(-58.951978, -25.944731) " x="53.7435129" y="23.8514661" width="10.4169309" height="4.18653005" rx="2.09326503"></rect>
                            <rect id="Rectangle" fill="#000000" fill-rule="nonzero" opacity="0.1" transform="translate(75.942701, 30.131262) rotate(-180.000000) translate(-75.942701, -30.131262) " x="70.734236" y="28.037997" width="10.4169309" height="4.18653005" rx="2.09326503"></rect>
                            <rect id="Rectangle" fill="#000000" fill-rule="nonzero" opacity="0.1" transform="translate(75.942701, 38.300101) rotate(-180.000000) translate(-75.942701, -38.300101) " x="70.734236" y="36.2068358" width="10.4169309" height="4.18653005" rx="2.09326503"></rect>
                            <path d="M75.7469833,40.2912524 L66.631705,40.2912524 C66.3426324,40.2913646 66.0882848,40.4839966 66.0072818,40.7641638 C66.0096929,40.8012605 66.0072145,40.8385162 65.9999115,40.8749541 C65.995215,40.8963329 65.9890304,40.9173504 65.9814038,40.9378502 C65.9813497,40.9413855 65.9808783,40.9448067 65.9808783,40.948355 L65.9808783,43.8206823 C65.9808783,44.1835892 66.2722626,44.4777833 66.6317034,44.4777833 L75.7469833,44.4777833 C76.1064241,44.4777833 76.3978084,44.1835892 76.3978084,43.8206823 L76.3978084,40.948355 C76.3978084,40.7740807 76.3292402,40.6069441 76.2071867,40.4837134 C76.0851333,40.3604827 75.9195931,40.2912524 75.7469833,40.2912524 L75.7469833,40.2912524 Z" id="Path" fill="#000000" fill-rule="nonzero" opacity="0.1"></path>
                            <rect id="Rectangle" fill="#000000" fill-rule="nonzero" opacity="0.1" transform="translate(64.211012, 46.468940) rotate(-180.000000) translate(-64.211012, -46.468940) " x="59.0025463" y="44.3756747" width="10.4169309" height="4.18653005" rx="2.09326503"></rect>
                            <rect id="Rectangle" fill="#000000" fill-rule="nonzero" opacity="0.1" transform="translate(34.274977, 21.860312) rotate(-180.000000) translate(-34.274977, -21.860312) " x="29.0665114" y="19.7670471" width="10.4169309" height="4.18653005" rx="2.09326503"></rect>
                            <rect id="Rectangle" fill="#000000" fill-rule="nonzero" opacity="0.1" transform="translate(27.802320, 25.944731) rotate(-180.000000) translate(-27.802320, -25.944731) " x="22.5938543" y="23.8514661" width="10.4169309" height="4.18653005" rx="2.09326503"></rect>
                            <rect id="Rectangle" fill="#000000" fill-rule="nonzero" opacity="0.1" transform="translate(23.858045, 30.131262) rotate(-180.000000) translate(-23.858045, -30.131262) " x="18.6495796" y="28.037997" width="10.4169309" height="4.18653005" rx="2.09326503"></rect>
                            <rect id="Rectangle" fill="#000000" fill-rule="nonzero" opacity="0.1" transform="translate(28.105725, 34.215681) rotate(-180.000000) translate(-28.105725, -34.215681) " x="22.89726" y="32.122416" width="10.4169309" height="4.18653005" rx="2.09326503"></rect>
                            <rect id="Rectangle" fill="#000000" fill-rule="nonzero" opacity="0.1" transform="translate(23.858045, 38.300101) rotate(-180.000000) translate(-23.858045, -38.300101) " x="18.6495796" y="36.2068358" width="10.4169309" height="4.18653005" rx="2.09326503"></rect>
                            <rect id="Rectangle" fill="#D2225C" fill-rule="nonzero" transform="translate(19.145442, 42.389048) rotate(-180.000000) translate(-19.145442, -42.389048) " x="13.9369762" y="40.2957828" width="10.4169309" height="4.18653005" rx="2.09326503"></rect>
                            <rect id="Rectangle" fill="#D2225C" fill-rule="nonzero" transform="translate(79.967485, 34.211154) rotate(-180.000000) translate(-79.967485, -34.211154) " x="74.7590198" y="32.1178889" width="10.4169309" height="4.18653005" rx="2.09326503"></rect>
                            <rect id="Rectangle" fill="#D2225C" fill-rule="nonzero" transform="translate(79.525680, 25.958916) rotate(-180.000000) translate(-79.525680, -25.958916) " x="74.3172143" y="23.8656513" width="10.4169309" height="4.18653005" rx="2.09326503"></rect>
                            <rect id="Rectangle" fill="#D2225C" fill-rule="nonzero" transform="translate(84.753725, 46.403649) rotate(-180.000000) translate(-84.753725, -46.403649) " x="79.5452594" y="44.3103843" width="10.4169309" height="4.18653005" rx="2.09326503"></rect>
                            <rect id="Rectangle" fill="#D2225C" fill-rule="nonzero" transform="translate(12.150170, 46.477994) rotate(-180.000000) translate(-12.150170, -46.477994) " x="6.94170484" y="44.3847289" width="10.4169309" height="4.18653005" rx="2.09326503"></rect>
                            <rect id="Rectangle" fill="#D2225C" fill-rule="nonzero" transform="translate(13.549224, 38.225756) rotate(-180.000000) translate(-13.549224, -38.225756) " x="8.34075848" y="36.1324913" width="10.4169309" height="4.18653005" rx="2.09326503"></rect>
                            <rect id="Rectangle" fill="#D2225C" fill-rule="nonzero" transform="translate(13.549224, 30.122208) rotate(-180.000000) translate(-13.549224, -30.122208) " x="8.34075848" y="28.0289428" width="10.4169309" height="4.18653005" rx="2.09326503"></rect>
                            <rect id="Rectangle" fill="#D2225C" fill-rule="nonzero" transform="translate(13.917396, 21.869969) rotate(-180.000000) translate(-13.917396, -21.869969) " x="8.70893031" y="19.7767043" width="10.4169309" height="4.18653005" rx="2.09326503"></rect>
                            <rect id="Rectangle" fill="#000000" fill-rule="nonzero" opacity="0.1" transform="translate(13.917396, 21.869969) rotate(-180.000000) translate(-13.917396, -21.869969) " x="8.70893031" y="19.7767043" width="10.4169309" height="4.18653005" rx="2.09326503"></rect>
                            <rect id="Rectangle" fill="#D2225C" fill-rule="nonzero" transform="translate(20.544496, 17.781023) rotate(-180.000000) translate(-20.544496, -17.781023) " x="15.3360307" y="15.6877582" width="10.4169309" height="4.18653005" rx="2.09326503"></rect>
                            <rect id="Rectangle" fill="#000000" fill-rule="nonzero" opacity="0.1" transform="translate(29.622754, 42.384521) rotate(-180.000000) translate(-29.622754, -42.384521) " x="24.4142887" y="40.2912557" width="10.4169309" height="4.18653005" rx="2.09326503"></rect>
                            <rect id="Rectangle" fill="#000000" fill-rule="nonzero" opacity="0.1" transform="translate(22.543286, 46.468940) rotate(-180.000000) translate(-22.543286, -46.468940) " x="17.3348209" y="44.3756747" width="10.4169309" height="4.18653005" rx="2.09326503"></rect>
                        </g>
                        <ellipse id="Oval" fill="#D2225C" fill-rule="nonzero" opacity="0.5" cx="72.5" cy="8.40015015" rx="2.5" ry="2.51501502"></ellipse>
                        <path d="M27.6153428,12.5918428 L27.0647094,12.5918428 C27.2026792,12.5921887 27.3303389,12.5283499 27.3994388,12.4244548 C27.4685387,12.3205597 27.4685387,12.1924557 27.3994388,12.0885605 C27.3303389,11.9846654 27.2026792,11.9208267 27.0647094,11.9211712 L22.604584,11.9211712 C22.4666142,11.9208267 22.3389545,11.9846654 22.2698546,12.0885605 C22.2007547,12.1924557 22.2007547,12.3205597 22.2698546,12.4244548 C22.3389545,12.5283499 22.4666142,12.5921887 22.604584,12.5918428 L23.1552165,12.5918428 C23.0173243,12.5915983 22.8897862,12.6554593 22.8207589,12.7593128 C22.7517315,12.8631662 22.7517315,12.9911895 22.8207589,13.095043 C22.8897862,13.1988964 23.0173243,13.2627574 23.1552165,13.262513 L22.3843327,13.262513 C22.1718927,13.2630456 22,13.4130241 22,13.5978481 C22,13.782672 22.1718927,13.9326506 22.3843327,13.9331832 L26.844459,13.9331832 C27.056899,13.9326506 27.2287917,13.782672 27.2287917,13.5978481 C27.2287917,13.4130241 27.056899,13.2630456 26.844459,13.262513 L27.6153428,13.262513 C27.8279098,13.2621361 28,13.1121119 28,12.9271779 C28,12.7422438 27.8279098,12.5922196 27.6153428,12.5918428 L27.6153428,12.5918428 Z" id="Path" fill="#DEE3F3" fill-rule="nonzero" opacity="0.5"></path>
                        <path d="M72.6788983,7.56181181 L72.2201833,7.56181181 C72.3975223,7.56181181 72.5412841,7.41167707 72.5412841,7.22647648 C72.5412841,7.04127588 72.3975223,6.89114114 72.2201833,6.89114114 L68.5045865,6.89114114 C68.3272474,6.89114114 68.1834857,7.04127588 68.1834857,7.22647648 C68.1834857,7.41167707 68.3272474,7.56181181 68.5045865,7.56181181 L68.9633024,7.56181181 C68.7859634,7.56181181 68.6422016,7.71194656 68.6422016,7.89714715 C68.6422016,8.08234774 68.7859634,8.23248248 68.9633024,8.23248248 L68.3211008,8.23248248 C68.2063826,8.23248248 68.1003785,8.29639703 68.0430194,8.40015014 C67.9856602,8.50390326 67.9856602,8.63173237 68.0430194,8.73548549 C68.1003785,8.83923861 68.2063826,8.90315315 68.3211008,8.90315315 L72.0366976,8.90315315 C72.2140367,8.90315315 72.3577984,8.75301841 72.3577984,8.56781782 C72.3577984,8.38261723 72.2140367,8.23248248 72.0366976,8.23248248 L72.6788992,8.23248248 C72.8562383,8.23248248 73,8.08234774 73,7.89714715 C73,7.71194656 72.8562383,7.56181181 72.6788992,7.56181181 L72.6788983,7.56181181 Z" id="Path" fill="#DEE3F3" fill-rule="nonzero" opacity="0.5"></path>
                        <path d="M37.6153428,7.56181274 L37.0647094,7.56181274 C37.2026792,7.56215866 37.3303389,7.49831991 37.3994388,7.39442478 C37.4685387,7.29052965 37.4685387,7.16242563 37.3994388,7.0585305 C37.3303389,6.95463538 37.2026792,6.89079663 37.0647094,6.89114114 L32.604584,6.89114114 C32.4666142,6.89079663 32.3389545,6.95463538 32.2698546,7.0585305 C32.2007547,7.16242563 32.2007547,7.29052965 32.2698546,7.39442478 C32.3389545,7.49831991 32.4666142,7.56215866 32.604584,7.56181274 L33.1552165,7.56181274 C33.0173243,7.56156828 32.8897862,7.62542928 32.8207589,7.72928273 C32.7517315,7.83313618 32.7517315,7.96115952 32.8207589,8.06501297 C32.8897862,8.16886642 33.0173243,8.23272741 33.1552165,8.23248295 L32.3843327,8.23248295 C32.1718927,8.23301557 32,8.3829941 32,8.56781805 C32,8.752642 32.1718927,8.90262053 32.3843327,8.90315315 L36.844459,8.90315315 C37.056899,8.90262053 37.2287917,8.752642 37.2287917,8.56781805 C37.2287917,8.3829941 37.056899,8.23301557 36.844459,8.23248295 L37.6153428,8.23248295 C37.8279098,8.2321061 38,8.08208189 38,7.89714785 C38,7.7122138 37.8279098,7.56218959 37.6153428,7.56181274 L37.6153428,7.56181274 Z" id="Path" fill="#DEE3F3" fill-rule="nonzero" opacity="0.5"></path>
                        <rect id="Rectangle" fill="#D2225C" fill-rule="nonzero" x="37" y="27.0112613" width="19" height="9.05405405" rx="4.52702703"></rect>
                        <rect id="Rectangle" fill="#000000" fill-rule="nonzero" opacity="0.1" x="39" y="34.9775859" width="16" height="1"></rect>
                        <rect id="Rectangle" fill="#000000" fill-rule="nonzero" opacity="0.3" x="39" y="29.0232733" width="16" height="6.03603604"></rect>
                        <ellipse id="Oval" fill="#000000" fill-rule="nonzero" opacity="0.1" cx="43" cy="32.0412913" rx="2" ry="2.01201201"></ellipse>
                        <ellipse id="Oval" fill="#000000" fill-rule="nonzero" opacity="0.1" cx="51" cy="32.0412913" rx="2" ry="2.01201201"></ellipse>
                        <rect id="Rectangle" fill="#D2225C" fill-rule="nonzero" x="45" y="36.0653153" width="3" height="2.01201201"></rect>
                        <rect id="Rectangle" fill="#D2225C" fill-rule="nonzero" x="40" y="37.0713213" width="14" height="11.0660661"></rect>
                        <rect id="Rectangle" fill="#D2225C" fill-rule="nonzero" x="40" y="51.1554054" width="14" height="1.00600601"></rect>
                        <polygon id="Path" fill="#D2225C" fill-rule="nonzero" points="42 55.0452926 42 56.6549342 42 59.0693566 42 60.4106846 42 61.2154655 44 61.2154655 44 60.4106846 44 59.0693566 44 56.6549342 44 55.0452926 44 53.1674174 42 53.1674174"></polygon>
                        <polygon id="Path" fill="#D2225C" fill-rule="nonzero" points="50 53.1674174 50 55.0452926 50 56.6549342 50 59.0693566 50 60.4106846 50 61.2154655 52 61.2154655 52 60.4106846 52 59.0693566 52 56.6549342 52 55.0452926 52 53.1674174"></polygon>
                        <path d="M38,40.0893393 L38,42.7136987 C37.3339119,42.8361196 36.7132662,43.1509382 36.2073519,43.623008 C35.7382004,44.0802105 35.3733766,44.6431322 35.1401759,45.2696568 C34.828197,46.0649769 34.6765391,46.9482342 34.6146384,47.7832825 C34.5383065,48.9095874 34.5883795,50.041434 34.7638216,51.1554054 L32.0674188,51.1554054 C31.9528997,49.586917 31.9894234,48.241191 32.1379835,47.0856671 C32.304497,45.7829384 32.6127654,44.7225108 33.0033604,43.8600982 C33.7845495,42.1359321 34.8956718,41.2005707 35.8718461,40.6925049 C37.0312532,40.0893393 38,40.0893393 38,40.0893393 Z" id="Path" fill="#D2225C" fill-rule="nonzero"></path>
                        <rect id="Rectangle" fill="#000000" fill-rule="nonzero" opacity="0.3" x="42" y="53.1674174" width="2" height="2.01201201"></rect>
                        <rect id="Rectangle" fill="#000000" fill-rule="nonzero" opacity="0.3" x="42" y="57.1914414" width="2" height="2.01201201"></rect>
                        <rect id="Rectangle" fill="#000000" fill-rule="nonzero" opacity="0.3" x="42" y="60.2094595" width="2" height="1.00600601"></rect>
                        <rect id="Rectangle" fill="#000000" fill-rule="nonzero" opacity="0.3" x="50" y="53.1674174" width="2" height="2.01201201"></rect>
                        <rect id="Rectangle" fill="#000000" fill-rule="nonzero" opacity="0.3" x="50" y="57.1914414" width="2" height="2.01201201"></rect>
                        <rect id="Rectangle" fill="#000000" fill-rule="nonzero" opacity="0.3" x="50" y="60.2094595" width="2" height="1.00600601"></rect>
                        <path d="M38,40.0893393 L38,42.330739 C37.3740226,42.4352957 36.7907512,42.7041743 36.3153022,43.1073574 L36,40.6044915 C37.0895895,40.0893393 38,40.0893393 38,40.0893393 Z" id="Path" fill="#000000" fill-rule="nonzero" opacity="0.3"></path>
                        <path d="M35,44.5531466 C34.688249,45.3689092 34.5367019,46.2748693 34.4748465,47.1313814 L32,46.4158347 C32.1663919,45.0796214 32.4744351,43.991937 32.8647447,43.1073574 L35,44.5531466 Z" id="Path" fill="#000000" fill-rule="nonzero" opacity="0.3"></path>
                        <path d="M55,40.0893393 L55,42.7136987 C55.6660883,42.8361196 56.2867342,43.1509382 56.7926486,43.623008 C57.2618,44.0802104 57.6266233,44.6431322 57.8598233,45.2696568 C58.1718031,46.0649769 58.323461,46.9482342 58.3853617,47.7832825 C58.4616932,48.9095874 58.4116202,50.0414339 58.2361786,51.1554054 L60.9325829,51.1554054 C61.047098,49.586917 61.0105783,48.241191 60.8620182,47.0856671 C60.6955046,45.7829384 60.3872353,44.7225108 59.9966411,43.8600982 C59.2154517,42.1359321 58.1043291,41.2005707 57.1281545,40.6925049 C55.9687471,40.0893393 55,40.0893393 55,40.0893393 Z" id="Path" fill="#D2225C" fill-rule="nonzero"></path>
                        <path d="M56,40.0893393 L56,42.330739 C56.6259774,42.4352957 57.2092488,42.7041743 57.6846978,43.1073574 L58,40.6044915 C56.9104105,40.0893393 56,40.0893393 56,40.0893393 Z" id="Path" fill="#000000" fill-rule="nonzero" opacity="0.3"></path>
                        <path d="M58,44.5531466 C58.3117517,45.3689092 58.4632988,46.2748693 58.5251542,47.1313814 L61,46.4158347 C60.8336081,45.0796214 60.5255642,43.991937 60.1352555,43.1073574 L58,44.5531466 Z" id="Path" fill="#000000" fill-rule="nonzero" opacity="0.3"></path>
                        <rect id="Rectangle" fill="#000000" fill-rule="nonzero" opacity="0.1" x="45" y="35.9524377" width="3" height="1"></rect>
                        <path d="M54.1261696,39.0833333 L54.1261696,44.1133634 C53.9638114,43.9194362 53.8736772,43.6647695 53.8738304,43.4004003 L53.8738304,39.7956059 C53.8736814,39.531443 53.9638258,39.276994 54.1261696,39.0833333 L54.1261696,39.0833333 Z" id="Path" fill="#000000" fill-rule="nonzero" opacity="0.1"></path>
                        <path d="M40.1264811,39.7192258 L40.1264811,43.47747 C40.1102675,43.7150918 40.0210141,43.9394562 39.8735189,44.1133634 L39.8735189,39.0833333 C40.0210139,39.2572403 40.1102674,39.4816043 40.1264811,39.7192258 Z" id="Path" fill="#000000" fill-rule="nonzero" opacity="0.1"></path>
                        <rect id="Rectangle" fill="#000000" fill-rule="nonzero" opacity="0.1" x="41" y="48.0567152" width="12" height="1"></rect>
                        <rect id="Rectangle" fill="#000000" fill-rule="nonzero" opacity="0.1" x="40" y="52.098875" width="6" height="1"></rect>
                        <rect id="Rectangle" fill="#000000" fill-rule="nonzero" opacity="0.1" x="47" y="52.098875" width="6" height="1"></rect>
                        <rect id="Rectangle" fill="#D2225C" fill-rule="nonzero" x="41" y="18.9632132" width="1" height="8.04804805"></rect>
                        <rect id="Rectangle" fill="#D2225C" fill-rule="nonzero" x="52" y="18.9632132" width="1" height="8.04804805"></rect>
                        <ellipse id="Oval" fill="#000000" fill-rule="nonzero" opacity="0.1" cx="42" cy="18.9632132" rx="1" ry="1.00600601"></ellipse>
                        <ellipse id="Oval" fill="#D2225C" fill-rule="nonzero" cx="42" cy="18.9632132" rx="1" ry="1.00600601"></ellipse>
                        <ellipse id="Oval" fill="#000000" fill-rule="nonzero" opacity="0.1" cx="52" cy="18.9632132" rx="1" ry="1.00600601"></ellipse>
                        <ellipse id="Oval" fill="#D2225C" fill-rule="nonzero" cx="52" cy="18.9632132" rx="1" ry="1.00600601"></ellipse>
                        <path d="M19.4783379,44.1133634 C19.4783379,44.1133634 22.4924396,50.2870636 20.0365048,53.6651255 C17.58057,57.0431875 20.2597712,66.2454955 20.2597712,66.2454955" id="Path" stroke="#FC6681" stroke-width="2"></path>
                        <path d="M20,42.1013514 C20,43.2125553 19,44.1133634 19,44.1133634 C19,44.1133634 18,43.2125553 18,42.1013514 C18,40.9901474 19,40.0893393 19,40.0893393 C19,40.0893393 20,40.9901482 20,42.1013514 Z" id="Path" fill="#FC6681" fill-rule="nonzero"></path>
                        <path d="M20.5216622,44.1133634 C20.5216622,44.1133634 17.5075603,50.2870636 19.9634953,53.6651255 C22.4194303,57.0431875 19.740228,66.2454955 19.740228,66.2454955" id="Path" stroke="#FFD037" stroke-width="2"></path>
                        <path d="M20,42.1013514 C20,43.2125553 21,44.1133634 21,44.1133634 C21,44.1133634 22,43.2125553 22,42.1013514 C22,40.9901474 21,40.0893393 21,40.0893393 C21,40.0893393 20,40.9901482 20,42.1013514 Z" id="Path" fill="#FFD037" fill-rule="nonzero"></path>
                        <path d="M22.4783378,44.1133634 C22.4783378,44.1133634 25.4924397,50.2870636 23.0365047,53.6651255 C20.5805697,57.0431875 23.259772,66.2454955 23.259772,66.2454955" id="Path" stroke="#FC6681" stroke-width="2"></path>
                        <path d="M23,42.1013514 C23,43.2125553 22,44.1133634 22,44.1133634 C22,44.1133634 21,43.2125553 21,42.1013514 C21,40.9901474 22,40.0893393 22,40.0893393 C22,40.0893393 23,40.9901482 23,42.1013514 Z" id="Path" fill="#FC6681" fill-rule="nonzero"></path>
                        <path d="M22.1320933,47.2169212 C21.3036659,48.0503217 20,48.1373874 20,48.1373874 C20,48.1373874 20.0394794,46.8732344 20.8679067,46.0398316 C21.6963341,45.2064287 23,45.1193694 23,45.1193694 C23,45.1193694 22.9605198,46.3835184 22.1320933,47.2169212 Z" id="Path" fill="#FC6681" fill-rule="nonzero"></path>
                        <path d="M22.1320933,51.2409452 C21.3036659,52.0743457 20,52.1614114 20,52.1614114 C20,52.1614114 20.0394794,50.8972584 20.8679067,50.0638556 C21.6963341,49.2304528 23,49.1433934 23,49.1433934 C23,49.1433934 22.9605198,50.4075424 22.1320933,51.2409452 Z" id="Path" fill="#FC6681" fill-rule="nonzero"></path>
                        <path d="M18.2003648,54.1452943 C19.0287251,54.9786975 18.9998777,56.1854354 18.9998777,56.1854354 C18.9998777,56.1854354 17.6279947,56.0409609 16.7996352,55.2075585 C15.9712758,54.3741562 16.0001223,53.1674174 16.0001223,53.1674174 C16.0001223,53.1674174 17.3720053,53.3118919 18.2003648,54.1452943 Z" id="Path" fill="#FC6681" fill-rule="nonzero"></path>
                        <path d="M18.5373586,44.5176814 C19.6419281,45.0609141 20,46.1029802 20,46.1029802 C20,46.1029802 18.5672147,46.2642902 17.4626451,45.7210568 C16.3580755,45.1778235 16,44.1357588 16,44.1357588 C16,44.1357588 17.432789,43.9744481 18.5373586,44.5176814 Z" id="Path" fill="#FC6681" fill-rule="nonzero"></path>
                        <path d="M23.5216621,44.1133634 C23.5216621,44.1133634 20.5075604,50.2870636 22.9634952,53.6651255 C25.41943,57.0431875 22.7402288,66.2454955 22.7402288,66.2454955" id="Path" stroke="#FFD037" stroke-width="2"></path>
                        <path d="M23,42.1013514 C23,43.2125553 24,44.1133634 24,44.1133634 C24,44.1133634 25,43.2125553 25,42.1013514 C25,40.9901474 24,40.0893393 24,40.0893393 C24,40.0893393 23,40.9901482 23,42.1013514 Z" id="Path" fill="#FFD037" fill-rule="nonzero"></path>
                        <path d="M22.8828884,47.0315468 C22.0544612,47.8649504 22,49.1433934 22,49.1433934 C22,49.1433934 23.2886844,49.0706224 24.1171108,48.2372188 C24.9455372,47.4038152 25,46.1253754 25,46.1253754 C25,46.1253754 23.7113156,46.1981423 22.8828884,47.0315468 Z" id="Path" fill="#FFD037" fill-rule="nonzero"></path>
                        <path d="M24.8828884,53.0675828 C24.0544612,53.9009864 24,55.1794294 24,55.1794294 C24,55.1794294 25.2886844,55.1066584 26.1171108,54.2732548 C26.9455372,53.4398512 27,52.1614114 27,52.1614114 C27,52.1614114 25.7113156,52.2341784 24.8828884,53.0675828 Z" id="Path" fill="#FFD037" fill-rule="nonzero"></path>
                        <path d="M22,52.1614114 C22,52.1614114 23.6642491,49.2068366 26,49.1433934" id="Path" stroke="#FFD037" stroke-width="2"></path>
                        <path d="M21,50.1493994 C21,50.1493994 19.3357509,47.1948246 17,47.1313814" id="Path" stroke="#FC6681" stroke-width="2"></path>
                        <path d="M21,54.1734234 C21,54.1734234 22.6642491,51.2188486 25,51.1554054" id="Path" stroke="#FFD037" stroke-width="2"></path>
                        <ellipse id="Oval" fill="#FFD037" fill-rule="nonzero" cx="26.5" cy="48.6403904" rx="1" ry="1"></ellipse>
                        <ellipse id="Oval" fill="#FC6681" fill-rule="nonzero" cx="16.5" cy="46.6283784" rx="1" ry="1"></ellipse>
                        <path d="M22,55.1794294 C22,55.1794294 20.3357509,52.2248546 18,52.1614114" id="Path" stroke="#FC6681" stroke-width="2"></path>
                        <ellipse id="Oval" fill="#FC6681" fill-rule="nonzero" cx="17.5" cy="51.6584084" rx="1" ry="1"></ellipse>
                        <ellipse id="Oval" fill="#FFD037" fill-rule="nonzero" cx="25.5" cy="51.6584084" rx="1" ry="1"></ellipse>
                        <path d="M32,62.6779827 C32,62.6779827 27.4152374,61.7657431 26.1926343,60.5494238 C24.9700312,59.3331045 19.4683161,57.2045432 18.8570175,58.7249445 C18.2457188,60.2453458 10.6044448,65.4147017 15.8005085,66.3269413 C20.9965723,67.239181 28.0265418,67.5432606 29.5547963,66.9351005 C31.0830508,66.3269405 32,62.6779827 32,62.6779827 Z" id="Path" fill="#A8A8A8" fill-rule="nonzero"></path>
                        <path d="M15.7993992,65.6246955 C20.9958182,66.6210949 28.0262662,66.9532193 29.5546271,66.2889578 C30.718555,65.7830889 31.5273382,63.3525661 31.8471453,62.2214715 C31.9439286,62.2438388 32,62.2561025 32,62.2561025 C32,62.2561025 31.0829855,66.2416491 29.5546246,66.9059115 C28.0262638,67.5701739 20.9958157,67.2380485 15.7993967,66.2416491 C14.2993959,65.954034 13.8704331,65.2785749 14.0320236,64.4237744 C14.1602775,64.9814955 14.682927,65.4106219 15.7993992,65.6246955 Z" id="Path" fill="#000000" fill-rule="nonzero" opacity="0.2"></path>
                        <path d="M80.7536745,45.1193694 C80.7536745,45.1193694 81.7546683,46.5714355 80.2916777,48.7637674 C78.8286871,50.9560993 77.6223631,52.8067729 78.1100259,54.1734234 C78.1100259,54.1734234 80.3173444,50.1019457 82.1139989,50.0450014 C83.9106533,49.9880571 82.7299946,47.5679506 80.7536745,45.1193694 Z" id="Path" fill="#FC6681" fill-rule="nonzero"></path>
                        <path d="M80.7279374,45.1193694 C80.8162225,45.2596481 80.8858771,45.4129787 80.9348107,45.5747597 C82.7078554,47.8594811 83.6524435,49.9915954 81.9480842,50.0450022 C80.3605285,50.0947484 78.4560844,53.2081652 78,53.9944432 C78.0149448,54.0551602 78.0329728,54.1149135 78.0539994,54.1734234 C78.0539994,54.1734234 80.2866081,50.1019465 82.1038476,50.0450022 C83.9210871,49.9880579 82.7269011,47.5679501 80.7279374,45.1193694 Z" id="Path" fill="#000000" fill-rule="nonzero" opacity="0.1"></path>
                        <path d="M83.1243049,47.3940924 C83.1243049,47.8046025 83.068651,48.1373874 83,48.1373874 C82.931349,48.1373874 82.8756951,47.8046025 82.8756951,47.3940924 C82.8756951,46.9835823 82.9451605,47.1768219 83.0138132,47.1768219 C83.0824658,47.1768219 83.1243049,46.9835823 83.1243049,47.3940924 Z" id="Path" fill="#FFD037" fill-rule="nonzero"></path>
                        <path d="M83.7624887,47.6385686 C83.3719787,47.9926791 83.0315158,48.2068204 83.0020441,48.1168639 C82.9725725,48.0269074 83.265253,47.6669223 83.655763,47.3128106 C84.0462731,46.9586989 83.8922689,47.216411 83.9217406,47.3063675 C83.9512122,47.396324 84.1529987,47.2844568 83.7624887,47.6385686 Z" id="Path" fill="#FFD037" fill-rule="nonzero"></path>
                        <path d="M75.246325,45.1193694 C75.246325,45.1193694 74.2453319,46.5714355 75.7083219,48.7637674 C77.1713119,50.9560993 78.3776375,52.8067729 77.8899739,54.1734234 C77.8899739,54.1734234 75.6826559,50.1019457 73.8860012,50.0450014 C72.0893466,49.9880571 73.2700054,47.5679506 75.246325,45.1193694 Z" id="Path" fill="#FC6681" fill-rule="nonzero"></path>
                        <path d="M75.2720626,45.1193694 C75.183778,45.2596482 75.1141237,45.4129788 75.0651901,45.5747597 C73.2921459,47.8594811 72.347558,49.9915954 74.0519169,50.0450022 C75.6394722,50.0947484 77.5439157,53.2081652 78,53.9944432 C77.9850549,54.0551602 77.9670267,54.1149135 77.9459999,54.1734234 C77.9459999,54.1734234 75.7133956,50.1019465 73.8961535,50.0450039 C72.0789115,49.9880612 73.2731003,47.5679501 75.2720626,45.1193694 Z" id="Path" fill="#000000" fill-rule="nonzero" opacity="0.1"></path>
                        <path d="M72.8756951,47.3940924 C72.8756951,47.8046025 72.931349,48.1373874 73,48.1373874 C73.068651,48.1373874 73.1243049,47.8046025 73.1243049,47.3940924 C73.1243049,46.9835823 73.0548387,47.1768219 72.986186,47.1768219 C72.9175334,47.1768219 72.8756951,46.9835823 72.8756951,47.3940924 Z" id="Path" fill="#FFD037" fill-rule="nonzero"></path>
                        <path d="M72.2375111,47.6385686 C72.628022,47.9926791 72.968485,48.2068204 72.997956,48.1168639 C73.0274269,48.0269074 72.7347477,47.6669223 72.3442375,47.3128106 C71.9537273,46.9586989 72.1077315,47.216411 72.0782598,47.3063675 C72.0487882,47.396324 71.8470009,47.2844568 72.2375111,47.6385686 Z" id="Path" fill="#FFD037" fill-rule="nonzero"></path>
                        <path d="M74,53.8875789 C74,53.8875789 76.9561992,53.7891897 77.8471226,53.1036293 C78.7380461,52.4180688 82.3945007,51.5994705 82.6155173,52.698964 C82.8365338,53.7984576 87.058135,58.1673235 83.7206015,58.1964154 C80.383068,58.2255073 75.9656599,57.6346284 75.0764484,57.0493097 C74.1872369,56.463991 74,53.8875789 74,53.8875789 Z" id="Path" fill="#A8A8A8" fill-rule="nonzero"></path>
                        <path d="M83.7808462,57.8394782 C80.4430784,57.8666217 76.0253612,57.315463 75.136089,56.7694876 C74.4588647,56.3536957 74.1889922,54.8617503 74.0986967,54.1734234 C74.0361635,54.1761336 74,54.1773011 74,54.1773011 C74,54.1773011 74.1872524,56.5805151 75.0765237,57.1264929 C75.965795,57.6724707 80.3835131,58.223627 83.7212809,58.1964843 C84.6847617,58.1886524 85.017565,57.8431498 84.9992915,57.3314295 C84.8654391,57.6405952 84.4979751,57.8336506 83.7808462,57.8394782 Z" id="Path" fill="#000000" fill-rule="nonzero" opacity="0.2"></path>
                    </g>
                </g>
            </g>
        </g>
    </g>
</svg>