<?xml version="1.0" encoding="UTF-8"?>
<svg width="115px" height="71px" viewBox="0 0 115 71" version="1.1" xmlns="http://www.w3.org/2000/svg" xmlns:xlink="http://www.w3.org/1999/xlink">
    <!-- Generator: sketchtool 58 (101010) - https://sketch.com -->
    <title>0DCCE64D-3467-42CA-91A7-8201AC4FC3E0</title>
    <desc>Created with sketchtool.</desc>
    <g id="Mobile---UI" stroke="none" stroke-width="1" fill="none" fill-rule="evenodd">
        <g id="3.-Home" transform="translate(-130.000000, -137.000000)" fill-rule="nonzero">
            <g id="Search" transform="translate(23.000000, 113.000000)">
                <g id="Illustration" transform="translate(107.000000, 24.000000)">
                    <path d="M13.8969146,70.1036581 L13.6995667,70.0592107 C15.9000274,60.2734895 21.4299719,51.3871988 29.2707052,45.0371931 C41.3216956,35.2926361 57.5446761,32.4484723 72.1918433,37.5123892 C86.8390104,42.5763062 97.8412378,54.8329515 101.300435,69.9397948 L101.103285,69.9846377 C96.4452557,49.5325411 78.5205587,35.2485114 57.5135532,35.2485114 C36.7818347,35.2485114 18.43839,49.9071862 13.8969146,70.1036581 Z" id="Path" fill="#3F3D56"></path>
                    <circle id="Oval" fill="#FF6584" cx="42.1902685" cy="7.01967889" r="5.49361777"></circle>
                    <path d="M18.5224421,68.8556593 C18.693779,69.4890039 19.2806229,69.881253 19.2806229,69.881253 C19.2806229,69.881253 19.5896887,69.2466452 19.4183569,68.6133006 C19.2470251,67.9799561 18.6601771,67.5877069 18.6601771,67.5877069 C18.6601771,67.5877069 18.3511113,68.2223178 18.5224421,68.8556593 Z" id="Path" fill="#3F3D56"></path>
                    <path d="M18.7742021,68.7195497 C19.2443377,69.1772082 19.3017659,69.8807351 19.3017659,69.8807351 C19.3017659,69.8807351 18.5969484,69.8422521 18.1268118,69.3845936 C17.6566752,68.926935 17.599248,68.2234071 17.599248,68.2234071 C17.599248,68.2234071 18.3040655,68.2618912 18.7742021,68.7195497 Z" id="Path" fill="#D2225C"></path>
                    <path d="M31.5699355,68.8556593 C31.7412673,69.4890039 32.3281163,69.881253 32.3281163,69.881253 C32.3281163,69.881253 32.6371821,69.2466452 32.4658503,68.6133006 C32.2945185,67.9799561 31.7076705,67.5877069 31.7076705,67.5877069 C31.7076705,67.5877069 31.3986047,68.2223178 31.5699355,68.8556593 Z" id="Path" fill="#3F3D56"></path>
                    <path d="M31.8216955,68.7195497 C32.2918311,69.1772082 32.3492593,69.8807351 32.3492593,69.8807351 C32.3492593,69.8807351 31.6444418,69.8422521 31.1743052,69.3845936 C30.7041686,68.926935 30.6467414,68.2234071 30.6467414,68.2234071 C30.6467414,68.2234071 31.3515589,68.2618912 31.8216955,68.7195497 Z" id="Path" fill="#D2225C"></path>
                    <polygon id="Path" fill="#3F3D56" points="34.157124 18.4068777 32.091372 16.7541953 43.6595427 6.4255365 72.9930387 6.4255365 72.9930387 15.5147845 53.9882014 28.3223659"></polygon>
                    <polygon id="Path" fill="#CCCCCC" points="78.3411961 12.2193316 78.3411961 6.63186895 74.4465699 6.63186895 74.4465699 8.00023747 72.9930387 6.4255365 63.4906201 16.7541953 59.7722867 19.2331179 54.0069129 61.3555849 62.701803 70.0503738 82.908628 70.0503738 82.908628 17.1673659"></polygon>
                    <rect id="Rectangle" fill="#F2F2F2" x="32.0913872" y="16.7542377" width="31.3992642" height="53.2961199"></rect>
                    <rect id="Rectangle" fill="#CCCCCC" x="44.2792591" y="57.0361879" width="5.7840752" height="13.0141687"></rect>
                    <polygon id="Path" fill="#3F3D56" points="38.0819921 60.7544899 38.0819921 58.6887379 35.6031706 58.6887379 35.6031706 60.7544899 37.8754573 60.7544899"></polygon>
                    <polygon id="Path" fill="#3F3D56" points="37.8754573 62.4070712 35.6031706 62.4070712 35.6031706 64.4728232 38.0819921 64.4728232 38.0819921 62.4070712"></polygon>
                    <rect id="Rectangle" fill="#3F3D56" x="39.7346291" y="58.6887814" width="2.47888923" height="2.06574085"></rect>
                    <rect id="Rectangle" fill="#3F3D56" x="39.7346291" y="62.4071147" width="2.47888923" height="2.06574085"></rect>
                    <polygon id="Path" fill="#3F3D56" points="55.0210774 60.7544899 55.0210774 58.6887379 52.5422559 58.6887379 52.5422559 60.7544899 54.8145427 60.7544899"></polygon>
                    <polygon id="Path" fill="#3F3D56" points="54.8145427 62.4070712 52.5422559 62.4070712 52.5422559 64.4728232 55.0210774 64.4728232 55.0210774 62.4070712"></polygon>
                    <rect id="Rectangle" fill="#3F3D56" x="56.6737053" y="58.6887814" width="2.47888923" height="2.06574085"></rect>
                    <rect id="Rectangle" fill="#3F3D56" x="56.6737053" y="62.4071147" width="2.47888923" height="2.06574085"></rect>
                    <polygon id="Path" fill="#3F3D56" points="72.3733333 19.4396526 72.3733333 17.3740018 69.8944107 17.3740018 69.8944107 19.4396526 72.1667986 19.4396526"></polygon>
                    <polygon id="Path" fill="#3F3D56" points="72.1667986 21.0923351 69.8944107 21.0923351 69.8944107 23.1579859 72.3733333 23.1579859 72.3733333 21.0923351"></polygon>
                    <rect id="Rectangle" fill="#3F3D56" x="74.0259309" y="17.3739593" width="2.47888923" height="2.06574085"></rect>
                    <rect id="Rectangle" fill="#3F3D56" x="74.0259309" y="21.0922936" width="2.47888923" height="2.06574085"></rect>
                    <polygon id="Path" fill="#3F3D56" points="72.3733333 31.0078232 72.3733333 28.9420712 69.8944107 28.9420712 69.8944107 31.0078232 72.1667986 31.0078232"></polygon>
                    <polygon id="Path" fill="#3F3D56" points="72.1667986 32.6604046 69.8944107 32.6604046 69.8944107 34.7261566 72.3733333 34.7261566 72.3733333 32.6604046"></polygon>
                    <rect id="Rectangle" fill="#3F3D56" x="74.0259309" y="28.9421097" width="2.47888923" height="2.06574085"></rect>
                    <rect id="Rectangle" fill="#3F3D56" x="74.0259309" y="32.660443" width="2.47888923" height="2.06574085"></rect>
                    <polygon id="Path" fill="#3F3D56" points="72.3733333 42.5759938 72.3733333 40.5102419 69.8944107 40.5102419 69.8944107 42.5759938 72.1667986 42.5759938"></polygon>
                    <polygon id="Path" fill="#3F3D56" points="72.1667986 44.2285752 69.8944107 44.2285752 69.8944107 46.2943272 72.3733333 46.2943272 72.3733333 44.2285752"></polygon>
                    <rect id="Rectangle" fill="#3F3D56" x="74.0259309" y="40.5102601" width="2.47888923" height="2.06574085"></rect>
                    <rect id="Rectangle" fill="#3F3D56" x="74.0259309" y="44.2285934" width="2.47888923" height="2.06574085"></rect>
                    <polygon id="Path" fill="#3F3D56" points="72.3733333 54.1441645 72.3733333 52.0784125 69.8944107 52.0784125 69.8944107 54.1441645 72.1667986 54.1441645"></polygon>
                    <polygon id="Path" fill="#3F3D56" points="72.1667986 55.7967458 69.8944107 55.7967458 69.8944107 57.8624978 72.3733333 57.8624978 72.3733333 55.7967458"></polygon>
                    <rect id="Rectangle" fill="#3F3D56" x="74.0259309" y="52.0784095" width="2.47888923" height="2.06574085"></rect>
                    <rect id="Rectangle" fill="#3F3D56" x="74.0259309" y="55.7967438" width="2.47888923" height="2.06574085"></rect>
                    <rect id="Rectangle" fill="#3F3D56" x="35.6031464" y="19.4397001" width="23.9625965" height="4.95777845"></rect>
                    <rect id="Rectangle" fill="#3F3D56" x="35.6031464" y="29.355258" width="23.9625965" height="4.95777845"></rect>
                    <rect id="Rectangle" fill="#3F3D56" x="35.6031464" y="39.270815" width="23.9625965" height="4.95777845"></rect>
                    <rect id="Rectangle" fill="#3F3D56" x="35.6031464" y="49.1863719" width="23.9625965" height="4.95777845"></rect>
                    <rect id="Rectangle" fill="#3F3D56" x="0" y="69.8424048" width="115" height="1"></rect>
                    <rect id="Rectangle" fill="#3F3D56" x="19.2581913" y="46.48698" width="1" height="23.4706696"></rect>
                    <path d="M25.3361234,49.478046 C25.373951,57.685154 19.5998141,64.3650833 19.5998141,64.3650833 C19.5998141,64.3650833 13.764348,57.7386609 13.7265264,49.5315529 C13.6887049,41.3244449 19.4628357,34.6445157 19.4628357,34.6445157 C19.4628357,34.6445157 25.2982978,41.270938 25.3361234,49.478046 Z" id="Path" fill="#D2225C"></path>
                    <path d="M25.3361234,49.478046 C25.373951,57.685154 19.5998141,64.3650833 19.5998141,64.3650833 C19.5998141,64.3650833 13.764348,57.7386609 13.7265264,49.5315529 C13.6887049,41.3244449 19.4628357,34.6445157 19.4628357,34.6445157 C19.4628357,34.6445157 25.2982978,41.270938 25.3361234,49.478046 Z" id="Path" fill="#000000" opacity="0.1"></path>
                    <rect id="Rectangle" fill="#3F3D56" x="11.5336666" y="46.48698" width="1" height="23.4706696"></rect>
                    <path d="M17.6115986,49.478046 C17.6494263,57.685154 11.8752894,64.3650833 11.8752894,64.3650833 C11.8752894,64.3650833 6.03982326,57.7386609 6.00200172,49.5315529 C5.96418017,41.3244449 11.738312,34.6445157 11.738312,34.6445157 C11.738312,34.6445157 17.5737741,41.270938 17.6115986,49.478046 Z" id="Path" fill="#D2225C"></path>
                    <path d="M95.6365589,16.7210485 C90.955976,16.7426214 87.1461656,16.8117741 87.1461656,16.8117741 C87.1461656,16.8117741 91.674723,10.8132366 95.6195749,13.0356515 C99.5644269,15.2580665 104.096059,16.73365 104.096059,16.73365 C104.096059,16.73365 100.317143,16.6994757 95.6365589,16.7210485 Z" id="Path" fill="#F2F2F2"></path>
                    <path d="M17.6550286,28.2513916 C12.9744456,28.2729644 9.16463522,28.3421172 9.16463522,28.3421172 C9.16463522,28.3421172 13.6931926,22.3435796 17.6380446,24.5659945 C21.5828966,26.7884095 26.1145287,28.2639981 26.1145287,28.2639981 C26.1145287,28.2639981 22.3356125,28.2298187 17.6550286,28.2513916 Z" id="Path" fill="#F2F2F2"></path>
                    <path d="M34.647113,4.17927194 C29.9665301,4.20084481 26.1567197,4.26999754 26.1567197,4.26999754 C26.1567197,4.26999754 30.685277,-1.72854002 34.630129,0.493874934 C38.574981,2.71628989 43.1066131,4.19187845 43.1066131,4.19187845 C43.1066131,4.19187845 39.327697,4.15769908 34.647113,4.17927194 Z" id="Path" fill="#F2F2F2"></path>
                    <rect id="Rectangle" fill="#3F3D56" x="104.686701" y="46.48698" width="1" height="23.4706696"></rect>
                    <path d="M110.764633,49.478046 C110.802461,57.685154 105.028324,64.3650833 105.028324,64.3650833 C105.028324,64.3650833 99.1928576,57.7386609 99.155036,49.5315529 C99.1172145,41.3244449 104.891346,34.6445157 104.891346,34.6445157 C104.891346,34.6445157 110.726808,41.270938 110.764633,49.478046 Z" id="Path" fill="#D2225C"></path>
                    <polygon id="Path" fill="#3F3D56" points="83.409591 55.3890369 89.4062797 55.3890369 89.4062797 53.9415743 92.7147801 53.9415743 92.7147801 55.3890369 98.9182058 55.3890369 98.9182058 61.7993008 92.7147801 61.7993008 92.7147801 69.8637643 89.4062797 69.8637643 89.4062797 61.7993008 83.409591 61.7993008 80.3078276 58.2839622"></polygon>
                </g>
            </g>
        </g>
    </g>
</svg>