<?xml version="1.0" encoding="UTF-8"?>
<svg width="22px" height="22px" viewBox="0 0 22 22" version="1.1" xmlns="http://www.w3.org/2000/svg" xmlns:xlink="http://www.w3.org/1999/xlink">
    <!-- Generator: sketchtool 58 (101010) - https://sketch.com -->
    <title>78D13969-E4B4-453C-81DF-896807D497D7</title>
    <desc>Created with sketchtool.</desc>
    <g id="Mobile---UI" stroke="none" stroke-width="1" fill="none" fill-rule="evenodd">
        <g id="3.-Home" transform="translate(-331.000000, -52.000000)" fill="#FFFFFF" fill-rule="nonzero" stroke="#FFFFFF" stroke-width="0.8">
            <g id="Header" transform="translate(24.000000, 40.000000)">
                <g id="icon-profile" transform="translate(308.000000, 13.000000)">
                    <path d="M9.99995552,0.113636364 C4.4825162,0.113636364 0,4.59617045 0,10.1136364 C0,15.6311136 4.48251688,20.1136364 9.99995552,20.1136364 C15.5173951,20.1136364 19.999911,15.6311136 19.999911,10.1136364 C20.0022217,9.94971594 19.9160951,9.79724867 19.7745091,9.71461416 C19.6329231,9.63197965 19.4578121,9.63197965 19.3162261,9.71461416 C19.1746401,9.79724867 19.0885135,9.94971594 19.0908242,10.1136364 C19.0908242,12.7636618 17.9626496,15.1504293 16.1575986,16.8110795 C15.1060285,13.4853857 12.7352243,11.25 9.99995552,11.25 C7.26468678,11.25 4.89388255,13.4853857 3.84231245,16.8110795 C2.03726139,15.1504293 0.909086865,12.7636618 0.909086865,10.1136364 C0.909086865,5.08747955 4.9738231,1.02272727 9.99995552,1.02272727 C14.3558464,1.02272727 17.9853475,4.07832045 18.8777569,8.16051136 C18.900583,8.26709272 18.9413307,9.21358894 19,11 C19.585789,10.4064043 19.9191224,10.073071 20,10 C20.1213165,9.8903935 19.8069148,8.12861426 19.7726393,7.96875 C18.7904144,3.47571364 14.7816367,0.113636364 9.99995552,0.113636364 Z M9.99995552,3.52272727 C8.24807695,3.52272727 6.81815149,4.95266136 6.81815149,6.70454545 C6.81815149,8.45642955 8.24807695,9.88636364 9.99995552,9.88636364 C11.7518343,9.88636364 13.1817595,8.45642955 13.1817595,6.70454545 C13.1817595,4.95266136 11.7518343,3.52272727 9.99995552,3.52272727 Z M9.99995552,4.43181818 C11.260527,4.43181818 12.2726727,5.44397045 12.2726727,6.70454545 C12.2726727,7.96512045 11.260527,8.97727273 9.99995552,8.97727273 C8.73938431,8.97727273 7.72723835,7.96512045 7.72723835,6.70454545 C7.72723835,5.44397045 8.73938431,4.43181818 9.99995552,4.43181818 Z M9.99995552,12.1590909 C12.3199166,12.1590909 14.4816149,14.173258 15.3905565,17.4360795 C13.8826139,18.547662 12.0198927,19.2045455 9.99995552,19.2045455 C7.98001859,19.2045455 6.11729733,18.547662 4.6093545,17.4360795 C5.51829613,14.173258 7.67999447,12.1590909 9.99995552,12.1590909 Z" id="Shape"></path>
                </g>
            </g>
        </g>
    </g>
</svg>